<svg width="17" height="16" viewBox="0 0 17 16" fill="none" xmlns="http://www.w3.org/2000/svg">
    <path d="M11.4332 6L7.81031 9.62288C7.6783 9.75488 7.6123 9.82088 7.53619 9.84561C7.46924 9.86737 7.39713 9.86737 7.33018 9.84561C7.25407 9.82088 7.18807 9.75488 7.05606 9.62288L5.81031 8.37712C5.67831 8.24512 5.6123 8.17912 5.53619 8.15439C5.46924 8.13263 5.39713 8.13263 5.33018 8.15439C5.25407 8.17912 5.18807 8.24512 5.05606 8.37712L2.09985 11.3333M11.4332 6H8.76652M11.4332 6V8.66667M5.29985 14H10.8999C12.02 14 12.58 14 13.0078 13.782C13.3842 13.5903 13.6901 13.2843 13.8819 12.908C14.0999 12.4802 14.0999 11.9201 14.0999 10.8V5.2C14.0999 4.0799 14.0999 3.51984 13.8819 3.09202C13.6901 2.71569 13.3842 2.40973 13.0078 2.21799C12.58 2 12.02 2 10.8999 2H5.29985C4.17975 2 3.6197 2 3.19187 2.21799C2.81555 2.40973 2.50959 2.71569 2.31784 3.09202C2.09985 3.51984 2.09985 4.0799 2.09985 5.2V10.8C2.09985 11.9201 2.09985 12.4802 2.31784 12.908C2.50959 13.2843 2.81555 13.5903 3.19187 13.782C3.6197 14 4.17975 14 5.29985 14Z"
          stroke="#9A9ABD" stroke-width="1.5" stroke-linecap="round" stroke-linejoin="round"/>
</svg>
