<svg width="16" height="16" viewBox="0 0 16 16" fill="none" xmlns="http://www.w3.org/2000/svg">
    <path d="M1.6 2C0.716344 2 0 2.71635 0 3.6V5.2H5C5.44183 5.2 5.8 5.55817 5.8 6C5.8 7.21503 6.78497 8.2 8 8.2C9.21503 8.2 10.2 7.21503 10.2 6C10.2 5.55817 10.5582 5.2 11 5.2H16V3.6C16 2.71634 15.2837 2 14.4 2H1.6Z" fill="white"/>
    <path d="M16 6.8H11.7156C11.3483 8.51453 9.82425 9.8 8 9.8C6.17575 9.8 4.65174 8.51453 4.28436 6.8H0V12.4C0 13.2837 0.716345 14 1.6 14H14.4C15.2837 14 16 13.2837 16 12.4V6.8Z" fill="white"/>
</svg>
