<svg width="24" height="24" viewBox="0 0 24 24" fill="none" xmlns="http://www.w3.org/2000/svg">
    <path d="M18 6H6C5.44772 6 5 6.44772 5 7C5 7.55228 5.44772 8 6 8H18C18.5523 8 19 7.55228 19 7C19 6.44772 18.5523 6 18 6Z" fill="#E5494D"/>
    <path d="M18 11H10C9.44772 11 9 11.4477 9 12C9 12.5523 9.44772 13 10 13H18C18.5523 13 19 12.5523 19 12C19 11.4477 18.5523 11 18 11Z" fill="#5A6274"/>
    <path d="M18 16H6C5.44772 16 5 16.4477 5 17C5 17.5523 5.44772 18 6 18H18C18.5523 18 19 17.5523 19 17C19 16.4477 18.5523 16 18 16Z" fill="#25B05B"/>
</svg>
