<svg width="149" height="48" viewBox="0 0 149 48" fill="none" xmlns="http://www.w3.org/2000/svg">
    <path d="M109.495 14.6666V22.9158H117.149C117.545 22.9158 117.744 22.7315 117.744 22.363V15.2194C117.744 14.8507 117.545 14.6666 117.149 14.6666H109.495ZM65.272 14.6666V23.5536H72.8407C73.2375 23.5536 73.4359 23.3695 73.4359 23.0008V15.2194C73.4359 14.8507 73.2375 14.6666 72.8407 14.6666H65.272ZM65.272 37.501H60.2542V10.4993L71.6076 10.3293C73.8756 10.2725 75.5905 10.783 76.7529 11.8602C77.915 12.9376 78.4963 14.4966 78.4963 16.5375V21.5553C78.4963 22.8027 78.241 23.908 77.731 24.872C77.2204 25.8357 76.448 26.5869 75.4133 27.1253C74.3787 27.6638 73.11 27.9334 71.6076 27.9334H65.272V37.501ZM101.118 37.501H96.1428L94.7459 30.9951H84.8977L83.301 37.501H78.6238L84.5766 14.9641C84.9169 13.7451 85.2715 12.7955 85.6399 12.1152C86.0084 11.4349 86.5327 10.96 87.213 10.6909C87.8933 10.4215 88.8291 10.3009 90.0197 10.3293L95.0373 10.4993L101.118 37.501ZM88.8291 15.3044L85.9597 26.7003H93.8377L91.2103 14.7941H89.3394C89.1694 14.7941 89.0557 14.8297 88.9992 14.9006C88.9423 14.9713 88.8857 15.1059 88.8291 15.3044ZM133.052 37.501H128.077V10.4993H133.052V21.6827H138.027C138.226 21.6827 138.353 21.64 138.41 21.5553C138.466 21.47 138.523 21.3425 138.58 21.1725L143.002 10.4993H148.02L143.938 20.1519C143.569 21.0025 143.229 21.7109 142.917 22.278C142.605 22.8449 142.251 23.2774 141.854 23.5749C141.715 23.6793 141.561 23.7723 141.392 23.8542C141.978 24.0939 142.466 24.4828 142.853 25.0207C143.293 25.6301 143.782 26.5019 144.321 27.6358L148.998 37.501H143.682L138.58 26.5725C138.523 26.3744 138.466 26.2397 138.41 26.1688C138.353 26.0979 138.24 26.0625 138.07 26.0625H133.052V37.501ZM43.7984 21.6827H48.9437C51.2112 21.6827 52.9405 22.2143 54.1313 23.2774C55.3219 24.3404 55.9172 25.8782 55.9172 27.8909V31.4628C55.9172 33.504 55.3288 35.063 54.1525 36.1401C52.9761 37.2173 51.2537 37.7278 48.986 37.671L38.6956 37.501V33.1637H50.2618C50.6303 33.1637 50.8146 32.9653 50.8146 32.5684V26.7853C50.8146 26.3885 50.6303 26.19 50.2618 26.19H45.0737C42.8063 26.19 41.0839 25.6656 39.9074 24.6167C38.7309 23.5677 38.1428 22.023 38.1428 19.9819V16.58C38.1428 14.5675 38.7381 13.0082 39.9289 11.9024C41.1195 10.7971 42.8485 10.2725 45.1165 10.3293L55.0241 10.4993V14.8366H43.7984C43.4297 14.8366 43.2456 15.035 43.2456 15.4319V21.0875C43.2456 21.4843 43.4297 21.6827 43.7984 21.6827ZM109.495 37.501H104.477V10.4993L115.916 10.3293C118.183 10.2725 119.906 10.783 121.082 11.8602C122.258 12.9376 122.847 14.4966 122.847 16.5375V20.8325C122.847 22.4765 122.4 23.8514 121.507 24.9567C120.9 25.7087 120.099 26.2702 119.106 26.642L119.117 26.6379L119.111 26.6455C119.312 26.7738 119.494 26.9197 119.658 27.0831C120.168 27.5931 120.607 28.3727 120.976 29.4217L123.825 37.501H118.807L115.576 27.8486C115.49 27.6218 115.412 27.459 115.341 27.3594C115.271 27.2603 115.108 27.2106 114.853 27.2106H109.495V37.501Z" fill="#FEFEFE"/>
    <path d="M6.51355 12.6556L27.2702 33.412L25.2339 35.4483L4.47729 14.6919L6.51355 12.6556Z" fill="#FF6A00"/>
    <path d="M31.7795 20.2586L0.902267 30.4235L0 27.6893L30.877 17.5241L31.7795 20.2586Z" fill="#5A72F1"/>
    <path d="M24.9864 0.899979L9.39143 48L6.65747 47.1L22.2522 0L24.9864 0.899979Z" fill="#00E61A"/>
</svg>
