<svg width="40" height="40" viewBox="0 0 40 40" fill="none" xmlns="http://www.w3.org/2000/svg">
    <g clip-path="url(#clip0_642_45284)">
        <path d="M31.6035 14.2185C31.9594 14.2146 34.7539 15.7134 34.9031 16.0316C35.0644 16.3764 35.014 16.7549 34.809 17.0115L19.0209 36.7705C18.9121 36.8855 18.8176 36.9614 18.6841 37.0237C18.4169 37.1477 18.1268 37.1532 17.8672 37.0155C17.4901 36.8354 15.1573 34.9305 15.2754 34.4883L20.3608 26.2387H9.286C8.93002 26.2424 5.39534 22.8416 5.60038 22.585C13.0007 13.1184 18.2839 6.40796 21.4502 2.4538C21.9677 1.80755 24.3108 3.41769 24.7003 3.6243C25.1041 3.792 25.3153 4.24282 25.2239 4.67266L22.3823 15.5482L31.6035 14.2185Z"
              stroke="#01FFC8" stroke-width="0.83797"/>
        <path d="M31.5688 13.7363C31.9219 13.7325 32.2428 13.9358 32.3907 14.2513C32.5508 14.5932 32.5009 14.9686 32.2975 15.2231L16.64 34.8187C16.5322 34.9328 16.4384 35.0081 16.3061 35.0697C16.0411 35.1927 15.7534 35.1982 15.4958 35.0616C15.1219 34.883 14.8859 34.4482 15.0031 34.0096L17.8211 23.224L6.22596 23.2596C5.87292 23.2634 5.55195 23.0602 5.40412 22.7446C5.25629 22.4291 5.29392 22.0274 5.49726 21.7728L21.1672 2.20356C21.4253 1.85957 21.8862 1.74169 22.2725 1.94659C22.6729 2.1129 22.8823 2.55999 22.7917 2.98627L19.9737 13.772L31.5688 13.7363Z"
              fill="#01FFC8"/>
    </g>
    <defs>
        <clipPath id="clip0_642_45284">
            <rect width="40" height="40" fill="white"/>
        </clipPath>
    </defs>
</svg>
