<svg width="25" height="24" viewBox="0 0 25 24" fill="none" xmlns="http://www.w3.org/2000/svg">
    <path d="M17.75 8.99994C17.75 8.48812 17.5547 7.9763 17.1642 7.58579C16.7737 7.19526 16.2618 7 15.75 7M15.75 15C19.0637 15 21.75 12.3137 21.75 9C21.75 5.68629 19.0637 3 15.75 3C12.4363 3 9.75 5.68629 9.75 9C9.75 9.27368 9.76832 9.54308 9.80381 9.80704C9.86218 10.2412 9.89136 10.4583 9.87172 10.5956C9.85125 10.7387 9.8252 10.8157 9.75469 10.9419C9.687 11.063 9.56771 11.1823 9.32913 11.4209L4.21863 16.5314C4.04568 16.7043 3.9592 16.7908 3.89736 16.8917C3.84253 16.9812 3.80213 17.0787 3.77763 17.1808C3.75 17.2959 3.75 17.4182 3.75 17.6627V19.4C3.75 19.9601 3.75 20.2401 3.85899 20.454C3.95487 20.6422 4.10785 20.7951 4.29601 20.891C4.50992 21 4.78995 21 5.35 21H7.75V19H9.75V17H11.75L13.3291 15.4209C13.5677 15.1823 13.687 15.063 13.8081 14.9953C13.9343 14.9248 14.0113 14.8987 14.1544 14.8783C14.2917 14.8586 14.5088 14.8878 14.943 14.9462C15.2069 14.9817 15.4763 15 15.75 15Z"
          stroke="#1F262B" stroke-width="2" stroke-linecap="round" stroke-linejoin="round"/>
</svg>
