<svg width="17" height="16" viewBox="0 0 17 16" fill="none" xmlns="http://www.w3.org/2000/svg">
    <g clip-path="url(#clip0_18_657)">
        <path d="M13.4332 6.33332V4.79999C13.4332 4.05325 13.4332 3.67989 13.2879 3.39467C13.1601 3.14379 12.9561 2.93981 12.7052 2.81198C12.42 2.66666 12.0466 2.66666 11.2999 2.66666H3.56656C2.81982 2.66666 2.44646 2.66666 2.16124 2.81198C1.91036 2.93981 1.70638 3.14379 1.57855 3.39467C1.43323 3.67988 1.43323 4.05325 1.43323 4.79999V11.2C1.43323 11.9467 1.43323 12.3201 1.57855 12.6053C1.70638 12.8562 1.91036 13.0602 2.16124 13.188C2.44646 13.3333 2.81982 13.3333 3.56656 13.3333L11.2999 13.3333C12.0466 13.3333 12.42 13.3333 12.7052 13.188C12.9561 13.0602 13.1601 12.8562 13.2879 12.6053C13.4332 12.3201 13.4332 11.9467 13.4332 11.2V9.66666M10.0999 7.99999C10.0999 7.69022 10.0999 7.53533 10.1255 7.40654C10.2307 6.87762 10.6442 6.46415 11.1731 6.35894C11.3019 6.33332 11.4568 6.33332 11.7666 6.33332H13.0999C13.4097 6.33332 13.5645 6.33332 13.6933 6.35894C14.2223 6.46415 14.6357 6.87762 14.7409 7.40654C14.7666 7.53533 14.7666 7.69022 14.7666 7.99999C14.7666 8.30976 14.7666 8.46464 14.7409 8.59344C14.6357 9.12236 14.2223 9.53583 13.6933 9.64104C13.5645 9.66666 13.4097 9.66666 13.0999 9.66666H11.7666C11.4568 9.66666 11.3019 9.66666 11.1731 9.64104C10.6442 9.53583 10.2307 9.12236 10.1255 8.59344C10.0999 8.46464 10.0999 8.30976 10.0999 7.99999Z"
              stroke="#9A9ABD" stroke-width="1.5" stroke-linecap="round" stroke-linejoin="round"/>
    </g>
    <defs>
        <clipPath id="clip0_18_657">
            <rect width="16" height="16" fill="white" transform="translate(0.0998535)"/>
        </clipPath>
    </defs>
</svg>
