<svg width="56" height="56" viewBox="0 0 56 56" fill="none" xmlns="http://www.w3.org/2000/svg">
    <rect width="56" height="56" fill="black"/>
    <path d="M28 18.136L21.0088 25.1272L16.9408 21.0592L28 10L39.0628 21.0628L34.9948 25.1308L28 18.136Z"
          fill="#FFCF32"/>
    <path d="M14.068 32.068L10 28L14.068 23.932L18.136 28L14.068 32.068Z" fill="#FFCF32"/>
    <path d="M16.9354 34.9354L21.0088 30.8728L28 37.864L34.9948 30.8674L39.0628 34.9354V34.9372L28 46L16.9408 34.9408L16.9354 34.9354Z"
          fill="#FFCF32"/>
    <path d="M41.932 32.068L37.864 28L41.932 23.932L46 28L41.932 32.068Z" fill="#FFCF32"/>
    <path d="M32.1274 27.9964H32.1256V27.9982L32.1292 28L32.1274 28.0018L27.9982 32.1292L23.8762 28.0054L23.869 28L23.8762 27.9946L24.598 27.271L24.949 26.92L28 23.8708L32.1274 27.9964Z"
          fill="#FFCF32"/>
</svg>
