<svg width="40" height="40" viewBox="0 0 40 40" fill="none" xmlns="http://www.w3.org/2000/svg">
    <g clip-path="url(#clip0_414_28770)">
        <path d="M20 40C31.0457 40 40 31.0457 40 20C40 8.95431 31.0457 0 20 0C8.95431 0 0 8.95431 0 20C0 31.0457 8.95431 40 20 40Z"
              fill="#3FE8BD"/>
        <path d="M30.1637 19.6365C30.072 19.4349 29.873 19.3045 29.6547 19.306L24.8589 19.3111C24.2814 19.3116 24.1043 18.932 24.465 18.4669L26.7242 15.5568C26.8507 15.3941 26.875 15.1368 26.7833 14.9368C26.6915 14.7347 26.492 14.6047 26.2743 14.6063L19.742 14.6277C19.3823 14.6288 19.1621 14.3361 19.2528 13.977L20.8334 7.73622C20.9064 7.45586 20.761 7.17907 20.5288 7.06498C20.3691 6.97749 20.191 6.98107 20.0263 7.05935C19.9449 7.09874 19.8859 7.14684 19.8204 7.22L10.117 19.7434C9.99051 19.9061 9.95975 20.1456 10.0585 20.3635C10.1503 20.5651 10.3492 20.6955 10.5675 20.694L15.3634 20.6889C15.9408 20.6884 16.1179 21.068 15.7573 21.5331L13.498 24.4432C13.3715 24.6059 13.3472 24.8632 13.439 25.0632C13.5307 25.2653 13.7302 25.3953 13.948 25.3937L20.4802 25.3723C20.8399 25.3712 21.0602 25.6639 20.9694 26.023L19.3888 32.2638C19.3159 32.5441 19.4612 32.8209 19.6934 32.935C19.8531 33.0225 20.0312 33.0189 20.1959 32.9406C20.2773 32.9013 20.3363 32.8532 20.4018 32.78L30.1052 20.2566C30.2317 20.0939 30.2625 19.8544 30.1637 19.6365Z"
              fill="white"/>
    </g>
    <defs>
        <clipPath id="clip0_414_28770">
            <rect width="40" height="40" fill="white"/>
        </clipPath>
    </defs>
</svg>
