<svg width="40" height="40" viewBox="0 0 40 40" fill="none" xmlns="http://www.w3.org/2000/svg">
    <g clip-path="url(#clip0_414_28716)">
        <path d="M20 39.375C30.7005 39.375 39.375 30.7005 39.375 20C39.375 9.29948 30.7005 0.625 20 0.625C9.29948 0.625 0.625 9.29948 0.625 20C0.625 30.7005 9.29948 39.375 20 39.375Z"
              fill="#F9FAFB" stroke="url(#paint0_linear_414_28716)" stroke-width="1.21875"/>
        <mask id="mask0_414_28716" style="mask-type:alpha" maskUnits="userSpaceOnUse" x="0" y="0" width="40"
              height="40">
            <path d="M20 40C31.0457 40 40 31.0457 40 20C40 8.9543 31.0457 0 20 0C8.9543 0 0 8.9543 0 20C0 31.0457 8.9543 40 20 40Z"
                  fill="#F9FAFB"/>
        </mask>
        <g mask="url(#mask0_414_28716)">
            <path opacity="0.18" d="M50.8337 -7.91699H-4.58301V56.2497H50.8337V-7.91699Z"
                  fill="url(#paint1_radial_414_28716)"/>
        </g>
        <path d="M16.7043 11.1474C16.4128 11.1022 16.4006 11.0969 16.5377 11.0758C16.8006 11.0354 17.4213 11.0905 17.849 11.1922C18.8475 11.4296 19.7561 12.0376 20.7259 13.1175L20.9836 13.4043L21.3523 13.345C22.9051 13.0955 24.4848 13.2938 25.8062 13.9042C26.1696 14.0722 26.7428 14.4064 26.8144 14.4923C26.8371 14.5197 26.8791 14.6959 26.9073 14.884C27.0056 15.5345 26.9564 16.0332 26.7575 16.4056C26.6492 16.6083 26.6431 16.6726 26.7158 16.846C26.7741 16.9843 26.9361 17.0868 27.0965 17.0867C27.4248 17.0863 27.7783 16.5554 27.9421 15.8168L28.007 15.5235L28.1359 15.6694C28.8427 16.4702 29.3979 17.5623 29.4933 18.3396L29.5181 18.5424L29.3993 18.3581C29.1947 18.0411 28.9893 17.8252 28.7263 17.6511C28.252 17.3374 27.7507 17.2305 26.4226 17.1605C25.2233 17.0974 24.5446 16.995 23.8714 16.7754C22.7263 16.4021 22.1491 15.9048 20.7886 14.1201C20.1845 13.3274 19.8111 12.8888 19.4395 12.5356C18.5955 11.733 17.7661 11.3121 16.7043 11.1474Z"
              fill="#FF007A"/>
        <path d="M27.0843 12.9172C27.1143 12.386 27.1864 12.0356 27.3312 11.7156C27.3885 11.589 27.4423 11.4854 27.4505 11.4854C27.4589 11.4854 27.4339 11.5789 27.3952 11.6931C27.2898 12.0036 27.2726 12.4283 27.3451 12.9225C27.4371 13.5495 27.4896 13.64 28.1523 14.3173C28.4631 14.635 28.8246 15.0356 28.9557 15.2076L29.1941 15.5204L28.9557 15.2969C28.6643 15.0236 27.9941 14.4904 27.8459 14.4142C27.7467 14.3631 27.7319 14.364 27.6707 14.4249C27.6143 14.4811 27.6024 14.5655 27.5945 14.9644C27.5823 15.5862 27.4976 15.9853 27.293 16.3844C27.1825 16.6002 27.1649 16.5541 27.2651 16.3105C27.3398 16.1286 27.3475 16.0486 27.347 15.4467C27.3457 14.2374 27.2021 13.9466 26.3602 13.4485C26.1468 13.3224 25.7953 13.1404 25.5792 13.0441C25.3629 12.9479 25.1912 12.8641 25.1974 12.8578C25.2213 12.8341 26.0424 13.0737 26.3729 13.2009C26.8645 13.39 26.9457 13.4145 27.0053 13.3917C27.0453 13.3764 27.0647 13.2598 27.0843 12.9172Z"
              fill="#FF007A"/>
        <path d="M17.2702 14.9865C16.6784 14.1719 16.3123 12.9228 16.3916 11.9891L16.4161 11.7002L16.5508 11.7247C16.8038 11.7709 17.2399 11.9332 17.4441 12.0572C18.0045 12.3976 18.247 12.8457 18.4938 13.9964C18.5662 14.3334 18.6611 14.7148 18.7047 14.8439C18.775 15.0517 19.0405 15.5372 19.2563 15.8525C19.4119 16.0796 19.3086 16.1872 18.9649 16.1562C18.4399 16.1087 17.7288 15.618 17.2702 14.9865Z"
              fill="#FF007A"/>
        <path d="M26.3671 21.0491C23.6018 19.9358 22.6279 18.9692 22.6279 17.3386C22.6279 17.0987 22.6361 16.9023 22.6462 16.9023C22.6562 16.9023 22.7633 16.9815 22.8839 17.0784C23.4446 17.5281 24.0726 17.7202 25.811 17.9738C26.8339 18.123 27.4095 18.2435 27.9406 18.4197C29.6284 18.9794 30.6726 20.1154 30.9216 21.6626C30.994 22.1122 30.9516 22.9553 30.8343 23.3996C30.7416 23.7505 30.4589 24.3831 30.3841 24.4074C30.3633 24.4142 30.3428 24.3345 30.3376 24.2261C30.3091 23.6451 30.0155 23.0794 29.5225 22.6558C28.9618 22.1741 28.2086 21.7905 26.3671 21.0491Z"
              fill="#FF007A"/>
        <path d="M24.4261 21.5122C24.3914 21.3061 24.3313 21.0427 24.2926 20.9271L24.2219 20.7168L24.3531 20.864C24.5344 21.0675 24.6776 21.328 24.7992 21.675C24.8919 21.9398 24.9023 22.0185 24.9016 22.4488C24.9009 22.8712 24.8894 22.9598 24.8036 23.1982C24.6687 23.5741 24.5012 23.8405 24.2201 24.1265C23.715 24.6407 23.0655 24.9253 22.1284 25.0433C21.9655 25.0638 21.4906 25.0984 21.0732 25.1201C20.0212 25.1749 19.3289 25.2879 18.7068 25.5063C18.6174 25.5377 18.5375 25.5568 18.5294 25.5487C18.5042 25.5238 18.9277 25.2712 19.2777 25.1027C19.7709 24.8651 20.2621 24.7353 21.3623 24.5522C21.9058 24.4616 22.4671 24.3518 22.6096 24.308C23.9556 23.8953 24.6476 22.8304 24.4261 21.5122Z"
              fill="#FF007A"/>
        <path d="M25.6929 23.7631C25.3255 22.9733 25.2412 22.2108 25.4424 21.4996C25.4639 21.4236 25.4986 21.3613 25.5193 21.3613C25.5402 21.3613 25.627 21.4083 25.7121 21.4656C25.8813 21.5795 26.221 21.7715 27.1256 22.2647C28.2544 22.8802 28.898 23.3567 29.3357 23.9012C29.719 24.3782 29.9562 24.9212 30.0704 25.5835C30.135 25.9586 30.0972 26.8612 30.001 27.239C29.6974 28.4301 28.9921 29.3656 27.986 29.9116C27.8385 29.9915 27.7061 30.0571 27.6919 30.0575C27.6775 30.0578 27.7312 29.9212 27.8112 29.754C28.1497 29.0464 28.1882 28.3582 27.9323 27.5922C27.7756 27.1232 27.4562 26.5508 26.8112 25.5836C26.0612 24.459 25.8774 24.1597 25.6929 23.7631Z"
              fill="#FF007A"/>
        <path d="M15.3065 28.0246C16.3327 27.1581 17.6095 26.5426 18.7726 26.3536C19.2738 26.2722 20.1089 26.3046 20.573 26.4233C21.317 26.6137 21.9825 27.0402 22.3286 27.5483C22.6669 28.0449 22.812 28.4777 22.9631 29.4404C23.0227 29.8202 23.0875 30.2017 23.1072 30.2879C23.2206 30.787 23.4414 31.1859 23.7151 31.3862C24.1497 31.7042 24.8981 31.724 25.6343 31.4369C25.7591 31.3881 25.8677 31.3544 25.8753 31.3621C25.902 31.3886 25.5313 31.6366 25.2698 31.7674C24.9179 31.9431 24.6381 32.0112 24.2662 32.0112C23.5919 32.0112 23.0322 31.6681 22.565 30.9686C22.4732 30.8311 22.2666 30.4188 22.1059 30.0526C21.6129 28.9277 21.3692 28.5851 20.7967 28.2101C20.2983 27.8838 19.6556 27.8252 19.1722 28.0623C18.5371 28.3737 18.3599 29.1852 18.8148 29.6997C18.9956 29.904 19.3327 30.0803 19.6084 30.1146C20.1241 30.1788 20.5673 29.7865 20.5673 29.2658C20.5673 28.9277 20.4374 28.7348 20.1101 28.5871C19.6634 28.3855 19.1832 28.6212 19.1854 29.0409C19.1864 29.2198 19.2644 29.3323 19.4438 29.4134C19.5589 29.4655 19.5616 29.4697 19.4676 29.4502C19.0577 29.3652 18.9617 28.8709 19.2913 28.5429C19.687 28.149 20.5054 28.3228 20.7864 28.8604C20.9044 29.0861 20.9181 29.5359 20.8152 29.8075C20.5849 30.4153 19.9132 30.7351 19.2318 30.5611C18.768 30.4427 18.579 30.3144 18.0197 29.7383C17.0479 28.7372 16.6706 28.5431 15.2695 28.3245L15.001 28.2825L15.3065 28.0246Z"
              fill="#FF007A"/>
        <path fill-rule="evenodd" clip-rule="evenodd"
              d="M9.64499 8.51578C12.8906 12.455 16.2277 15.6715 16.4761 16.0148C16.6812 16.2984 16.604 16.5533 16.2527 16.753C16.0572 16.8641 15.6555 16.9767 15.4544 16.9767C15.2269 16.9767 14.9706 16.8671 14.7839 16.69C14.652 16.565 14.1196 15.7699 12.8905 13.8628C11.9501 12.4035 11.163 11.193 11.1416 11.1727C11.0919 11.1259 11.0928 11.1274 12.7946 14.1725C13.8632 16.0845 14.224 16.7605 14.224 16.851C14.224 17.0348 14.1738 17.1315 13.9469 17.3845C13.5688 17.8064 13.3998 18.2804 13.2777 19.2614C13.1409 20.361 12.7563 21.1377 11.6903 22.4672C11.0662 23.2455 10.9642 23.3882 10.8067 23.7018C10.6084 24.0969 10.5539 24.3181 10.5317 24.8169C10.5084 25.3443 10.5539 25.6849 10.715 26.1892C10.8561 26.6305 11.0033 26.9221 11.3797 27.5051C11.7045 28.0082 11.8916 28.382 11.8916 28.5284C11.8916 28.6447 11.9138 28.6449 12.4171 28.5312C13.6217 28.2592 14.5999 27.7808 15.15 27.1945C15.4904 26.8315 15.5704 26.6312 15.5729 26.1338C15.5747 25.8087 15.5632 25.7405 15.4753 25.5533C15.3322 25.2488 15.0716 24.9956 14.4973 24.603C13.7448 24.0885 13.4234 23.6745 13.3347 23.105C13.2618 22.6377 13.3463 22.3079 13.7626 21.4355C14.1934 20.5325 14.3002 20.1475 14.3724 19.2373C14.4191 18.6493 14.4837 18.4172 14.6527 18.2312C14.8289 18.037 14.9875 17.9712 15.4237 17.9117C16.1347 17.8146 16.5874 17.6306 16.9596 17.2876C17.2825 16.9902 17.4175 16.7035 17.4383 16.272L17.454 15.9449L17.2736 15.7346C16.6202 14.9728 9.20745 7.91699 9.16724 7.91699C9.15866 7.91699 9.37366 8.18645 9.64499 8.51578ZM12.2583 25.4135C12.406 25.152 12.3275 24.8157 12.0804 24.6515C11.847 24.4962 11.4843 24.5692 11.4843 24.7716C11.4843 24.8333 11.5184 24.8782 11.5954 24.9178C11.7249 24.9844 11.7343 25.0594 11.6324 25.2126C11.5292 25.3678 11.5375 25.5042 11.6559 25.5968C11.8467 25.7462 12.1168 25.6642 12.2583 25.4135Z"
              fill="#FF007A"/>
        <path fill-rule="evenodd" clip-rule="evenodd"
              d="M17.9027 18.083C17.5689 18.1854 17.2445 18.5392 17.144 18.9102C17.0827 19.1365 17.1175 19.5334 17.2093 19.6559C17.3576 19.854 17.5009 19.9061 17.8892 19.9035C18.6493 19.8982 19.3102 19.5722 19.387 19.1645C19.45 18.8304 19.1597 18.3675 18.76 18.1643C18.5537 18.0594 18.115 18.0178 17.9027 18.083ZM18.7913 18.7778C18.9086 18.6112 18.8573 18.4311 18.658 18.3095C18.2782 18.0775 17.7041 18.2695 17.7041 18.6281C17.7041 18.8066 18.0035 19.0015 18.2779 19.0015C18.4606 19.0015 18.7106 18.8925 18.7913 18.7778Z"
              fill="#FF007A"/>
    </g>
    <defs>
        <linearGradient id="paint0_linear_414_28716" x1="33.75" y1="32.7083" x2="8.95833" y2="5"
                        gradientUnits="userSpaceOnUse">
            <stop stop-color="#FCC0DB"/>
            <stop offset="1" stop-color="#FAF0F5"/>
        </linearGradient>
        <radialGradient id="paint1_radial_414_28716" cx="0" cy="0" r="1" gradientUnits="userSpaceOnUse"
                        gradientTransform="translate(23.1252 24.1664) rotate(90) scale(32.0834 27.7083)">
            <stop stop-color="#FF64A5"/>
            <stop offset="1" stop-color="#F7F8FA"/>
        </radialGradient>
        <clipPath id="clip0_414_28716">
            <rect width="40" height="40" fill="white"/>
        </clipPath>
    </defs>
</svg>
