<svg width="56" height="56" viewBox="0 0 56 56" fill="none" xmlns="http://www.w3.org/2000/svg">
    <rect width="56" height="56" fill="#2775CA"/>
    <path d="M35.7 32.4333C35.7 28.3501 33.25 26.9501 28.35 26.3668C24.85 25.9001 24.15 24.9668 24.15 23.3333C24.15 21.6998 25.3168 20.6501 27.65 20.6501C29.75 20.6501 30.9168 21.3501 31.5 23.1001C31.6168 23.4501 31.9668 23.6833 32.3168 23.6833H34.1833C34.65 23.6833 35 23.3333 35 22.8668V22.7501C34.5333 20.1833 32.4333 18.2001 29.75 17.9668V15.1668C29.75 14.7001 29.4 14.3501 28.8168 14.2333H27.0668C26.6 14.2333 26.25 14.5833 26.1333 15.1668V17.8501C22.6333 18.3168 20.4168 20.6501 20.4168 23.5668C20.4168 27.4168 22.75 28.9333 27.65 29.5168C30.9168 30.1001 31.9668 30.8001 31.9668 32.6668C31.9668 34.5336 30.3333 35.8168 28.1168 35.8168C25.0833 35.8168 24.0333 34.5333 23.6833 32.7833C23.5668 32.3168 23.2168 32.0833 22.8668 32.0833H20.8833C20.4168 32.0833 20.0668 32.4333 20.0668 32.9V33.0168C20.5333 35.9333 22.4 38.0333 26.25 38.6168V41.4168C26.25 41.8833 26.6 42.2333 27.1833 42.35H28.9333C29.4 42.35 29.75 42 29.8668 41.4168V38.6168C33.3668 38.0333 35.7 35.5833 35.7 32.4333Z"
          fill="white"/>
    <path d="M22.05 44.6832C12.95 41.4167 8.28326 31.2667 11.6668 22.2832C13.4168 17.3832 17.2668 13.65 22.05 11.9C22.5168 11.6667 22.75 11.3167 22.75 10.7332V9.09996C22.75 8.6332 22.5168 8.2832 22.05 8.16672C21.9333 8.16672 21.7 8.16672 21.5833 8.2832C10.5 11.7832 4.43325 23.5667 7.93326 34.65C10.0333 41.1832 15.05 46.2 21.5833 48.3C22.05 48.5332 22.5168 48.3 22.6333 47.8332C22.75 47.7167 22.75 47.6 22.75 47.3667V45.7332C22.75 45.3832 22.4 44.9167 22.05 44.6832ZM34.4168 8.2832C33.95 8.04996 33.4833 8.2832 33.3668 8.74996C33.25 8.86672 33.25 8.9832 33.25 9.21672V10.85C33.25 11.3167 33.6 11.7832 33.95 12.0167C43.0501 15.2832 47.7168 25.4332 44.3333 34.4167C42.5833 39.3167 38.7333 43.05 33.95 44.8C33.4833 45.0332 33.25 45.3832 33.25 45.9667V47.6C33.25 48.0667 33.4833 48.4167 33.95 48.5332C34.0668 48.5332 34.3 48.5332 34.4168 48.4167C45.5001 44.9167 51.5668 33.1332 48.0668 22.05C45.9668 15.4 40.8333 10.3832 34.4168 8.2832Z"
          fill="white"/>
</svg>
