<svg xmlns="http://www.w3.org/2000/svg" width="15" height="15" viewBox="0 0 15 15" fill="none">
    <g style="mix-blend-mode:screen">
        <path d="M13.044 8.82496C12.8991 9.42364 12.677 9.96244 12.3556 10.4855C12.3004 10.5753 12.3193 10.6982 12.3918 10.7722C12.5966 10.977 12.803 11.1818 13.0062 11.3867C13.0173 11.3977 13.0283 11.4103 13.0393 11.4213C13.0629 11.445 13.0992 11.5111 13.1102 11.5474C13.1149 11.5615 13.1181 11.5757 13.1212 11.5899C13.1386 11.6545 13.1212 11.5631 13.1244 11.6025C13.1275 11.6356 13.1275 11.6671 13.126 11.7002C13.1228 11.7474 13.1244 11.7112 13.126 11.7018C13.1212 11.7238 13.1165 11.7443 13.1102 11.7648C13.1055 11.7789 13.1008 11.7931 13.096 11.8057C13.1134 11.7632 13.085 11.8246 13.0819 11.8294C13.074 11.842 13.0661 11.8546 13.0582 11.8672C13.0236 11.9207 13.085 11.8451 13.0377 11.8908C13.0314 11.8971 13.0267 11.9034 13.0204 11.9081C13.0125 11.916 13.0062 11.9223 12.9984 11.9302C12.9605 11.968 12.9227 12.0058 12.8865 12.0421C12.6281 12.3004 12.3682 12.5604 12.1098 12.8188C12.0405 12.8881 11.9727 12.959 11.9018 13.0267C11.8955 13.033 11.8877 13.0393 11.8829 13.044C11.8341 13.0929 11.9003 13.0346 11.8687 13.0566C11.853 13.0677 11.8372 13.0771 11.8215 13.0866C11.8089 13.0945 11.7947 13.1008 11.7821 13.1071C11.8168 13.0897 11.7853 13.1055 11.7774 13.1086C11.7569 13.1149 11.7348 13.1197 11.7144 13.126C11.6671 13.1401 11.7443 13.1291 11.6907 13.1307C11.6624 13.1323 11.6324 13.1323 11.6041 13.1307C11.5411 13.1291 11.6419 13.1449 11.5804 13.126C11.5663 13.1212 11.5521 13.1197 11.5379 13.1149C11.5237 13.1102 11.5095 13.1055 11.4969 13.1008C11.5426 13.1181 11.478 13.0897 11.4733 13.0866C11.4607 13.0787 11.4481 13.0708 11.4355 13.0629C11.3851 13.0299 11.4544 13.0866 11.4119 13.0425C11.1976 12.8251 10.9786 12.6108 10.7628 12.395C10.6903 12.3225 10.5658 12.3036 10.476 12.3587C9.95614 12.6833 9.41733 12.9054 8.81866 13.0503C8.71783 13.074 8.64536 13.1764 8.64536 13.2788C8.64536 13.5702 8.64693 13.8633 8.64536 14.1547C8.64536 14.1752 8.64536 14.1941 8.64378 14.2146C8.64221 14.2745 8.65639 14.1957 8.64221 14.2256C8.63591 14.2398 8.63433 14.2603 8.6296 14.2761C8.62645 14.2887 8.62173 14.3028 8.617 14.3154C8.63276 14.2682 8.61227 14.3233 8.60755 14.3343C8.59967 14.3501 8.59022 14.3627 8.58077 14.3785C8.57446 14.3895 8.54453 14.4226 8.57604 14.3879C8.55398 14.4131 8.53035 14.4368 8.50514 14.4588C8.5398 14.4289 8.48466 14.4714 8.47048 14.4809C8.45315 14.4919 8.43425 14.5013 8.41692 14.5092C8.45473 14.4919 8.41062 14.5092 8.39644 14.5139C8.38383 14.5171 8.36965 14.5202 8.35547 14.525C8.29561 14.5423 8.38226 14.5266 8.34445 14.5281C8.32554 14.5281 8.30821 14.5297 8.28931 14.5313C8.27985 14.5313 8.26882 14.5313 8.25937 14.5313C8.20896 14.5313 8.15854 14.5313 8.10813 14.5313C7.7379 14.5313 7.36924 14.5313 6.999 14.5313C6.90133 14.5313 6.80207 14.5329 6.70439 14.5313C6.69021 14.5313 6.67446 14.5297 6.66028 14.5297C6.60199 14.5281 6.67919 14.5423 6.64925 14.5281C6.63507 14.5218 6.61459 14.5203 6.59884 14.5155C6.58623 14.5124 6.57205 14.5076 6.55945 14.5029C6.60829 14.5203 6.54842 14.4966 6.54054 14.4935C6.52794 14.4872 6.51691 14.4809 6.50589 14.473C6.49958 14.4683 6.45074 14.4289 6.48855 14.462C6.46335 14.4399 6.43972 14.4163 6.41766 14.3911C6.44917 14.4257 6.39875 14.3611 6.39088 14.3469C6.383 14.3328 6.37512 14.317 6.36724 14.3013C6.38615 14.3422 6.3704 14.3091 6.36882 14.2997C6.36409 14.2824 6.35937 14.2666 6.35464 14.2493C6.35149 14.2398 6.34991 14.2288 6.34834 14.2178C6.35149 14.2461 6.35149 14.2461 6.34834 14.2178C6.34046 13.9058 6.34676 13.5939 6.34676 13.2804C6.34676 13.1795 6.27429 13.0771 6.17346 13.0519C5.57479 12.907 5.03598 12.6848 4.51293 12.3634C4.42313 12.3083 4.30024 12.3272 4.22619 12.3997C4.02138 12.6045 3.81658 12.8109 3.61177 13.0141C3.60074 13.0251 3.58813 13.0362 3.5771 13.0472C3.55347 13.0708 3.4873 13.1071 3.45107 13.1181C3.43689 13.1228 3.42271 13.126 3.40853 13.1291C3.34394 13.1464 3.43531 13.1291 3.39593 13.1323C3.36284 13.1354 3.33133 13.1354 3.29825 13.1338C3.25098 13.1307 3.28722 13.1323 3.29667 13.1338C3.27462 13.1291 3.25414 13.1244 3.23365 13.1181C3.21948 13.1134 3.2053 13.1086 3.19269 13.1039C3.23523 13.1212 3.17379 13.0929 3.16906 13.0897C3.15646 13.0819 3.14385 13.074 3.13125 13.0661C3.07768 13.0314 3.15331 13.0929 3.10762 13.0456C3.10132 13.0393 3.09501 13.0346 3.09029 13.0283C3.08241 13.0204 3.07611 13.0141 3.06823 13.0062C3.03042 12.9684 2.99261 12.9306 2.95637 12.8944C2.698 12.636 2.43805 12.376 2.17967 12.1177C2.11035 12.0484 2.03946 11.9806 1.97171 11.9097C1.96541 11.9034 1.95911 11.8955 1.95438 11.8908C1.90554 11.842 1.96383 11.9081 1.94178 11.8766C1.93075 11.8609 1.9213 11.8451 1.91184 11.8294C1.90397 11.8168 1.89766 11.8026 1.89136 11.79C1.90869 11.8246 1.89294 11.7931 1.88979 11.7853C1.88349 11.7648 1.87876 11.7427 1.87246 11.7222C1.85828 11.675 1.86931 11.7522 1.86773 11.6986C1.86616 11.6702 1.86616 11.6403 1.86773 11.612C1.86931 11.5489 1.85355 11.6498 1.87246 11.5883C1.87718 11.5741 1.87876 11.56 1.88349 11.5458C1.88821 11.5316 1.89294 11.5174 1.89766 11.5048C1.88033 11.5505 1.90869 11.4859 1.91184 11.4812C1.91972 11.4686 1.9276 11.456 1.93548 11.4434C1.96856 11.393 1.91184 11.4623 1.95596 11.4197C2.17337 11.2055 2.38763 10.9865 2.60347 10.7707C2.67594 10.6982 2.69485 10.5737 2.63971 10.4839C2.31359 9.96244 2.09145 9.42364 1.9465 8.82496C1.92287 8.72413 1.82047 8.65166 1.71806 8.65166C1.4266 8.65166 1.13357 8.65324 0.842107 8.65166C0.821626 8.65166 0.80272 8.65166 0.782239 8.65009C0.722372 8.64851 0.801145 8.66269 0.771211 8.64851C0.757032 8.64221 0.736551 8.64063 0.720796 8.63591C0.708193 8.63276 0.694013 8.62803 0.68141 8.6233C0.728674 8.63906 0.673532 8.61858 0.662504 8.61385C0.64675 8.60597 0.634146 8.59652 0.618391 8.58707C0.607363 8.58077 0.574278 8.55083 0.608939 8.58234C0.583731 8.56028 0.560099 8.53665 0.538043 8.51145C0.567977 8.54611 0.525439 8.49096 0.515986 8.47679C0.504958 8.45946 0.495505 8.44055 0.487628 8.42322C0.504958 8.46103 0.487628 8.41692 0.482902 8.40274C0.479751 8.39014 0.4766 8.37596 0.471873 8.36178C0.454543 8.30191 0.470298 8.38856 0.468723 8.35075C0.468723 8.33184 0.467147 8.31451 0.465572 8.29561C0.465572 8.28616 0.465572 8.27513 0.465572 8.26567C0.465572 8.21526 0.465572 8.16484 0.465572 8.11443C0.465572 7.7442 0.465572 7.37554 0.465572 7.00531C0.465572 6.90763 0.463996 6.80837 0.465572 6.71069C0.465572 6.69652 0.467147 6.68076 0.467147 6.66658C0.468723 6.60829 0.454543 6.68549 0.468723 6.65555C0.475024 6.64137 0.4766 6.62089 0.481326 6.60514C0.484477 6.59254 0.489204 6.57836 0.49393 6.56575C0.4766 6.61459 0.500232 6.55472 0.503383 6.54685C0.509685 6.53424 0.515986 6.52322 0.523864 6.51219C0.52859 6.50589 0.567977 6.45705 0.534892 6.49486C0.556948 6.46965 0.58058 6.44602 0.605788 6.42396C0.571127 6.45547 0.635721 6.40506 0.649901 6.39718C0.66408 6.3893 0.679834 6.38142 0.695589 6.37355C0.654627 6.39245 0.687712 6.3767 0.697164 6.37512C0.714494 6.3704 0.730249 6.36567 0.747579 6.36094C0.757032 6.35779 0.76806 6.35622 0.779088 6.35464C0.75073 6.35779 0.75073 6.35779 0.779088 6.35464C1.09103 6.34676 1.40297 6.35307 1.71649 6.35307C1.81732 6.35307 1.91972 6.28059 1.94493 6.17977C2.08987 5.58109 2.31201 5.04228 2.6334 4.51923C2.68855 4.42943 2.66964 4.30654 2.59717 4.2325C2.39236 4.02769 2.18597 3.82288 1.98274 3.61807C1.97171 3.60704 1.96068 3.59443 1.94965 3.58341C1.92602 3.55977 1.88979 3.49361 1.87876 3.45737C1.87403 3.44319 1.87088 3.42901 1.86773 3.41483C1.8504 3.35024 1.86773 3.44162 1.86458 3.40223C1.86143 3.36914 1.86143 3.33764 1.863 3.30455C1.86616 3.25729 1.86458 3.29352 1.863 3.30297C1.86773 3.28092 1.87246 3.26044 1.87876 3.23996C1.88349 3.22578 1.88821 3.2116 1.89294 3.19899C1.87561 3.24153 1.90397 3.18009 1.90712 3.17536C1.91499 3.16276 1.92287 3.15016 1.93075 3.13755C1.96541 3.08399 1.90397 3.15961 1.95123 3.11392C1.95753 3.10762 1.96226 3.10132 1.96856 3.09659C1.97644 3.08871 1.98274 3.08241 1.99062 3.07453C2.02843 3.03672 2.06624 2.99891 2.10247 2.96268C2.36085 2.7043 2.6208 2.44435 2.87918 2.18597C2.9485 2.11665 3.01624 2.04576 3.08714 1.97801C3.09344 1.97171 3.10132 1.96541 3.10604 1.96068C3.15488 1.91184 3.08871 1.97014 3.12022 1.94808C3.13598 1.93705 3.15173 1.9276 3.16749 1.91815C3.18009 1.91027 3.19427 1.90397 3.20687 1.89766C3.17221 1.91499 3.20372 1.89924 3.2116 1.89609C3.23208 1.88979 3.25414 1.88506 3.27462 1.87876C3.32188 1.86458 3.24468 1.87561 3.29825 1.87403C3.32661 1.87246 3.35654 1.87246 3.3849 1.87403C3.44792 1.87561 3.34709 1.85985 3.40853 1.87876C3.42271 1.88349 3.43689 1.88506 3.45107 1.88979C3.46525 1.89451 3.47943 1.89924 3.49203 1.90397C3.44634 1.88664 3.51094 1.91499 3.51566 1.91815C3.52827 1.92602 3.54087 1.9339 3.55347 1.94178C3.60389 1.97486 3.53457 1.91815 3.5771 1.96226C3.79137 2.17967 4.01036 2.39393 4.22619 2.60977C4.29867 2.68224 4.42313 2.70115 4.51293 2.64601C5.03441 2.31989 5.57321 2.09775 6.17189 1.95281C6.27272 1.92917 6.34519 1.82677 6.34519 1.72436C6.34519 1.4329 6.34361 1.13987 6.34519 0.848408C6.34519 0.827927 6.34519 0.809022 6.34676 0.788541C6.34834 0.728674 6.33416 0.807446 6.34834 0.777513C6.35464 0.763334 6.35622 0.742853 6.36094 0.727098C6.36409 0.714494 6.36882 0.700315 6.37355 0.687712C6.35779 0.734975 6.37827 0.679834 6.383 0.668806C6.39088 0.653051 6.40033 0.640448 6.40978 0.624693C6.41608 0.613665 6.44602 0.58058 6.41451 0.61524C6.43656 0.590033 6.4602 0.566401 6.4854 0.544345C6.45074 0.574279 6.50588 0.531741 6.52006 0.522288C6.53739 0.51126 6.5563 0.501807 6.57363 0.49393C6.53582 0.51126 6.57993 0.49393 6.59411 0.489204C6.60671 0.486053 6.62089 0.482902 6.63507 0.478175C6.69494 0.460845 6.60829 0.4766 6.6461 0.475024C6.66501 0.475024 6.68234 0.473449 6.70124 0.471874C6.71069 0.471874 6.72172 0.471874 6.73118 0.471874C6.78159 0.471874 6.83201 0.471874 6.88242 0.471874C7.25265 0.471874 7.62131 0.471874 7.99154 0.471874C8.08922 0.471874 8.18848 0.470298 8.28615 0.471874C8.30033 0.471874 8.31609 0.473449 8.33027 0.473449C8.38856 0.475024 8.31136 0.460845 8.3413 0.475024C8.35547 0.481326 8.37596 0.482902 8.39171 0.487628C8.40431 0.490779 8.41849 0.495505 8.4311 0.500232C8.38226 0.482902 8.44212 0.506534 8.45 0.509685C8.46261 0.515986 8.47363 0.522288 8.48466 0.530166C8.49096 0.534892 8.5398 0.574278 8.50199 0.541194C8.5272 0.56325 8.55083 0.586882 8.57289 0.612089C8.54138 0.577429 8.59179 0.642023 8.59967 0.656202C8.60755 0.670382 8.61543 0.686136 8.6233 0.701891C8.6044 0.660929 8.62015 0.694013 8.62173 0.703466C8.62645 0.720796 8.63118 0.736551 8.63591 0.753881C8.63906 0.763334 8.64063 0.774362 8.64221 0.78539C8.63906 0.757032 8.63906 0.757032 8.64221 0.78539C8.65009 1.09733 8.64378 1.40927 8.64378 1.72279C8.64378 1.82362 8.71626 1.92602 8.81709 1.95123C9.41576 2.09617 9.95457 2.31831 10.4776 2.63971C10.5674 2.69485 10.6903 2.67594 10.7644 2.60347C10.9692 2.39866 11.174 2.19228 11.3788 1.98904C11.3898 1.97801 11.4024 1.96698 11.4134 1.95596C11.4371 1.93232 11.5032 1.89609 11.5395 1.88506C11.5537 1.88033 11.5678 1.87718 11.582 1.87403C11.6466 1.8567 11.5552 1.87403 11.5946 1.87088C11.6277 1.86773 11.6592 1.86773 11.6923 1.86931C11.7396 1.87246 11.7033 1.87088 11.6939 1.86931C11.7159 1.87403 11.7364 1.87876 11.7569 1.88506C11.7711 1.88979 11.7853 1.89451 11.7979 1.89924C11.7553 1.88191 11.8168 1.91027 11.8215 1.91342C11.8341 1.9213 11.8467 1.92917 11.8593 1.93705C11.9129 1.97171 11.8372 1.91027 11.8829 1.95753C11.8892 1.96383 11.8955 1.96856 11.9003 1.97486C11.9081 1.98274 11.9144 1.98904 11.9223 1.99692C11.9601 2.03473 11.9979 2.07254 12.0342 2.10878C12.2925 2.36715 12.5525 2.6271 12.8109 2.88548C12.8802 2.9548 12.9511 3.02254 13.0188 3.09344C13.0251 3.09974 13.0314 3.10762 13.0362 3.11234C13.085 3.16118 13.0267 3.09501 13.0488 3.12652C13.0598 3.14228 13.0693 3.15803 13.0787 3.17379C13.0866 3.18639 13.0929 3.20057 13.0992 3.21317C13.0819 3.17851 13.0976 3.21002 13.1008 3.2179C13.1071 3.23838 13.1118 3.26044 13.1181 3.28092C13.1323 3.32818 13.1212 3.25098 13.1228 3.30455C13.1244 3.33291 13.1244 3.36284 13.1228 3.3912C13.1212 3.45422 13.137 3.35339 13.1181 3.41483C13.1134 3.42901 13.1118 3.44319 13.1071 3.45737C13.1023 3.47155 13.0976 3.48573 13.0929 3.49833C13.1102 3.45264 13.0819 3.51724 13.0787 3.52196C13.0708 3.53457 13.0629 3.54717 13.0551 3.55977C13.022 3.61019 13.0787 3.54087 13.0346 3.58341C12.8172 3.79767 12.6029 4.01666 12.3871 4.2325C12.3146 4.30497 12.2957 4.42943 12.3508 4.51923C12.677 5.04071 12.8991 5.57951 13.044 6.17819C13.0677 6.27902 13.1701 6.35149 13.2725 6.35149C13.5639 6.35149 13.857 6.34991 14.1484 6.35149C14.1689 6.35149 14.1878 6.35149 14.2083 6.35307C14.2682 6.35464 14.1894 6.34046 14.2193 6.35464C14.2335 6.36094 14.254 6.36252 14.2698 6.36724C14.2824 6.3704 14.2965 6.37512 14.3091 6.37985C14.2619 6.36409 14.317 6.38457 14.328 6.3893C14.3438 6.39718 14.3564 6.40663 14.3722 6.41608C14.3832 6.42239 14.4163 6.45232 14.3816 6.42081C14.4068 6.44287 14.4304 6.4665 14.4525 6.49171C14.4226 6.45705 14.4651 6.51219 14.4746 6.52637C14.4856 6.5437 14.495 6.5626 14.5029 6.57993C14.4856 6.54212 14.5029 6.58623 14.5076 6.60041C14.5108 6.61302 14.5139 6.6272 14.5187 6.64137C14.536 6.70124 14.5202 6.61459 14.5218 6.6524C14.5218 6.67131 14.5234 6.68864 14.525 6.70754C14.525 6.717 14.525 6.72802 14.525 6.73748C14.525 6.78789 14.525 6.83831 14.525 6.88872C14.525 7.25896 14.525 7.62761 14.525 7.99785C14.525 8.09552 14.5266 8.19478 14.525 8.29246C14.525 8.30664 14.5234 8.32239 14.5234 8.33657C14.5218 8.39486 14.536 8.31766 14.5218 8.3476C14.5155 8.36178 14.5139 8.38226 14.5092 8.39801C14.5061 8.41062 14.5013 8.4248 14.4966 8.4374C14.5139 8.38856 14.4903 8.44843 14.4872 8.4563C14.4809 8.46891 14.4746 8.47994 14.4667 8.49096C14.462 8.49727 14.4226 8.54611 14.4557 8.5083C14.4336 8.5335 14.41 8.55713 14.3848 8.57919C14.4194 8.54768 14.3548 8.5981 14.3406 8.60597C14.3265 8.61385 14.3107 8.62173 14.295 8.6296C14.3359 8.6107 14.3028 8.62645 14.2934 8.62803C14.2761 8.63276 14.2603 8.63748 14.243 8.64221C14.2335 8.64536 14.2225 8.64694 14.2115 8.64851C14.2398 8.64536 14.2398 8.64536 14.2115 8.64851C13.8995 8.65639 13.5876 8.65009 13.2741 8.65009C13.1512 8.65009 13.0314 8.75879 13.0377 8.88641C13.044 9.01402 13.1417 9.12272 13.2741 9.12272C13.5702 9.12272 13.868 9.12745 14.1642 9.12272C14.5139 9.118 14.8164 8.90689 14.944 8.58234C14.9992 8.44055 14.9976 8.29246 14.9976 8.14279C14.9976 7.75207 14.9976 7.36294 14.9976 6.97222C14.9976 6.86982 15.0039 6.76584 14.996 6.66343C14.9708 6.3058 14.7235 5.98598 14.369 5.90248C14.1815 5.85837 13.9751 5.87728 13.7845 5.87728C13.6144 5.87728 13.4458 5.87728 13.2756 5.87728C13.3513 5.93557 13.4269 5.99229 13.5041 6.05058C13.3528 5.42669 13.1039 4.82487 12.7683 4.27661C12.7557 4.37271 12.7431 4.46724 12.7321 4.56334C12.9416 4.35381 13.1543 4.14742 13.3607 3.93473C13.6065 3.68109 13.6727 3.314 13.5277 2.99261C13.4647 2.85239 13.356 2.75156 13.2504 2.64443C12.9779 2.37188 12.7069 2.1009 12.4343 1.82834C12.365 1.75902 12.2973 1.68655 12.2248 1.62038C11.9522 1.36831 11.519 1.31474 11.2055 1.52743C11.0479 1.63299 10.9187 1.78738 10.7864 1.91972C10.6698 2.03631 10.5532 2.15289 10.4367 2.26947C10.5328 2.25687 10.6273 2.24427 10.7234 2.23324C10.1751 1.89766 9.57331 1.64874 8.94942 1.4975C9.00772 1.57312 9.06443 1.64874 9.12272 1.72594C9.12272 1.42975 9.12745 1.13199 9.12272 0.835805C9.118 0.486053 8.90689 0.183564 8.58234 0.0559522C8.44055 0.000811074 8.29246 0.00238651 8.14279 0.00238651C7.75207 0.00238651 7.36293 0.00238651 6.97222 0.00238651C6.86982 0.00238651 6.76584 -0.00391535 6.66343 0.00396195C6.3058 0.0291693 5.98598 0.276517 5.90248 0.630995C5.85837 0.818475 5.87728 1.02486 5.87728 1.21549C5.87728 1.38564 5.87728 1.55421 5.87728 1.72436C5.93557 1.64874 5.99228 1.57312 6.05058 1.49592C5.42669 1.64717 4.82487 1.89609 4.27661 2.23166C4.37271 2.24427 4.46724 2.25687 4.56334 2.2679C4.35381 2.05836 4.14742 1.84567 3.93473 1.63929C3.68109 1.39352 3.314 1.32735 2.99261 1.47229C2.85239 1.53531 2.75156 1.64402 2.64443 1.74957C2.37188 2.02213 2.1009 2.29311 1.82834 2.56566C1.75902 2.63498 1.68655 2.70272 1.62038 2.7752C1.36831 3.04775 1.31474 3.481 1.52743 3.79452C1.63299 3.95206 1.78738 4.08125 1.91972 4.21359C2.03631 4.33017 2.15289 4.44676 2.26947 4.56334C2.25687 4.46724 2.24427 4.37271 2.23324 4.27661C1.89766 4.82487 1.64874 5.42669 1.4975 6.05058C1.57312 5.99229 1.64874 5.93557 1.72594 5.87728C1.42975 5.87728 1.13199 5.87255 0.835805 5.87728C0.486053 5.882 0.183564 6.09311 0.0559521 6.41766C0.000811014 6.55945 0.00238651 6.70754 0.00238651 6.85721C0.00238651 7.24793 0.00238651 7.63707 0.00238651 8.02778C0.00238651 8.13019 -0.00391535 8.23416 0.00396195 8.33657C0.0291693 8.6942 0.276517 9.01402 0.630995 9.09752C0.818475 9.14163 1.02486 9.12272 1.21549 9.12272C1.38564 9.12272 1.55421 9.12272 1.72436 9.12272C1.64874 9.06443 1.57312 9.00772 1.49592 8.94942C1.64717 9.57331 1.89609 10.1751 2.23166 10.7234C2.24427 10.6273 2.25687 10.5328 2.2679 10.4367C2.05836 10.6462 1.84567 10.8526 1.63929 11.0653C1.39352 11.3189 1.32735 11.686 1.47229 12.0074C1.53531 12.1476 1.64402 12.2484 1.74957 12.3556C2.02213 12.6281 2.29311 12.8991 2.56566 13.1717C2.63498 13.241 2.70272 13.3134 2.7752 13.3796C3.04775 13.6317 3.481 13.6853 3.79452 13.4726C3.95206 13.367 4.08125 13.2126 4.21359 13.0803C4.33017 12.9637 4.44676 12.8471 4.56334 12.7305C4.46724 12.7431 4.37271 12.7557 4.27661 12.7668C4.82487 13.1023 5.42669 13.3513 6.05058 13.5025C5.99228 13.4269 5.93557 13.3513 5.87728 13.2741C5.87728 13.5702 5.87255 13.868 5.87728 14.1642C5.882 14.5139 6.09311 14.8164 6.41766 14.944C6.55945 14.9992 6.70754 14.9976 6.85721 14.9976C7.24793 14.9976 7.63706 14.9976 8.02778 14.9976C8.13018 14.9976 8.23416 15.0039 8.33657 14.996C8.6942 14.9708 9.01402 14.7235 9.09752 14.369C9.14163 14.1815 9.12272 13.9751 9.12272 13.7845C9.12272 13.6144 9.12272 13.4458 9.12272 13.2756C9.06443 13.3513 9.00772 13.4269 8.94942 13.5041C9.57331 13.3528 10.1751 13.1039 10.7234 12.7683C10.6273 12.7557 10.5328 12.7431 10.4367 12.7321C10.6462 12.9416 10.8526 13.1543 11.0653 13.3607C11.3189 13.6065 11.686 13.6727 12.0074 13.5277C12.1476 13.4647 12.2484 13.356 12.3556 13.2504C12.6281 12.9779 12.8991 12.7069 13.1717 12.4343C13.241 12.365 13.3134 12.2973 13.3796 12.2248C13.6317 11.9522 13.6853 11.519 13.4726 11.2055C13.367 11.0479 13.2126 10.9187 13.0803 10.7864C12.9637 10.6698 12.8471 10.5532 12.7305 10.4367C12.7431 10.5328 12.7557 10.6273 12.7668 10.7234C13.1023 10.1751 13.3513 9.57331 13.5025 8.94942C13.5309 8.82969 13.4647 8.6879 13.3371 8.65796C13.2126 8.63276 13.0756 8.69735 13.044 8.82496Z"
              fill="#969696"/>
        <path d="M9.93415 7.50044C9.93415 7.5711 9.93115 7.64025 9.92664 7.7109C9.92364 7.74247 9.92064 7.77254 9.91763 7.80411C9.91613 7.81614 9.91012 7.86124 9.91613 7.81614C9.91313 7.83718 9.91012 7.85673 9.90712 7.87777C9.88459 8.01157 9.85305 8.14386 9.811 8.27165C9.79298 8.32877 9.77045 8.3844 9.74942 8.44152C9.72539 8.50165 9.76144 8.41597 9.74492 8.45204C9.73891 8.46708 9.7314 8.48211 9.72389 8.49714C9.70887 8.53022 9.69235 8.56329 9.67583 8.59486C9.61726 8.70911 9.55118 8.81886 9.47608 8.92409C9.45656 8.95115 9.43704 8.97671 9.41751 9.00377C9.44454 8.96769 9.39348 9.03233 9.38597 9.04285C9.34242 9.09547 9.29586 9.14658 9.2478 9.19619C9.20725 9.23829 9.1637 9.27887 9.12014 9.31946C9.09611 9.34201 9.07058 9.36306 9.04655 9.38411C9.03604 9.39313 9.02703 9.40064 9.01652 9.40966C9.006 9.41868 8.99549 9.4262 8.98648 9.43372C9.003 9.42019 9.006 9.41868 8.99249 9.42921C8.89036 9.50738 8.78223 9.57653 8.67109 9.63967C8.61252 9.67124 8.55394 9.70131 8.49387 9.72837C8.48185 9.73438 8.46984 9.73889 8.45782 9.74491C8.39925 9.77197 8.48336 9.73438 8.44731 9.74942C8.41277 9.76295 8.37973 9.77648 8.34518 9.7885C8.21903 9.8336 8.08837 9.87119 7.9562 9.89674C7.92917 9.90276 7.90214 9.90727 7.8751 9.91178C7.85558 9.91478 7.83455 9.91779 7.81353 9.9208C7.82254 9.91929 7.85708 9.91629 7.81202 9.9208C7.74294 9.92831 7.67385 9.93433 7.60477 9.93733C7.46509 9.94335 7.32542 9.93583 7.18575 9.9208C7.11967 9.91328 7.21428 9.92531 7.17373 9.91929C7.15721 9.91629 7.13919 9.91478 7.12267 9.91178C7.09263 9.90727 7.0626 9.90125 7.03256 9.89524C6.96347 9.88171 6.89439 9.86517 6.8253 9.84563C6.76673 9.82909 6.70966 9.81105 6.65259 9.79001C6.62105 9.77798 6.59101 9.76595 6.55947 9.75393C6.51892 9.73739 6.55046 9.74942 6.55797 9.75393C6.53695 9.74491 6.51592 9.73589 6.49489 9.72536C6.37775 9.67124 6.26511 9.6081 6.15848 9.53745C6.10291 9.50137 6.05034 9.46378 5.99778 9.42319C6.03232 9.45025 5.97825 9.40666 5.96624 9.39764C5.9362 9.37208 5.90616 9.34652 5.87763 9.32097C5.78301 9.23528 5.6944 9.14358 5.6133 9.04436C5.60579 9.03383 5.55323 8.96919 5.58176 9.00527C5.56224 8.97971 5.54271 8.95265 5.52319 8.92559C5.48564 8.87147 5.4496 8.81735 5.41506 8.76023C5.38051 8.7031 5.34897 8.64597 5.31894 8.58734C5.30542 8.56028 5.2919 8.53322 5.27989 8.50617C5.27238 8.49113 5.26637 8.4761 5.25886 8.46107C5.23183 8.40093 5.27388 8.50316 5.24985 8.44152C5.20029 8.31675 5.15824 8.18896 5.1282 8.05817C5.11468 7.99804 5.10267 7.93791 5.09216 7.87777C5.08915 7.86124 5.08615 7.8432 5.08465 7.82666C5.07864 7.78757 5.09065 7.88078 5.08314 7.81463C5.07864 7.77705 5.07564 7.73947 5.07263 7.70038C5.06212 7.56358 5.06212 7.42678 5.07413 7.29148C5.07714 7.2569 5.08014 7.22232 5.08465 7.18775C5.08915 7.14265 5.08615 7.17722 5.08465 7.18624C5.08765 7.16971 5.08915 7.15167 5.09216 7.13513C5.10417 7.06447 5.11769 6.99382 5.13421 6.92466C5.16575 6.79688 5.2063 6.67361 5.25586 6.55184C5.27088 6.51576 5.23333 6.59995 5.26036 6.54132C5.26637 6.52929 5.27088 6.51726 5.27688 6.50524C5.2904 6.47517 5.30542 6.4451 5.32044 6.41504C5.35048 6.35641 5.38201 6.29778 5.41656 6.24215C5.4511 6.18653 5.48714 6.13091 5.52469 6.07679C5.54121 6.05273 5.55923 6.02868 5.57726 6.00463C5.59978 5.97456 5.54422 6.04522 5.58477 5.99561C5.59678 5.98057 5.6088 5.96554 5.62231 5.95051C5.70642 5.84978 5.79803 5.75658 5.89565 5.66939C5.91818 5.64984 5.94071 5.6303 5.96323 5.61226C5.97375 5.60474 6.03683 5.55213 6.00228 5.58069C6.05485 5.5401 6.10741 5.50252 6.16298 5.46644C6.27262 5.39428 6.38976 5.32963 6.50841 5.27551C6.52343 5.268 6.53845 5.26198 6.55347 5.25447C6.58951 5.23943 6.5039 5.27401 6.56398 5.24996C6.59251 5.23943 6.61955 5.22741 6.64808 5.21688C6.71416 5.19283 6.78175 5.17178 6.84933 5.15224C6.9079 5.1357 6.96648 5.12217 7.02655 5.11015C7.05959 5.10263 7.09414 5.09662 7.12718 5.09211C7.14069 5.0906 7.15421 5.0876 7.16773 5.08609C7.19476 5.08158 7.19476 5.08158 7.16923 5.08609C7.17974 5.08459 7.19025 5.08309 7.19927 5.08309C7.33443 5.06806 7.4711 5.06204 7.60777 5.06806C7.67686 5.07106 7.74594 5.07707 7.81503 5.08459C7.82404 5.08609 7.86008 5.0906 7.81653 5.08459C7.83305 5.0876 7.85107 5.0891 7.86759 5.09211C7.90514 5.09812 7.94118 5.10413 7.97873 5.11165C8.11089 5.13871 8.24005 5.17629 8.36621 5.2229C8.39174 5.23192 8.41577 5.24244 8.4413 5.25146C8.50288 5.27551 8.40075 5.23192 8.46083 5.26048C8.47284 5.26649 8.48486 5.271 8.49687 5.27702C8.55695 5.30408 8.61552 5.33414 8.67409 5.36571C8.78973 5.42885 8.89937 5.50101 9.003 5.58219C8.96846 5.55513 9.003 5.58219 9.01201 5.58971C9.02402 5.60023 9.03754 5.61076 9.04956 5.62128C9.07208 5.64082 9.09461 5.65886 9.11564 5.67991C9.1667 5.72651 9.21626 5.77312 9.26432 5.82273C9.30487 5.86482 9.34392 5.90992 9.38147 5.95502C9.39198 5.96704 9.40249 5.98057 9.41301 5.9926C9.42052 6.00162 9.44755 6.0362 9.42052 6.00162C9.44304 6.03018 9.46407 6.05875 9.4851 6.08881C9.55869 6.19405 9.62477 6.30379 9.68334 6.41955C9.69836 6.44961 9.71188 6.47968 9.72689 6.50975C9.7329 6.52177 9.73741 6.5338 9.74341 6.54583C9.77045 6.60596 9.7284 6.50373 9.75243 6.56537C9.77646 6.62701 9.80049 6.69015 9.82001 6.75328C9.86056 6.87956 9.8906 7.00735 9.91162 7.13814C9.91463 7.15467 9.91763 7.17271 9.91913 7.18925C9.91313 7.14565 9.91763 7.18173 9.91913 7.19075C9.92214 7.22533 9.92664 7.25991 9.92965 7.29448C9.93115 7.36063 9.93415 7.42978 9.93415 7.50044C9.93415 7.6177 10.0378 7.73195 10.1594 7.72594C10.2811 7.71992 10.3847 7.62672 10.3847 7.50044C10.3817 6.90813 10.2015 6.31582 9.85455 5.83475C9.51063 5.35519 9.03754 4.99289 8.48336 4.78693C7.36597 4.37201 6.04734 4.7283 5.2889 5.64834C4.90292 6.11587 4.67164 6.68413 4.62358 7.28997C4.57852 7.87777 4.7227 8.48061 5.02607 8.98573C5.32344 9.47882 5.771 9.88622 6.29665 10.1237C6.85834 10.3763 7.48011 10.4485 8.08536 10.3267C9.23278 10.0967 10.1669 9.12554 10.3442 7.96497C10.3682 7.81012 10.3817 7.65528 10.3832 7.50044C10.3832 7.38318 10.2796 7.26893 10.1579 7.27494C10.0363 7.28095 9.93415 7.37416 9.93415 7.50044Z"
              fill="#969696"/>
    </g>
</svg>
