<svg xmlns="http://www.w3.org/2000/svg" width="24" height="24" fill="none"><path fill="#969696" fill-rule="evenodd" d="M15 12a3 3 0 1 1-6 0 3 3 0 0 1 6 0m-1 0a2 2 0 1 1-4 0 2 2 0 0 1 4 0" clip-rule="evenodd"/><path fill="#969696" fill-rule="evenodd" d="m18.302 17.384 1.645-2.768a.396.396 0 0 0-.1-.512l-1.734-1.32c.032-.256.057-.512.057-.784s-.025-.528-.057-.784l1.735-1.32a.396.396 0 0 0 .099-.512l-1.645-2.768c-.099-.176-.321-.24-.502-.176l-2.048.8a6 6 0 0 0-1.39-.784l-.312-2.12A.4.4 0 0 0 13.647 4h-3.29a.4.4 0 0 0-.403.336l-.313 2.12c-.501.2-.962.472-1.39.784l-2.047-.8a.406.406 0 0 0-.502.176L4.057 9.384a.387.387 0 0 0 .099.512l1.735 1.32c-.033.256-.058.52-.058.784s.025.528.058.784l-1.735 1.32a.396.396 0 0 0-.099.512l1.645 2.768c.099.176.32.24.502.176l2.047-.8q.64.482 1.39.784l.313 2.12a.4.4 0 0 0 .403.336h3.29a.4.4 0 0 0 .403-.336l.312-2.12c.502-.2.963-.472 1.39-.784l2.048.8c.19.072.403 0 .502-.176m-1.181-4.728-.074.574 1.763 1.341-1.114 1.875-2.09-.817-.443.323c-.376.274-.763.5-1.171.663l-.535.213-.32 2.172h-2.27l-.32-2.172-.535-.213a5 5 0 0 1-1.161-.656l-.446-.333-2.097.82-1.114-1.875 1.763-1.341-.074-.574a5 5 0 0 1-.05-.656c0-.204.02-.422.05-.656l.074-.574-1.763-1.34 1.114-1.875 2.09.817.443-.323c.376-.274.763-.5 1.17-.663l.536-.213.32-2.172h2.27l.32 2.172.535.213a5 5 0 0 1 1.161.656l.445.333 2.098-.82L18.81 9.43l-1.763 1.341.074.574c.03.235.05.444.05.656s-.02.42-.05.656" clip-rule="evenodd"/></svg>