<svg xmlns="http://www.w3.org/2000/svg" width="20" height="20" fill="none"><path stroke="#00FF98" d="M8.994 1A9.06 9.06 0 0 0 1 8.994M11.006 1A9.06 9.06 0 0 1 19 8.994m0 2.012A9.06 9.06 0 0 1 11.006 19m-2.012 0A9.06 9.06 0 0 1 1 11.006"/><path fill="#00FF98" d="M5.688 8.734q0-.479.121-.843a1.7 1.7 0 0 1 .309-.581q.188-.216.457-.35.27-.136.528-.184t.55-.047.63.15.62.378q.283.227.485.424.202.198.337.363a.33.33 0 0 0 .275.13.33.33 0 0 0 .275-.13q.135-.165.337-.363.203-.197.486-.424a2.8 2.8 0 0 1 .62-.377q.338-.15.63-.15.29 0 .55.046.258.048.527.183.27.135.458.35.188.216.309.582.12.364.12.843 0 .99-1.05 2.092L10 14.128l-3.256-3.296Q5.688 9.724 5.688 8.734m-.718 0q0 1.302 1.285 2.653l3.498 3.537q.102.105.247.106.147 0 .247-.106l3.504-3.55q.056-.046.154-.152.099-.106.312-.387.213-.28.382-.575.168-.294.3-.713t.132-.813q0-1.297-.713-2.028t-1.97-.731q-.35 0-.711.126a2.8 2.8 0 0 0-.674.342 7 7 0 0 0-.536.404 5 5 0 0 0-.427.401 5 5 0 0 0-.426-.4 7 7 0 0 0-.537-.405 2.8 2.8 0 0 0-.673-.342 2.1 2.1 0 0 0-.71-.126q-1.26 0-1.971.73-.713.732-.713 2.029"/></svg>