<svg width="25" height="24" viewBox="0 0 25 24" fill="none" xmlns="http://www.w3.org/2000/svg">
<path d="M3.92134 4.14893C3.74097 3.94553 3.75022 3.63685 3.94245 3.44462C4.13468 3.25239 4.44337 3.24314 4.64676 3.42351L13.3534 11.1445L21.0743 19.8511C21.2547 20.0545 21.2454 20.3631 21.0532 20.5554C20.861 20.7476 20.5523 20.7569 20.3489 20.5765L11.6423 12.8555L3.92134 4.14893Z" fill="#6642EE"/>
<path d="M15.1136 0.647022C15.1996 0.38912 15.4715 0.242788 15.7341 0.313149C15.9967 0.383509 16.1591 0.646214 16.1046 0.912545L13.7713 12.3132L10.0917 23.353C10.0057 23.6109 9.73373 23.7572 9.47115 23.6869C9.20856 23.6165 9.0462 23.3538 9.10071 23.0875L11.4339 11.6869L15.1136 0.647022Z" fill="#D37C40"/>
<path d="M23.6703 8.49809C23.9366 8.44359 24.1993 8.60594 24.2697 8.86853C24.3401 9.13112 24.1937 9.40308 23.9358 9.48904L12.896 13.1687L1.49536 15.5019C1.22903 15.5564 0.966327 15.3941 0.895966 15.1315C0.825606 14.8689 0.971937 14.597 1.22984 14.511L12.2697 10.8313L23.6703 8.49809Z" fill="#37AC81"/>
</svg>
