<svg width="24" height="24" viewBox="0 0 24 24" fill="none" xmlns="http://www.w3.org/2000/svg">
    <path d="M22 12C22 17.5228 17.5228 22 12 22C6.47715 22 2 17.5228 2 12C2 6.47715 6.47715 2 12 2C17.5228 2 22 6.47715 22 12ZM3.42577 12C3.42577 16.7354 7.26459 20.5742 12 20.5742C16.7354 20.5742 20.5742 16.7354 20.5742 12C20.5742 7.26459 16.7354 3.42577 12 3.42577C7.26459 3.42577 3.42577 7.26459 3.42577 12Z"
          fill="#969696"/>
    <path d="M18 19V17.6667C18 16.9594 17.6839 16.2811 17.1213 15.781C16.5587 15.281 15.7956 15 15 15H9C8.20435 15 7.44129 15.281 6.87868 15.781C6.31607 16.2811 6 16.9594 6 17.6667V19"
          stroke="#969696" stroke-linecap="round" stroke-linejoin="round"/>
    <path d="M12 13C13.6569 13 15 11.6569 15 10C15 8.34315 13.6569 7 12 7C10.3431 7 9 8.34315 9 10C9 11.6569 10.3431 13 12 13Z"
          stroke="#969696" stroke-linecap="round" stroke-linejoin="round"/>
</svg>
