<svg width="16" height="16" viewBox="0 0 16 16" fill="none" xmlns="http://www.w3.org/2000/svg">
    <path d="M7.99967 11.3333C7.99967 13.1743 9.49206 14.6667 11.333 14.6667C13.174 14.6667 14.6663 13.1743 14.6663 11.3333C14.6663 9.49238 13.174 8 11.333 8C9.49206 8 7.99967 9.49238 7.99967 11.3333ZM7.99967 11.3333C7.99967 10.5828 8.24773 9.89017 8.66634 9.33301V3.33333M7.99967 11.3333C7.99967 11.8836 8.13299 12.4027 8.36909 12.8601C7.80745 13.3345 6.51024 13.6667 4.99967 13.6667C2.97463 13.6667 1.33301 13.0697 1.33301 12.3333V3.33333M8.66634 3.33333C8.66634 4.06971 7.02472 4.66667 4.99967 4.66667C2.97463 4.66667 1.33301 4.06971 1.33301 3.33333M8.66634 3.33333C8.66634 2.59695 7.02472 2 4.99967 2C2.97463 2 1.33301 2.59695 1.33301 3.33333M1.33301 9.33333C1.33301 10.0697 2.97463 10.6667 4.99967 10.6667C6.45901 10.6667 7.71922 10.3567 8.30943 9.90785M8.66634 6.33333C8.66634 7.06971 7.02472 7.66667 4.99967 7.66667C2.97463 7.66667 1.33301 7.06971 1.33301 6.33333"
          stroke="#1F262B" stroke-width="1.5" stroke-linecap="round" stroke-linejoin="round"/>
</svg>
