<svg width="120" height="19" viewBox="0 0 120 19" fill="none" xmlns="http://www.w3.org/2000/svg">
    <path d="M0.460031 18.12V15L14.26 15.024C14.964 15.024 15.5 14.864 15.868 14.544C16.252 14.208 16.444 13.672 16.444 12.936C16.444 12.2 16.252 11.672 15.868 11.352C15.5 11.016 14.964 10.848 14.26 10.848H5.66803C3.89203 10.848 2.50803 10.424 1.51603 9.576C0.540031 8.712 0.0520313 7.448 0.0520313 5.784C0.0520313 4.12 0.540031 2.864 1.51603 2.016C2.50803 1.152 3.89203 0.719999 5.66803 0.719999H19.156V3.84L6.07603 3.816C5.38803 3.816 4.85203 3.976 4.46803 4.296C4.08403 4.6 3.89203 5.096 3.89203 5.784C3.89203 6.472 4.08403 6.976 4.46803 7.296C4.85203 7.6 5.38803 7.752 6.07603 7.752H14.668C16.444 7.752 17.82 8.192 18.796 9.072C19.788 9.936 20.284 11.224 20.284 12.936C20.284 14.632 19.788 15.92 18.796 16.8C17.82 17.68 16.444 18.12 14.668 18.12H0.460031ZM22.6917 18V0.839999H37.0677C38.8437 0.839999 40.2197 1.288 41.1957 2.184C42.1877 3.08 42.6837 4.44 42.6837 6.264C42.6837 8.088 42.1877 9.448 41.1957 10.344C40.2197 11.24 38.8437 11.688 37.0677 11.688H26.5317V18H22.6917ZM36.6117 3.96H26.5317V8.544L36.6117 8.568C37.3157 8.568 37.8517 8.392 38.2197 8.04C38.6037 7.688 38.7957 7.096 38.7957 6.264C38.7957 5.416 38.6037 4.824 38.2197 4.488C37.8517 4.136 37.3157 3.96 36.6117 3.96ZM41.4783 18L49.2063 0.839999H55.1343L62.8623 18H58.6863L57.0543 14.376H47.2863L45.6543 18H41.4783ZM48.6783 11.256H55.6623L52.3263 3.84H52.0143L48.6783 11.256ZM64.7855 18V0.839999H79.1615C80.9375 0.839999 82.3135 1.288 83.2895 2.184C84.2815 3.08 84.7775 4.44 84.7775 6.264C84.7775 7.816 84.4175 9.032 83.6975 9.912C82.9775 10.792 81.9535 11.344 80.6255 11.568L84.5855 18H80.2175L76.5455 11.688H68.6255V18H64.7855ZM78.7055 3.96H68.6255V8.544L78.7055 8.568C79.4095 8.568 79.9455 8.392 80.3135 8.04C80.6975 7.688 80.8895 7.096 80.8895 6.264C80.8895 5.416 80.6975 4.824 80.3135 4.488C79.9455 4.136 79.4095 3.96 78.7055 3.96ZM87.6605 18V0.887999H91.5005V7.872H97.2125L102.852 0.887999H107.628L100.572 9.432L107.628 18H102.852L97.1885 10.992H91.5005V18H87.6605ZM112.023 11.232L110.223 9.912L112.479 6.816L108.831 5.64L109.527 3.528L113.175 4.704V0.887999H115.383V4.704L119.031 3.528L119.703 5.64L116.055 6.816L118.311 9.912L116.511 11.232L114.255 8.136L112.023 11.232Z" fill="white"/>
</svg>
