<svg width="221" height="72" viewBox="0 0 221 72" fill="none" xmlns="http://www.w3.org/2000/svg">
    <path d="M162.138 22.3502V34.5275H173.436C174.022 34.5275 174.315 34.2554 174.315 33.7115V23.1662C174.315 22.622 174.022 22.3502 173.436 22.3502H162.138ZM96.8576 22.3502V35.469H108.03C108.616 35.469 108.909 35.1972 108.909 34.653V23.1662C108.909 22.622 108.616 22.3502 108.03 22.3502H96.8576ZM96.8576 56.0576H89.4504V16.1987L106.21 15.9477C109.558 15.8638 112.089 16.6175 113.805 18.2075C115.521 19.798 116.379 22.0993 116.379 25.112V32.5191C116.379 34.3605 116.002 35.9921 115.249 37.4151C114.495 38.8377 113.355 39.9466 111.828 40.7414C110.301 41.5362 108.428 41.9343 106.21 41.9343H96.8576V56.0576ZM149.772 56.0576H142.428L140.366 46.4538H125.828L123.471 56.0576H116.567L125.354 22.7894C125.857 20.99 126.38 19.5882 126.924 18.5839C127.468 17.5797 128.242 16.8786 129.246 16.4814C130.25 16.0838 131.632 15.9058 133.389 15.9477L140.796 16.1987L149.772 56.0576ZM131.632 23.2917L127.396 40.114H139.025L135.147 22.5385H132.385C132.134 22.5385 131.966 22.591 131.883 22.6957C131.799 22.8 131.715 22.9988 131.632 23.2917ZM196.912 56.0576H189.568V16.1987H196.912V32.7073H204.256C204.549 32.7073 204.737 32.6442 204.821 32.5191C204.905 32.3932 204.988 32.205 205.072 31.954L211.6 16.1987H219.007L212.981 30.4475C212.437 31.7031 211.935 32.7488 211.475 33.586C211.014 34.4228 210.491 35.0612 209.906 35.5003C209.7 35.6545 209.473 35.7918 209.223 35.9127C210.089 36.2665 210.808 36.8406 211.381 37.6347C212.029 38.5342 212.751 39.8211 213.546 41.495L220.451 56.0576H212.604L205.072 39.9254C204.988 39.6329 204.905 39.4341 204.821 39.3294C204.737 39.2247 204.57 39.1725 204.319 39.1725H196.912V56.0576ZM65.159 32.7073H72.7544C76.1015 32.7073 78.6542 33.4919 80.4121 35.0612C82.1696 36.6305 83.0483 38.9004 83.0483 41.8715V47.1443C83.0483 50.1574 82.1798 52.4587 80.4435 54.0487C78.7068 55.6388 76.1643 56.3925 72.8168 56.3086L57.6264 56.0576V49.655H74.7001C75.244 49.655 75.5161 49.3621 75.5161 48.7763V40.2395C75.5161 39.6537 75.244 39.3608 74.7001 39.3608H67.0416C63.6945 39.3608 61.152 38.5867 59.4153 37.0382C57.6786 35.4897 56.8105 33.2096 56.8105 30.1965V25.1747C56.8105 22.204 57.6892 19.9022 59.447 18.2698C61.2045 16.6382 63.7569 15.8638 67.1048 15.9477L81.73 16.1987V22.6012H65.159C64.6148 22.6012 64.343 22.8941 64.343 23.48V31.8285C64.343 32.4143 64.6148 32.7073 65.159 32.7073ZM162.138 56.0576H154.731V16.1987L171.616 15.9477C174.964 15.8638 177.506 16.6175 179.243 18.2075C180.979 19.798 181.848 22.0993 181.848 25.112V31.4521C181.848 33.8789 181.189 35.9086 179.87 37.5402C178.974 38.6502 177.792 39.4791 176.325 40.0279L176.342 40.0218L176.333 40.0331C176.63 40.2225 176.899 40.4379 177.14 40.679C177.893 41.4319 178.541 42.5828 179.086 44.1312L183.291 56.0576H175.884L171.114 41.8091C170.988 41.4743 170.873 41.2339 170.768 41.0869C170.664 40.9406 170.423 40.8673 170.047 40.8673H162.138V56.0576Z" fill="#FEFEFE"/>
    <path d="M10.1204 19.3828L40.7607 50.0227L37.7548 53.0286L7.11459 22.3887L10.1204 19.3828Z" fill="#FF6A00"/>
    <path d="M47.4172 30.603L1.83724 45.6081L0.505341 41.5719L46.0849 26.5664L47.4172 30.603Z" fill="#5A72F1"/>
    <path d="M37.3893 2.02774L14.3686 71.5552L10.3329 70.2267L33.3532 0.699219L37.3893 2.02774Z" fill="#00E61A"/>
</svg>
