<svg width="199" height="64" viewBox="0 0 199 64" fill="none" xmlns="http://www.w3.org/2000/svg">
    <path d="M59.0325 25.7974V29.9751H62.9088C63.1096 29.9751 63.2103 29.8817 63.2103 29.6952V26.0773C63.2103 25.8906 63.1096 25.7974 62.9088 25.7974H59.0325ZM36.6363 25.7974V30.2981H40.4693C40.6703 30.2981 40.7708 30.2049 40.7708 30.0182V26.0773C40.7708 25.8906 40.6703 25.7974 40.4693 25.7974H36.6363ZM36.6363 37.3616H34.095V23.6869L39.8449 23.6008C40.9935 23.572 41.862 23.8306 42.4507 24.3761C43.0392 24.9217 43.3336 25.7113 43.3336 26.7448V29.2861C43.3336 29.9178 43.2043 30.4776 42.946 30.9658C42.6874 31.4538 42.2962 31.8343 41.7722 32.107C41.2483 32.3797 40.6058 32.5162 39.8449 32.5162H36.6363V37.3616ZM54.7901 37.3616H52.2705L51.563 34.0668H46.5755L45.7669 37.3616H43.3981L46.4129 25.948C46.5852 25.3307 46.7648 24.8498 46.9514 24.5052C47.138 24.1607 47.4036 23.9202 47.7481 23.7839C48.0926 23.6475 48.5665 23.5864 49.1695 23.6008L51.7106 23.6869L54.7901 37.3616ZM48.5665 26.1204L47.1134 31.8917H51.1031L49.7725 25.8619H48.825C48.7389 25.8619 48.6813 25.88 48.6526 25.9159C48.6239 25.9517 48.5952 26.0199 48.5665 26.1204ZM70.9628 37.3616H68.4432V23.6869H70.9628V29.3506H73.4824C73.5829 29.3506 73.6474 29.329 73.6761 29.2861C73.7049 29.2429 73.7335 29.1783 73.7623 29.0922L76.0019 23.6869H78.543L76.4757 28.5753C76.289 29.0061 76.1169 29.3649 75.9589 29.6521C75.8009 29.9392 75.6215 30.1582 75.4206 30.3089C75.3501 30.3618 75.272 30.4088 75.1865 30.4503C75.4834 30.5717 75.7302 30.7687 75.9266 31.0411C76.1491 31.3497 76.3968 31.7912 76.6696 32.3655L79.0384 37.3616H76.3465L73.7623 31.827C73.7335 31.7267 73.7049 31.6584 73.6761 31.6225C73.6474 31.5866 73.5901 31.5687 73.5039 31.5687H70.9628V37.3616ZM25.7612 29.3506H28.367C29.5153 29.3506 30.3911 29.6198 30.9942 30.1582C31.5971 30.6966 31.8986 31.4754 31.8986 32.4947V34.3037C31.8986 35.3374 31.6006 36.1269 31.0049 36.6724C30.4091 37.2179 29.5368 37.4765 28.3884 37.4477L23.1769 37.3616V35.165H29.0345C29.2211 35.165 29.3145 35.0645 29.3145 34.8636V31.9348C29.3145 31.7338 29.2211 31.6333 29.0345 31.6333H26.4071C25.2587 31.6333 24.3865 31.3677 23.7906 30.8365C23.1948 30.3052 22.897 29.523 22.897 28.4893V26.7664C22.897 25.7472 23.1984 24.9575 23.8015 24.3975C24.4045 23.8377 25.2801 23.572 26.4287 23.6008L31.4463 23.6869V25.8835H25.7612C25.5745 25.8835 25.4812 25.984 25.4812 26.1849V29.0492C25.4812 29.2501 25.5745 29.3506 25.7612 29.3506ZM59.0325 37.3616H56.4913V23.6869L62.2842 23.6008C63.4328 23.572 64.3049 23.8306 64.9007 24.3761C65.4964 24.9217 65.7945 25.7113 65.7945 26.7448V28.92C65.7945 29.7526 65.5684 30.4489 65.1161 31.0087C64.8085 31.3895 64.4031 31.6739 63.8998 31.8622L63.9055 31.8601L63.9026 31.864C64.0043 31.9289 64.0967 32.0028 64.1794 32.0856C64.4377 32.3439 64.6602 32.7387 64.8469 33.27L66.2897 37.3616H63.7485L62.112 32.4733C62.0688 32.3584 62.0294 32.2759 61.9935 32.2255C61.9575 32.1753 61.8751 32.1501 61.7459 32.1501H59.0325V37.3616Z" fill="#FEFEFE"/>
    <path d="M21.9436 1.2468L11.4847 32.835L10.1001 32.3793L20.5589 0.791016L21.9436 1.2468Z" fill="#00E61A"/>
    <path d="M11.3081 11.0674L21.8201 21.5792L20.7888 22.6105L10.2769 12.0986L11.3081 11.0674Z" fill="#FF6A00"/>
    <path d="M0 21.3504L31.5881 10.8916L32.0439 12.2762L0.455781 22.7352L0 21.3504Z" fill="#5A72F1"/>
</svg>
