<svg width="16" height="16" viewBox="0 0 16 16" fill="none" xmlns="http://www.w3.org/2000/svg">
    <path d="M5.6 2H3.06667C2.6933 2 2.50661 2 2.36401 2.07266C2.23856 2.13658 2.13658 2.23856 2.07266 2.36401C2 2.50661 2 2.6933 2 3.06666V5.59999C2 5.97336 2 6.16004 2.07266 6.30265C2.13658 6.42809 2.23856 6.53008 2.36401 6.594C2.50661 6.66666 2.6933 6.66666 3.06667 6.66666H5.6C5.97337 6.66666 6.16005 6.66666 6.30266 6.594C6.4281 6.53008 6.53009 6.42809 6.594 6.30265C6.66667 6.16004 6.66667 5.97336 6.66667 5.59999V3.06666C6.66667 2.6933 6.66667 2.50661 6.594 2.36401C6.53009 2.23856 6.4281 2.13658 6.30266 2.07266C6.16005 2 5.97337 2 5.6 2Z"
          stroke="#DFE5FA" stroke-width="1.5" stroke-linecap="round" stroke-linejoin="round"/>
    <path d="M12.9333 2H10.4C10.0266 2 9.83995 2 9.69734 2.07266C9.5719 2.13658 9.46991 2.23856 9.406 2.36401C9.33333 2.50661 9.33333 2.6933 9.33333 3.06666V5.59999C9.33333 5.97336 9.33333 6.16004 9.406 6.30265C9.46991 6.42809 9.5719 6.53008 9.69734 6.594C9.83995 6.66666 10.0266 6.66666 10.4 6.66666H12.9333C13.3067 6.66666 13.4934 6.66666 13.636 6.594C13.7614 6.53008 13.8634 6.42809 13.9273 6.30265C14 6.16004 14 5.97336 14 5.59999V3.06666C14 2.6933 14 2.50661 13.9273 2.36401C13.8634 2.23856 13.7614 2.13658 13.636 2.07266C13.4934 2 13.3067 2 12.9333 2Z"
          stroke="#DFE5FA" stroke-width="1.5" stroke-linecap="round" stroke-linejoin="round"/>
    <path d="M12.9333 9.33332H10.4C10.0266 9.33332 9.83995 9.33332 9.69734 9.40598C9.5719 9.4699 9.46991 9.57188 9.406 9.69732C9.33333 9.83993 9.33333 10.0266 9.33333 10.4V12.9333C9.33333 13.3067 9.33333 13.4934 9.406 13.636C9.46991 13.7614 9.5719 13.8634 9.69734 13.9273C9.83995 14 10.0266 14 10.4 14H12.9333C13.3067 14 13.4934 14 13.636 13.9273C13.7614 13.8634 13.8634 13.7614 13.9273 13.636C14 13.4934 14 13.3067 14 12.9333V10.4C14 10.0266 14 9.83993 13.9273 9.69732C13.8634 9.57188 13.7614 9.4699 13.636 9.40598C13.4934 9.33332 13.3067 9.33332 12.9333 9.33332Z"
          stroke="#DFE5FA" stroke-width="1.5" stroke-linecap="round" stroke-linejoin="round"/>
    <path d="M5.6 9.33332H3.06667C2.6933 9.33332 2.50661 9.33332 2.36401 9.40598C2.23856 9.4699 2.13658 9.57188 2.07266 9.69732C2 9.83993 2 10.0266 2 10.4V12.9333C2 13.3067 2 13.4934 2.07266 13.636C2.13658 13.7614 2.23856 13.8634 2.36401 13.9273C2.50661 14 2.6933 14 3.06667 14H5.6C5.97337 14 6.16005 14 6.30266 13.9273C6.4281 13.8634 6.53009 13.7614 6.594 13.636C6.66667 13.4934 6.66667 13.3067 6.66667 12.9333V10.4C6.66667 10.0266 6.66667 9.83993 6.594 9.69732C6.53009 9.57188 6.4281 9.4699 6.30266 9.40598C6.16005 9.33332 5.97337 9.33332 5.6 9.33332Z"
          stroke="#DFE5FA" stroke-width="1.5" stroke-linecap="round" stroke-linejoin="round"/>
</svg>
