<svg width="16" height="16" viewBox="0 0 16 16" fill="none" xmlns="http://www.w3.org/2000/svg">
    <g clip-path="url(#clip0_3_1408)">
        <path d="M8.93 6.588L6.64 6.875L6.558 7.255L7.008 7.338C7.302 7.408 7.36 7.514 7.296 7.807L6.558 11.275C6.364 12.172 6.663 12.594 7.366 12.594C7.911 12.594 8.544 12.342 8.831 11.996L8.919 11.58C8.719 11.756 8.427 11.826 8.233 11.826C7.958 11.826 7.858 11.633 7.929 11.293L8.93 6.588ZM9 4.5C9 4.76522 8.89464 5.01957 8.7071 5.20711C8.51957 5.39464 8.26521 5.5 8 5.5C7.73478 5.5 7.48043 5.39464 7.29289 5.20711C7.10535 5.01957 7 4.76522 7 4.5C7 4.23478 7.10535 3.98043 7.29289 3.79289C7.48043 3.60536 7.73478 3.5 8 3.5C8.26521 3.5 8.51957 3.60536 8.7071 3.79289C8.89464 3.98043 9 4.23478 9 4.5Z"
              fill="#8082C5"/>
        <circle cx="8" cy="8" r="7" stroke="#8082C5" stroke-width="1.6"/>
    </g>
    <defs>
        <clipPath id="clip0_3_1408">
            <rect width="16" height="16" fill="white"/>
        </clipPath>
    </defs>
</svg>
