<svg width="12" height="12" viewBox="0 0 12 12" fill="none" xmlns="http://www.w3.org/2000/svg">
    <path d="M4.33008 7.74899V8.70099H7.76008V7.74899H6.64008V4.85099H4.50508V5.79599H5.66008V7.74899H4.33008Z"
          fill="#969696"/>
    <path d="M5.61808 4.09499C5.73475 4.19299 5.88874 4.24199 6.08008 4.24199C6.27141 4.24199 6.42308 4.19299 6.53508 4.09499C6.65174 3.99699 6.71008 3.86399 6.71008 3.69599C6.71008 3.52799 6.65174 3.39499 6.53508 3.29699C6.42308 3.19899 6.27141 3.14999 6.08008 3.14999C5.88874 3.14999 5.73475 3.19899 5.61808 3.29699C5.50608 3.39499 5.45008 3.52799 5.45008 3.69599C5.45008 3.86399 5.50608 3.99699 5.61808 4.09499Z"
          fill="#969696"/>
    <path fill-rule="evenodd" clip-rule="evenodd"
          d="M1 6C1 3.23858 3.23858 1 6 1C8.76142 1 11 3.23858 11 6C11 8.76142 8.76142 11 6 11C3.23858 11 1 8.76142 1 6ZM6 9.9C3.84609 9.9 2.1 8.15391 2.1 6C2.1 3.84609 3.84609 2.1 6 2.1C8.15391 2.1 9.9 3.84609 9.9 6C9.9 8.15391 8.15391 9.9 6 9.9Z"
          fill="#969696"/>
</svg>
