<svg width="24" height="24" viewBox="0 0 24 24" fill="none" xmlns="http://www.w3.org/2000/svg">
    <path d="M18.833 4.35099L14.2012 4.13865L14.2479 5.58538L16.4352 5.70793L17.0991 5.58701L17.2158 5.80975L16.6699 6.19724L11.6035 11.2637L12.7349 12.395L17.8013 7.32861L18.1888 6.78273L18.4115 6.8994L18.2906 7.56337L18.4113 9.74883L19.8581 9.7955L19.6476 5.16558L18.833 4.35099Z" fill="#969696"/>
    <path fill-rule="evenodd" clip-rule="evenodd" d="M11.125 5H7C5.89543 5 5 5.89543 5 7V17C5 18.1046 5.89543 19 7 19H17C18.1046 19 19 18.1046 19 17V12.875H17.7V17C17.7 17.3866 17.3866 17.7 17 17.7H7C6.6134 17.7 6.3 17.3866 6.3 17V7C6.3 6.6134 6.6134 6.3 7 6.3H11.125V5Z" fill="#969696"/>
</svg>
