<svg width="121" height="14" viewBox="0 0 121 14" fill="none" xmlns="http://www.w3.org/2000/svg">
    <path d="M0.910469 1.856L3.64647 0.199999H8.59047V3.032H3.83847V5.744H8.59047V8.552H3.64647L0.910469 6.92V1.856ZM17.4465 7.4L14.6145 5.744H9.67047V8.552H14.4225V11.288H9.76647V14H14.6145L17.4465 12.368V7.4ZM3.93447 9.632V11.288H8.59047V14H3.71847L0.910469 12.368V9.632H3.93447ZM17.4465 4.664V1.856L14.6145 0.199999H9.67047V3.032H14.4225V4.664H17.4465ZM22.7289 0.199999H30.5049V2.912H25.8489V5.744H30.5049V8.552H25.8489V14H22.7289V0.199999ZM39.3609 6.92V1.856L36.5529 0.199999H31.5849V2.912H36.2409V5.744H31.5849V8.552H36.5529L39.3609 6.92ZM42.9255 1.856L45.6615 0.199999H50.6055V2.912H45.9495V5.744H50.6055V8.48H45.9495V14H42.9255V1.856ZM59.4615 1.856L56.6295 0.199999H51.6855V2.912H56.4375V5.744H51.6855V8.48H56.4375V14H59.4615V1.856ZM64.9727 0.199999H72.6527V3.032H67.9967V5.744H72.6527V8.552H67.9967V14H64.9727V0.199999ZM81.5087 14V8.288L79.2527 7.112L81.5087 6.032V1.856L78.6767 0.199999H73.7327V3.032H78.4847V5.744H73.7327V8.552H78.4847V14H81.5087ZM86.7977 0.199999H89.8217V5.744H91.1657V8.48H89.8217V14H86.7977V0.199999ZM94.4777 7.112L103.334 1.568L100.502 0.199999L92.0537 5.744V8.48L100.502 14L103.334 12.632L94.4777 7.112ZM114.25 6.128L115.162 6.8L116.77 4.88L118.33 6.8L119.266 6.128L117.922 4.064L120.106 3.152L119.722 2.096L117.49 2.72L117.322 0.319999H116.194L116.026 2.696L113.77 2.096L113.41 3.152L115.57 4.064L114.25 6.128Z" fill="white"/>
</svg>
