<svg width="148" height="24" viewBox="0 0 148 24" fill="none" xmlns="http://www.w3.org/2000/svg">
    <g clip-path="url(#clip0_2_2101)">
        <g clip-path="url(#clip1_2_2101)">
            <path d="M30.9559 0L22.8172 15.638L18.1282 11.6532L12.3601 21.8244L6.13429 18.0033L7.28969e-07 24L5.70594 11.7088L10.5225 14.843L16.0845 3.83097L21.5321 7.85496L30.9559 0Z"
                  fill="#3C69FF"/>
        </g>
        <path d="M44.9794 15.2578C44.9794 15.0495 44.9325 14.8568 44.8387 14.6797C44.7502 14.4974 44.5653 14.3333 44.2841 14.1875C44.008 14.0365 43.5913 13.9062 43.0341 13.7969C42.5653 13.6979 42.1408 13.5807 41.7606 13.4453C41.3856 13.3099 41.0653 13.1458 40.7997 12.9531C40.5393 12.7604 40.3387 12.5339 40.1981 12.2734C40.0575 12.013 39.9872 11.7083 39.9872 11.3594C39.9872 11.026 40.0601 10.7109 40.2059 10.4141C40.357 10.1172 40.5679 9.85417 40.8387 9.625C41.1148 9.39583 41.4455 9.21615 41.8309 9.08594C42.2163 8.95573 42.646 8.89062 43.12 8.89062C43.7971 8.89062 44.3752 9.01042 44.8544 9.25C45.3335 9.48958 45.7007 9.8099 45.9559 10.2109C46.2111 10.6068 46.3387 11.0469 46.3387 11.5312H44.8934C44.8934 11.2969 44.8231 11.0703 44.6825 10.8516C44.5471 10.6276 44.3466 10.4427 44.0809 10.2969C43.8205 10.151 43.5002 10.0781 43.12 10.0781C42.719 10.0781 42.3934 10.1406 42.1434 10.2656C41.8986 10.3854 41.719 10.5391 41.6044 10.7266C41.495 10.9141 41.4403 11.112 41.4403 11.3203C41.4403 11.4766 41.4663 11.6172 41.5184 11.7422C41.5757 11.862 41.6747 11.974 41.8153 12.0781C41.9559 12.1771 42.1538 12.2708 42.4091 12.3594C42.6643 12.4479 42.9898 12.5365 43.3856 12.625C44.0783 12.7812 44.6486 12.9688 45.0966 13.1875C45.5445 13.4062 45.8778 13.6745 46.0966 13.9922C46.3153 14.3099 46.4247 14.6953 46.4247 15.1484C46.4247 15.5182 46.3466 15.8568 46.1903 16.1641C46.0393 16.4714 45.8179 16.737 45.5262 16.9609C45.2398 17.1797 44.896 17.3516 44.495 17.4766C44.0992 17.5964 43.6538 17.6562 43.1591 17.6562C42.4143 17.6562 41.7841 17.5234 41.2684 17.2578C40.7528 16.9922 40.3622 16.6484 40.0966 16.2266C39.8309 15.8047 39.6981 15.3594 39.6981 14.8906H41.1512C41.1721 15.2865 41.2867 15.6016 41.495 15.8359C41.7033 16.0651 41.9585 16.2292 42.2606 16.3281C42.5627 16.4219 42.8622 16.4688 43.1591 16.4688C43.5549 16.4688 43.8856 16.4167 44.1512 16.3125C44.4221 16.2083 44.6278 16.0651 44.7684 15.8828C44.9091 15.7005 44.9794 15.4922 44.9794 15.2578ZM50.4637 16L52.6356 9.04688H53.5887L53.4012 10.4297L51.1903 17.5H50.2606L50.4637 16ZM49.0028 9.04688L50.8544 16.0781L50.9872 17.5H50.0106L47.5575 9.04688H49.0028ZM55.6669 16.0234L57.4325 9.04688H58.87L56.4169 17.5H55.4481L55.6669 16.0234ZM53.7997 9.04688L55.9247 15.8828L56.1669 17.5H55.245L52.9716 10.4141L52.7841 9.04688H53.7997ZM65.3387 16.0547V11.7031C65.3387 11.3698 65.271 11.0807 65.1356 10.8359C65.0054 10.5859 64.8075 10.3932 64.5419 10.2578C64.2762 10.1224 63.9481 10.0547 63.5575 10.0547C63.1929 10.0547 62.8726 10.1172 62.5966 10.2422C62.3257 10.3672 62.1122 10.5312 61.9559 10.7344C61.8049 10.9375 61.7294 11.1562 61.7294 11.3906H60.2841C60.2841 11.0885 60.3622 10.7891 60.5184 10.4922C60.6747 10.1953 60.8986 9.92708 61.1903 9.6875C61.4872 9.44271 61.8413 9.25 62.2528 9.10938C62.6695 8.96354 63.133 8.89062 63.6434 8.89062C64.258 8.89062 64.7997 8.99479 65.2684 9.20312C65.7424 9.41146 66.1122 9.72656 66.3778 10.1484C66.6486 10.5651 66.7841 11.0885 66.7841 11.7188V15.6562C66.7841 15.9375 66.8075 16.237 66.8544 16.5547C66.9065 16.8724 66.982 17.1458 67.0809 17.375V17.5H65.5731C65.5002 17.3333 65.4429 17.112 65.4012 16.8359C65.3596 16.5547 65.3387 16.2943 65.3387 16.0547ZM65.5887 12.375L65.6044 13.3906H64.1434C63.732 13.3906 63.3648 13.4245 63.0419 13.4922C62.719 13.5547 62.4481 13.651 62.2294 13.7812C62.0106 13.9115 61.844 14.0755 61.7294 14.2734C61.6148 14.4661 61.5575 14.6927 61.5575 14.9531C61.5575 15.2188 61.6174 15.4609 61.7372 15.6797C61.857 15.8984 62.0367 16.0729 62.2762 16.2031C62.521 16.3281 62.8205 16.3906 63.1747 16.3906C63.6174 16.3906 64.008 16.2969 64.3466 16.1094C64.6851 15.9219 64.9533 15.6927 65.1512 15.4219C65.3544 15.151 65.4637 14.888 65.4794 14.6328L66.0966 15.3281C66.0601 15.5469 65.9611 15.7891 65.7997 16.0547C65.6382 16.3203 65.4221 16.5755 65.1512 16.8203C64.8856 17.0599 64.5679 17.2604 64.1981 17.4219C63.8335 17.5781 63.4221 17.6562 62.9637 17.6562C62.3908 17.6562 61.8882 17.5443 61.4559 17.3203C61.0288 17.0964 60.6955 16.7969 60.4559 16.4219C60.2216 16.0417 60.1044 15.6172 60.1044 15.1484C60.1044 14.6953 60.1929 14.2969 60.37 13.9531C60.5471 13.6042 60.8023 13.3151 61.1356 13.0859C61.469 12.8516 61.87 12.6745 62.3387 12.5547C62.8075 12.4349 63.3309 12.375 63.9091 12.375H65.5887ZM71.3075 16.625L73.6591 9.04688H75.2059L71.8153 18.8047C71.7372 19.013 71.633 19.237 71.5028 19.4766C71.3778 19.7214 71.2163 19.9531 71.0184 20.1719C70.8205 20.3906 70.5809 20.5677 70.2997 20.7031C70.0236 20.8438 69.6929 20.9141 69.3075 20.9141C69.1929 20.9141 69.0471 20.8984 68.87 20.8672C68.6929 20.8359 68.5679 20.8099 68.495 20.7891L68.4872 19.6172C68.5288 19.6224 68.594 19.6276 68.6825 19.6328C68.7762 19.6432 68.8413 19.6484 68.8778 19.6484C69.2059 19.6484 69.4846 19.6042 69.7137 19.5156C69.9429 19.4323 70.1356 19.2891 70.2919 19.0859C70.4533 18.888 70.5913 18.6146 70.7059 18.2656L71.3075 16.625ZM69.5809 9.04688L71.7762 15.6094L72.1512 17.1328L71.1122 17.6641L68.0028 9.04688H69.5809ZM75.6903 16.7344C75.6903 16.4896 75.7658 16.2839 75.9169 16.1172C76.0731 15.9453 76.2971 15.8594 76.5887 15.8594C76.8804 15.8594 77.1018 15.9453 77.2528 16.1172C77.4091 16.2839 77.4872 16.4896 77.4872 16.7344C77.4872 16.974 77.4091 17.1771 77.2528 17.3438C77.1018 17.5104 76.8804 17.5938 76.5887 17.5938C76.2971 17.5938 76.0731 17.5104 75.9169 17.3438C75.7658 17.1771 75.6903 16.974 75.6903 16.7344ZM83.3934 17.6562C82.8049 17.6562 82.271 17.5573 81.7919 17.3594C81.3179 17.1562 80.9091 16.8724 80.5653 16.5078C80.2268 16.1432 79.9663 15.7109 79.7841 15.2109C79.6018 14.7109 79.5106 14.1641 79.5106 13.5703V13.2422C79.5106 12.5547 79.6122 11.9427 79.8153 11.4062C80.0184 10.8646 80.2945 10.4062 80.6434 10.0312C80.9924 9.65625 81.3882 9.3724 81.8309 9.17969C82.2736 8.98698 82.732 8.89062 83.2059 8.89062C83.8101 8.89062 84.3309 8.99479 84.7684 9.20312C85.2111 9.41146 85.5731 9.70312 85.8544 10.0781C86.1356 10.4479 86.344 10.8854 86.4794 11.3906C86.6148 11.8906 86.6825 12.4375 86.6825 13.0312V13.6797H80.37V12.5H85.2372V12.3906C85.2163 12.0156 85.1382 11.651 85.0028 11.2969C84.8726 10.9427 84.6643 10.651 84.3778 10.4219C84.0913 10.1927 83.7007 10.0781 83.2059 10.0781C82.8778 10.0781 82.5757 10.1484 82.2997 10.2891C82.0236 10.4245 81.7867 10.6276 81.5887 10.8984C81.3908 11.1693 81.2372 11.5 81.1278 11.8906C81.0184 12.2812 80.9637 12.7318 80.9637 13.2422V13.5703C80.9637 13.9714 81.0184 14.349 81.1278 14.7031C81.2424 15.0521 81.4065 15.3594 81.62 15.625C81.8387 15.8906 82.1018 16.099 82.4091 16.25C82.7216 16.401 83.0757 16.4766 83.4716 16.4766C83.982 16.4766 84.4143 16.3724 84.7684 16.1641C85.1226 15.9557 85.4325 15.6771 85.6981 15.3281L86.5731 16.0234C86.3908 16.2995 86.1591 16.5625 85.8778 16.8125C85.5966 17.0625 85.2502 17.2656 84.8387 17.4219C84.4325 17.5781 83.9507 17.6562 83.3934 17.6562ZM89.3466 9.04688L91.1981 12.125L93.0731 9.04688H94.7684L92.0028 13.2188L94.8544 17.5H93.1825L91.2294 14.3281L89.2762 17.5H87.5966L90.4403 13.2188L87.6825 9.04688H89.3466ZM99.5341 16.4688C99.8778 16.4688 100.196 16.3984 100.487 16.2578C100.779 16.1172 101.018 15.9245 101.206 15.6797C101.393 15.4297 101.5 15.1458 101.526 14.8281H102.901C102.875 15.3281 102.706 15.7943 102.393 16.2266C102.086 16.6536 101.682 17 101.182 17.2656C100.682 17.526 100.133 17.6562 99.5341 17.6562C98.8986 17.6562 98.344 17.5443 97.87 17.3203C97.4012 17.0964 97.0106 16.7891 96.6981 16.3984C96.3908 16.0078 96.1591 15.5599 96.0028 15.0547C95.8518 14.5443 95.7762 14.0052 95.7762 13.4375V13.1094C95.7762 12.5417 95.8518 12.0052 96.0028 11.5C96.1591 10.9896 96.3908 10.5391 96.6981 10.1484C97.0106 9.75781 97.4012 9.45052 97.87 9.22656C98.344 9.0026 98.8986 8.89062 99.5341 8.89062C100.196 8.89062 100.774 9.02604 101.268 9.29688C101.763 9.5625 102.151 9.92708 102.432 10.3906C102.719 10.849 102.875 11.3698 102.901 11.9531H101.526C101.5 11.6042 101.401 11.2891 101.229 11.0078C101.063 10.7266 100.834 10.5026 100.542 10.3359C100.255 10.1641 99.9195 10.0781 99.5341 10.0781C99.0913 10.0781 98.719 10.1667 98.4169 10.3438C98.12 10.5156 97.883 10.75 97.7059 11.0469C97.5341 11.3385 97.4091 11.6641 97.3309 12.0234C97.258 12.3776 97.2216 12.7396 97.2216 13.1094V13.4375C97.2216 13.8073 97.258 14.1719 97.3309 14.5312C97.4038 14.8906 97.5262 15.2161 97.6981 15.5078C97.8752 15.7995 98.1122 16.0339 98.4091 16.2109C98.7111 16.3828 99.0861 16.4688 99.5341 16.4688ZM105.972 5.5V17.5H104.526V5.5H105.972ZM105.628 12.9531L105.026 12.9297C105.031 12.3516 105.117 11.8177 105.284 11.3281C105.451 10.8333 105.685 10.4036 105.987 10.0391C106.289 9.67448 106.649 9.39323 107.065 9.19531C107.487 8.99219 107.953 8.89062 108.464 8.89062C108.88 8.89062 109.255 8.94792 109.589 9.0625C109.922 9.17188 110.206 9.34896 110.44 9.59375C110.68 9.83854 110.862 10.1562 110.987 10.5469C111.112 10.9323 111.175 11.4036 111.175 11.9609V17.5H109.722V11.9453C109.722 11.5026 109.656 11.1484 109.526 10.8828C109.396 10.612 109.206 10.4167 108.956 10.2969C108.706 10.1719 108.399 10.1094 108.034 10.1094C107.675 10.1094 107.347 10.1849 107.05 10.3359C106.758 10.487 106.505 10.6953 106.292 10.9609C106.084 11.2266 105.919 11.5312 105.8 11.875C105.685 12.2135 105.628 12.5729 105.628 12.9531ZM118.323 16.0547V11.7031C118.323 11.3698 118.255 11.0807 118.12 10.8359C117.99 10.5859 117.792 10.3932 117.526 10.2578C117.261 10.1224 116.932 10.0547 116.542 10.0547C116.177 10.0547 115.857 10.1172 115.581 10.2422C115.31 10.3672 115.097 10.5312 114.94 10.7344C114.789 10.9375 114.714 11.1562 114.714 11.3906H113.268C113.268 11.0885 113.347 10.7891 113.503 10.4922C113.659 10.1953 113.883 9.92708 114.175 9.6875C114.472 9.44271 114.826 9.25 115.237 9.10938C115.654 8.96354 116.117 8.89062 116.628 8.89062C117.242 8.89062 117.784 8.99479 118.253 9.20312C118.727 9.41146 119.097 9.72656 119.362 10.1484C119.633 10.5651 119.768 11.0885 119.768 11.7188V15.6562C119.768 15.9375 119.792 16.237 119.839 16.5547C119.891 16.8724 119.966 17.1458 120.065 17.375V17.5H118.557C118.485 17.3333 118.427 17.112 118.386 16.8359C118.344 16.5547 118.323 16.2943 118.323 16.0547ZM118.573 12.375L118.589 13.3906H117.128C116.716 13.3906 116.349 13.4245 116.026 13.4922C115.703 13.5547 115.432 13.651 115.214 13.7812C114.995 13.9115 114.828 14.0755 114.714 14.2734C114.599 14.4661 114.542 14.6927 114.542 14.9531C114.542 15.2188 114.602 15.4609 114.722 15.6797C114.841 15.8984 115.021 16.0729 115.261 16.2031C115.505 16.3281 115.805 16.3906 116.159 16.3906C116.602 16.3906 116.992 16.2969 117.331 16.1094C117.669 15.9219 117.938 15.6927 118.136 15.4219C118.339 15.151 118.448 14.888 118.464 14.6328L119.081 15.3281C119.044 15.5469 118.946 15.7891 118.784 16.0547C118.623 16.3203 118.406 16.5755 118.136 16.8203C117.87 17.0599 117.552 17.2604 117.182 17.4219C116.818 17.5781 116.406 17.6562 115.948 17.6562C115.375 17.6562 114.873 17.5443 114.44 17.3203C114.013 17.0964 113.68 16.7969 113.44 16.4219C113.206 16.0417 113.089 15.6172 113.089 15.1484C113.089 14.6953 113.177 14.2969 113.354 13.9531C113.531 13.6042 113.787 13.3151 114.12 13.0859C114.453 12.8516 114.854 12.6745 115.323 12.5547C115.792 12.4349 116.315 12.375 116.893 12.375H118.573ZM123.487 10.8516V17.5H122.042V9.04688H123.409L123.487 10.8516ZM123.143 12.9531L122.542 12.9297C122.547 12.3516 122.633 11.8177 122.8 11.3281C122.966 10.8333 123.201 10.4036 123.503 10.0391C123.805 9.67448 124.164 9.39323 124.581 9.19531C125.003 8.99219 125.469 8.89062 125.979 8.89062C126.396 8.89062 126.771 8.94792 127.104 9.0625C127.438 9.17188 127.722 9.34896 127.956 9.59375C128.196 9.83854 128.378 10.1562 128.503 10.5469C128.628 10.9323 128.69 11.4036 128.69 11.9609V17.5H127.237V11.9453C127.237 11.5026 127.172 11.1484 127.042 10.8828C126.912 10.612 126.722 10.4167 126.472 10.2969C126.222 10.1719 125.914 10.1094 125.55 10.1094C125.19 10.1094 124.862 10.1849 124.565 10.3359C124.274 10.487 124.021 10.6953 123.807 10.9609C123.599 11.2266 123.435 11.5312 123.315 11.875C123.201 12.2135 123.143 12.5729 123.143 12.9531ZM136.362 9.04688H137.675V17.3203C137.675 18.0651 137.524 18.7005 137.222 19.2266C136.919 19.7526 136.498 20.151 135.956 20.4219C135.419 20.6979 134.8 20.8359 134.097 20.8359C133.805 20.8359 133.461 20.7891 133.065 20.6953C132.675 20.6068 132.289 20.4531 131.909 20.2344C131.534 20.0208 131.219 19.7318 130.964 19.3672L131.722 18.5078C132.076 18.9349 132.446 19.2318 132.831 19.3984C133.222 19.5651 133.607 19.6484 133.987 19.6484C134.446 19.6484 134.841 19.5625 135.175 19.3906C135.508 19.2188 135.766 18.9635 135.948 18.625C136.136 18.2917 136.229 17.8802 136.229 17.3906V10.9062L136.362 9.04688ZM130.542 13.3672V13.2031C130.542 12.5573 130.617 11.9714 130.768 11.4453C130.925 10.9141 131.146 10.4583 131.432 10.0781C131.724 9.69792 132.076 9.40625 132.487 9.20312C132.899 8.99479 133.362 8.89062 133.878 8.89062C134.409 8.89062 134.873 8.98438 135.268 9.17188C135.669 9.35417 136.008 9.6224 136.284 9.97656C136.565 10.3255 136.787 10.7474 136.948 11.2422C137.11 11.737 137.222 12.2969 137.284 12.9219V13.6406C137.227 14.2604 137.115 14.8177 136.948 15.3125C136.787 15.8073 136.565 16.2292 136.284 16.5781C136.008 16.9271 135.669 17.1953 135.268 17.3828C134.867 17.5651 134.399 17.6562 133.862 17.6562C133.357 17.6562 132.899 17.5495 132.487 17.3359C132.081 17.1224 131.732 16.8229 131.44 16.4375C131.149 16.0521 130.925 15.599 130.768 15.0781C130.617 14.5521 130.542 13.9818 130.542 13.3672ZM131.987 13.2031V13.3672C131.987 13.7891 132.029 14.1849 132.112 14.5547C132.201 14.9245 132.334 15.25 132.511 15.5312C132.693 15.8125 132.925 16.0339 133.206 16.1953C133.487 16.3516 133.823 16.4297 134.214 16.4297C134.693 16.4297 135.089 16.3281 135.401 16.125C135.714 15.9219 135.961 15.6536 136.143 15.3203C136.331 14.987 136.477 14.625 136.581 14.2344V12.3516C136.524 12.0651 136.435 11.7891 136.315 11.5234C136.201 11.2526 136.05 11.013 135.862 10.8047C135.68 10.5911 135.453 10.4219 135.182 10.2969C134.912 10.1719 134.594 10.1094 134.229 10.1094C133.834 10.1094 133.492 10.1927 133.206 10.3594C132.925 10.5208 132.693 10.7448 132.511 11.0312C132.334 11.3125 132.201 11.6406 132.112 12.0156C132.029 12.3854 131.987 12.7812 131.987 13.2031ZM143.378 17.6562C142.789 17.6562 142.255 17.5573 141.776 17.3594C141.302 17.1562 140.893 16.8724 140.55 16.5078C140.211 16.1432 139.951 15.7109 139.768 15.2109C139.586 14.7109 139.495 14.1641 139.495 13.5703V13.2422C139.495 12.5547 139.597 11.9427 139.8 11.4062C140.003 10.8646 140.279 10.4062 140.628 10.0312C140.977 9.65625 141.373 9.3724 141.815 9.17969C142.258 8.98698 142.716 8.89062 143.19 8.89062C143.794 8.89062 144.315 8.99479 144.753 9.20312C145.196 9.41146 145.557 9.70312 145.839 10.0781C146.12 10.4479 146.328 10.8854 146.464 11.3906C146.599 11.8906 146.667 12.4375 146.667 13.0312V13.6797H140.354V12.5H145.222V12.3906C145.201 12.0156 145.123 11.651 144.987 11.2969C144.857 10.9427 144.649 10.651 144.362 10.4219C144.076 10.1927 143.685 10.0781 143.19 10.0781C142.862 10.0781 142.56 10.1484 142.284 10.2891C142.008 10.4245 141.771 10.6276 141.573 10.8984C141.375 11.1693 141.222 11.5 141.112 11.8906C141.003 12.2812 140.948 12.7318 140.948 13.2422V13.5703C140.948 13.9714 141.003 14.349 141.112 14.7031C141.227 15.0521 141.391 15.3594 141.604 15.625C141.823 15.8906 142.086 16.099 142.393 16.25C142.706 16.401 143.06 16.4766 143.456 16.4766C143.966 16.4766 144.399 16.3724 144.753 16.1641C145.107 15.9557 145.417 15.6771 145.682 15.3281L146.557 16.0234C146.375 16.2995 146.143 16.5625 145.862 16.8125C145.581 17.0625 145.235 17.2656 144.823 17.4219C144.417 17.5781 143.935 17.6562 143.378 17.6562Z"
              fill="white"/>
    </g>
    <defs>
        <clipPath id="clip0_2_2101">
            <rect width="147.956" height="24" fill="white"/>
        </clipPath>
        <clipPath id="clip1_2_2101">
            <rect width="30.9559" height="24" fill="white" transform="matrix(-1 0 0 1 30.9559 0)"/>
        </clipPath>
    </defs>
</svg>
