<svg viewBox="0 0 100 100" class="css-1fpyiur">
    <g fill="none" fill-rule="nonzero">
        <path fill="#D8D8D8" fill-opacity="0" d="M0 0h100v100H0z"></path>
        <circle cx="50" cy="50" r="45" fill="#363C4A"></circle>
        <path fill="#555D6D" stroke="#292F3C"
              d="M25.5 73.148V40.213l25.062-8.655L75.5 40.211v32.933l-24.859-7.69z"></path>
        <path fill="#4C5363" d="M51.5 31.5v35h-2v-35z"></path>
        <path fill="#292F3C" d="M76.5 74.5v-35l-25.861 7.999L24.5 39.5v35l26.063 9z"></path>
        <path fill="#697284" d="M26.5 73.074v-30.87l24.143 7.388 23.857-7.38v30.865l-23.938 8.306z"></path>
        <path fill="#292F3C" d="M51.5 47.5v35h-2v-35z"></path>
        <path fill="#292F3C"
              d="M50.42 29.611l7.856-12.159 26.76 9.268-8.4 12.884 8.003 11.908-25.974 9.2-8.121-13.084-8.119 13.083-25.974-9.199 7.876-11.722-8.52-13.07 26.76-9.268 7.853 12.159zm.001 3.048l-22.709 7.825 22.834 6.991 22.7-6.951-22.825-7.865z"></path>
        <path fill="#697284"
              d="M25.351 41.853l-5.802 8.635 22.025 7.8 5.981-9.636zM75.738 41.853l-22.204 6.799 5.981 9.636 22.026-7.801zM41.738 19.855l-22.859 7.916 7.262 11.139 21.21-7.308-.044-.016 1.653-.551zM59.103 19.855l-7.22 11.175 1.672.55-.063.021 21.209 7.309 7.262-11.139z"></path>
        <path fill="#292F3C"
              d="M59.157 6.709c.004.33.002.658-.006.982l-.012.5 1 .024.012-.5c.008-.336.01-.675.006-1.018l-.006-.5-1 .012.006.5zm-.253 3.912c-.048.325-.103.646-.166.963l-.096.49.982.193.096-.49c.065-.333.123-.669.173-1.009l.074-.494-.99-.147-.073.494zm.462 2.688l-.957-.29-.16.53a5.616 5.616 0 0 1-.332.8l-.22.449.897.441.22-.449c.141-.286.254-.548.336-.78l.072-.222.144-.479zm-2.981 3.535c-.188.264-.383.528-.584.79l-.304.397.793.609.304-.397c.209-.272.411-.546.606-.82l.29-.407-.816-.58-.29.408zm-1.832 2.303c-.22.248-.442.488-.665.72l-.347.36.72.693.347-.36c.232-.24.464-.49.693-.749l.332-.373-.748-.665-.332.374zM51.7 21.805c-.271.197-.536.371-.795.523l-.432.252.505.863.432-.252c.288-.169.58-.361.876-.576l.405-.293-.586-.81-.405.293zm-2.497 1.196c-.298.05-.575.052-.831.007l-.493-.087-.173.985.493.087c.372.065.763.062 1.169-.006l.493-.083-.165-.986-.493.083zm-2.67-1.706a6.848 6.848 0 0 1-.253-.637l-.085-.262-.148-.478-.955.294.206.664.036.106c.09.262.187.505.291.732l.21.454.908-.418-.21-.455zM45.94 18.6c.025-.302.095-.563.205-.787l.222-.448-.897-.443-.221.448a3.16 3.16 0 0 0-.305 1.148l-.041.498.996.082.041-.498zm2.395-1.905c.29-.015.6-.006.925.026l.497.049.099-.995-.498-.05a7.203 7.203 0 0 0-1.075-.029l-.499.026.051.999.5-.026zm2.767.418c.301.095.601.206.897.33l.461.193.386-.923-.46-.193c-.324-.135-.652-.256-.98-.36l-.477-.152-.303.953.476.152zm3.371 1.808c.248.209.47.425.665.645l.33.375.75-.66-.33-.376a7.302 7.302 0 0 0-.77-.748l-.382-.323-.645.764.382.323zm1.526 2.267c.015.084.024.168.03.25l.003.125c0 .154.01.33.029.53l.047.499.996-.095-.048-.498a5.645 5.645 0 0 1-.021-.308l-.003-.128a3.16 3.16 0 0 0-.048-.548l-.087-.492-.985.173.087.492zm1.445 3.24l-.983.18.27 1.474.089.492.984-.177-.36-1.97zm-.458 3.119l.15.99.135.98.99-.134-.135-.989-.152-1-.988.153zm.47 3.92l.02.499c.014.336.02.662.018.976l-.004.5 1 .007.004-.5c.001-.22-.001-.445-.007-.675l-.032-.848-.999.04zm-.102 3.42c-.05.329-.113.638-.19.928l-.127.483.967.255.128-.483c.086-.326.156-.67.21-1.033l.075-.494-.989-.15-.074.495zM55.8 38.17c-.157.128-.325.24-.506.337l-.194.097-.455.208.418.909.462-.212c.33-.152.633-.34.908-.565l.387-.317-.634-.774-.386.317zm-2.512 1.529a7.87 7.87 0 0 0-.794.714l-.348.36.719.695.347-.36a6.87 6.87 0 0 1 .693-.623l.393-.309-.617-.786-.393.309zm-2.327 2.968l-.177.467-.124.347-.159.474.949.317.158-.474a8.1 8.1 0 0 1 .11-.309l.178-.467-.935-.355z"></path>
        <path fill="#697284"
              d="M60.276 2.947a.5.5 0 0 1-.223-.67l1-2a.5.5 0 0 1 .894.447l-1 2a.5.5 0 0 1-.67.223h-.001zm-3-2.894a.5.5 0 0 0-.223.67l1 2a.5.5 0 0 0 .894-.447l-1-2a.5.5 0 0 0-.67-.223h-.001z"></path>
        <path fill="#292F3C"
              d="M64.042 2.487c.695 0 1.11.382 1.07 1.002l-.011.127c-.017.141-.05.267-.133.485l-.362.89a6.666 6.666 0 0 0-.076.199c-.106.294-.158.523-.158.702 0 .176.038.391.116.675l.112.371.185.584c.133.434.167.62.167.879 0 .62-.4 1.017-1.08 1.017-1.611 0-4.207-2.054-4.363-3.639l-.004-.131c-.06 1.492-2.287 3.477-3.935 3.742l-.163.021-.183.006-.148-.008c-.616-.064-.93-.49-.904-1.078.01-.24.044-.414.163-.803l.248-.783c.112-.374.167-.642.167-.853 0-.18-.052-.408-.158-.702l-.076-.2-.324-.79c-.139-.352-.168-.484-.183-.711-.04-.62.375-1.002 1.07-1.002 1.86 0 4.427 1.514 4.427 3.1l-.003-.019c.07-1.562 2.698-3.081 4.539-3.081z"></path>
        <path fill="#697284"
              d="M64.108 3.477l-.003.023-.02.09a3.15 3.15 0 0 1-.099.275l-.312.762-.085.224c-.141.393-.217.725-.217 1.041 0 .332.071.682.21 1.142l.235.744c.082.266.118.413.13.529l.007.116.004.009-.013-.006-.04-.007-.156-.007c-1.178-.117-3.247-1.818-3.247-2.78 0-.888 2.154-2.145 3.54-2.145l.05-.004.016-.006zm-9.095.001l.015.005.207.009c1.373.084 3.271 1.235 3.271 2.095 0 .977-1.982 2.717-3.169 2.827l-.112.005-.062-.006.005-.016.006-.074c.01-.122.043-.259.126-.529l.21-.661.094-.32c.097-.356.146-.645.146-.921 0-.316-.076-.648-.217-1.04a7.6 7.6 0 0 0-.086-.226l-.272-.662c-.1-.25-.142-.37-.159-.464l-.003-.022z"></path>
        <path fill="#292F3C" d="M59.5 2A1.5 1.5 0 0 0 58 3.5v5a1.5 1.5 0 0 0 3 0v-5A1.5 1.5 0 0 0 59.5 2z"></path>
        <path fill="#697284" d="M59.5 3a.5.5 0 0 1 .5.5v5a.5.5 0 1 1-1 0v-5a.5.5 0 0 1 .5-.5z"></path>
    </g>
</svg>
