<svg width="24" height="24" viewBox="0 0 24 24" fill="none" xmlns="http://www.w3.org/2000/svg">
<path d="M5.53671 8.86301V15.1367C5.53671 15.5359 5.74944 15.9058 6.09634 16.1054L11.5289 19.2406C11.8758 19.4402 12.3013 19.4402 12.6482 19.2406L18.0808 16.1054C18.4277 15.9058 18.6404 15.5359 18.6404 15.1367V8.86301C18.6404 8.46374 18.4277 8.09393 18.0808 7.8943L12.6482 4.7591C12.3013 4.55947 11.8758 4.55947 11.5289 4.7591L6.09634 7.8943C5.75271 8.09393 5.53671 8.46374 5.53671 8.86301Z" fill="#213147"/>
<path d="M13.2765 13.2163L12.5009 15.3402C12.478 15.3992 12.478 15.4646 12.5009 15.5235L13.8329 19.1791L15.3743 18.2889L13.5253 13.2163C13.4827 13.0985 13.3191 13.0985 13.2765 13.2163Z" fill="#12AAFF"/>
<path d="M14.8278 9.64207C14.7852 9.52426 14.6216 9.52426 14.5791 9.64207L13.8034 11.766C13.7805 11.8249 13.7805 11.8904 13.8034 11.9493L15.9863 17.935L17.5277 17.0448L14.8278 9.64207Z" fill="#12AAFF"/>
<path d="M12.0886 4.99161C12.1278 4.99161 12.1638 5.00143 12.1998 5.02107L18.0775 8.41481C18.1462 8.45408 18.1888 8.52608 18.1888 8.60462V15.3921C18.1888 15.4706 18.1462 15.5426 18.0775 15.5819L12.1998 18.9789C12.1671 18.9986 12.1278 19.0084 12.0886 19.0084C12.0493 19.0084 12.0133 18.9986 11.9773 18.9789L6.10288 15.5852C6.03416 15.5459 5.99161 15.4739 5.99161 15.3954V8.60462C5.99161 8.52608 6.03416 8.45408 6.10288 8.41481L11.9806 5.02107C12.0133 5.00143 12.0526 4.99161 12.0886 4.99161ZM12.0886 4C11.8791 4 11.6697 4.05564 11.4831 4.16363L5.60544 7.55737C5.23236 7.77337 5 8.17263 5 8.60462V15.3921C5 15.8241 5.23236 16.2266 5.60544 16.4426L11.4831 19.8364C11.6697 19.9444 11.8791 20 12.0886 20C12.298 20 12.5075 19.9444 12.694 19.8364L18.5717 16.4426C18.948 16.2266 19.1771 15.8274 19.1771 15.3921V8.60462C19.1771 8.17263 18.9448 7.7701 18.5717 7.5541L12.6973 4.16363C12.5075 4.05564 12.298 4 12.0886 4Z" fill="#9DCCED"/>
<path d="M8.20392 17.9412L8.74391 16.4619L9.83043 17.3652L8.8159 18.2946L8.20392 17.9412Z" fill="#213147"/>
<path d="M11.5944 8.12012H10.1053C9.99407 8.12012 9.89261 8.18884 9.85662 8.29357L6.66251 17.0512L8.20393 17.9413L11.722 8.29684C11.7515 8.21175 11.6893 8.12012 11.5944 8.12012Z" fill="white"/>
<path d="M14.2027 8.12012H12.7136C12.6024 8.12012 12.5009 8.18884 12.4649 8.29357L8.81592 18.2948L10.3573 19.185L14.3271 8.30011C14.3598 8.21175 14.2943 8.12012 14.2027 8.12012Z" fill="white"/>
</svg>
