<svg width="24" height="24" viewBox="0 0 24 24" fill="none" xmlns="http://www.w3.org/2000/svg">
<g clip-path="url(#clip0_4453_33364)">
<mask id="mask0_4453_33364" style="mask-type:luminance" maskUnits="userSpaceOnUse" x="0" y="0" width="24" height="24">
<path d="M0 0H24V24H0V0Z" fill="white"/>
</mask>
<g mask="url(#mask0_4453_33364)">
<mask id="mask1_4453_33364" style="mask-type:luminance" maskUnits="userSpaceOnUse" x="4" y="4" width="16" height="16">
<path d="M4 4H20V20H4V4Z" fill="white"/>
</mask>
<g mask="url(#mask1_4453_33364)">
<path d="M18.744 5.72168H5.16267V18.9303H18.7447L18.744 5.72168Z" fill="black"/>
<path d="M5.064 4C4.47533 4 4 4.47533 4 5.064V20H17.238C17.686 20 18.1167 19.822 18.4327 19.506L19.506 18.4327C19.822 18.1167 20 17.686 20 17.238V4H5.064ZM14.4473 6.05667L9.24267 11.262C9.16452 11.3397 9.06888 11.3976 8.96375 11.4307C8.85863 11.4639 8.74709 11.4713 8.6385 11.4524C8.5299 11.4336 8.42742 11.3889 8.33964 11.3223C8.25185 11.2556 8.18134 11.1689 8.134 11.0693L6.11533 6.806C6.07737 6.72589 6.06033 6.63746 6.06579 6.54898C6.07126 6.46049 6.09906 6.37484 6.14659 6.30001C6.19413 6.22518 6.25985 6.16361 6.33762 6.12106C6.4154 6.0785 6.50268 6.05635 6.59133 6.05667H14.4473ZM6.05667 17.9433V12.88C6.05667 12.8158 6.06933 12.7522 6.09393 12.6928C6.11853 12.6335 6.15458 12.5796 6.20003 12.5342C6.24548 12.4888 6.29943 12.4529 6.35879 12.4283C6.41816 12.4038 6.48177 12.3912 6.546 12.3913H11.608L6.05667 17.9433ZM12.0273 11.4633H10.352L15.3953 6.418C15.5099 6.30319 15.6461 6.21212 15.7959 6.15C15.9458 6.08788 16.1064 6.05594 16.2687 6.056H17.9447L12.9013 11.0993C12.6693 11.3307 12.3547 11.4607 12.028 11.4613" fill="#00F58C"/>
</g>
</g>
</g>
<defs>
<clipPath id="clip0_4453_33364">
<rect width="24" height="24" fill="white"/>
</clipPath>
</defs>
</svg>
