<svg width="40" height="40" viewBox="0 0 40 40" fill="none" xmlns="http://www.w3.org/2000/svg">
    <g clip-path="url(#clip0_414_28692)">
        <path d="M20 40C31.0457 40 40 31.0457 40 20C40 8.9543 31.0457 0 20 0C8.9543 0 0 8.9543 0 20C0 31.0457 8.9543 40 20 40Z"
              fill="#F9FAFB"/>
        <path d="M39.5 20C39.5 30.7696 30.7696 39.5 20 39.5C9.23045 39.5 0.5 30.7696 0.5 20C0.5 9.23045 9.23045 0.5 20 0.5C30.7696 0.5 39.5 9.23045 39.5 20Z"
              stroke="black" stroke-opacity="0.1"/>
        <path d="M20 6L17.4603 7.47706L10.5397 11.5229L8 13V27L10.5397 28.4771L17.5238 32.5229L20.0635 34L22.6032 32.5229L29.4603 28.4771L32 27V13L29.4603 11.5229L22.5397 7.47706L20 6ZM13.0794 24.0459V15.9541L20 11.9083L26.9206 15.9541V24.0459L20 28.0917L13.0794 24.0459Z"
              fill="#2A5ADA"/>
    </g>
    <defs>
        <clipPath id="clip0_414_28692">
            <rect width="40" height="40" fill="white"/>
        </clipPath>
    </defs>
</svg>
