<svg xmlns="http://www.w3.org/2000/svg" width="40" height="40" fill="none"><g clip-path="url(#a)"><g clip-path="url(#b)"><path fill="#F9FAFB" d="M20 40c11.046 0 20-8.954 20-20S31.046 0 20 0 0 8.954 0 20s8.954 20 20 20"/><path stroke="#000" stroke-opacity=".1" d="M39.5 20c0 10.77-8.73 19.5-19.5 19.5S.5 30.77.5 20 9.23.5 20 .5 39.5 9.23 39.5 20Z"/><path fill="#393939" d="m11.448 20.254 8.649 5.021 1.443-10.658z"/><path fill="#343434" d="m20.097 6.158-4.098 14.446 12.745-.35z"/><path fill="#8C8C8C" d="m20.097 6.158-8.649 14.096 8.649-3.864zm0 27.678.213-6.835-8.862-5.137z"/><path fill="#3C3C3B" d="M20.097 26.884v6.952l8.653-11.972z"/><path fill="#141414" d="m20.097 25.275 8.647-5.022-8.647-3.861z"/></g></g><defs><clipPath id="a"><path fill="#fff" d="M0 0h40v40H0z"/></clipPath><clipPath id="b"><path fill="#fff" d="M0 0h40v40H0z"/></clipPath></defs></svg>