<svg xmlns="http://www.w3.org/2000/svg" width="24" height="24" fill="none"><g clip-path="url(#a)"><path fill="#5998E2" d="M0 0h24v24H0z"/><path fill="#fff" d="M14.507 13.33c0-1.33-.797-1.786-2.393-1.976-1.14-.152-1.368-.456-1.368-.988s.38-.874 1.14-.874c.684 0 1.064.228 1.254.798.038.114.152.19.266.19h.607a.26.26 0 0 0 .267-.266v-.038a1.9 1.9 0 0 0-1.71-1.557v-.912c0-.152-.114-.266-.304-.304h-.57c-.152 0-.266.114-.304.304v.874c-1.14.152-1.862.911-1.862 1.861 0 1.254.76 1.748 2.356 1.938 1.064.19 1.406.418 1.406 1.026s-.532 1.025-1.254 1.025c-.988 0-1.33-.417-1.444-.987-.038-.152-.152-.228-.266-.228h-.646a.26.26 0 0 0-.266.266v.038c.152.95.76 1.633 2.014 1.823v.912c0 .152.114.266.304.304h.57c.152 0 .266-.114.304-.304v-.912c1.14-.19 1.9-.988 1.9-2.013"/><path fill="#fff" d="M10.062 17.319c-2.963-1.064-4.483-4.37-3.38-7.295a5.62 5.62 0 0 1 3.38-3.381c.152-.076.228-.19.228-.38v-.532c0-.152-.076-.266-.228-.304-.038 0-.114 0-.152.038-3.609 1.14-5.584 4.977-4.445 8.586a6.83 6.83 0 0 0 4.445 4.446c.152.076.304 0 .342-.152.038-.038.038-.076.038-.152v-.532c0-.114-.114-.266-.228-.342M14.09 5.465c-.152-.076-.304 0-.342.152-.038.038-.038.076-.038.152v.532c0 .152.114.304.228.38 2.963 1.064 4.483 4.369 3.38 7.295a5.62 5.62 0 0 1-3.38 3.38c-.152.077-.228.19-.228.38v.533c0 .152.076.266.228.304.038 0 .114 0 .152-.038 3.609-1.14 5.584-4.978 4.445-8.587a6.89 6.89 0 0 0-4.445-4.483"/></g><defs><clipPath id="a"><rect width="24" height="24" fill="#fff" rx="12"/></clipPath></defs></svg>