<svg width="104" height="104" viewBox="0 0 104 104" fill="none" xmlns="http://www.w3.org/2000/svg">
    <path d="M14.8356 17.979C14.054 17.0976 14.0941 15.7599 14.9271 14.927C15.7601 14.094 17.0977 14.0539 17.9791 14.8355L55.7077 48.2929L89.1651 86.0215C89.9467 86.9028 89.9066 88.2405 89.0736 89.0735C88.2406 89.9065 86.903 89.9465 86.0216 89.1649L48.293 55.7075L14.8356 17.979Z" fill="#5E38EE"/>
    <path d="M62.8813 2.80376C63.2538 1.68618 64.4323 1.05208 65.5702 1.35698C66.708 1.66187 67.4116 2.80026 67.1754 3.95436L57.0647 53.357L41.1195 101.196C40.747 102.314 39.5685 102.948 38.4307 102.643C37.2928 102.338 36.5892 101.2 36.8254 100.046L46.9361 50.643L62.8813 2.80376Z" fill="#FF8939"/>
    <path d="M100.046 36.8253C101.2 36.5891 102.338 37.2926 102.643 38.4305C102.948 39.5684 102.314 40.7469 101.196 41.1194L53.357 57.0646L3.95441 67.1752C2.80031 67.4114 1.66192 66.7079 1.35702 65.57C1.05213 64.4321 1.68623 63.2537 2.80381 62.8812L50.6431 46.936L100.046 36.8253Z" fill="#37AC81"/>
</svg>
