<svg xmlns="http://www.w3.org/2000/svg" width="18" height="18" fill="none"><g clip-path="url(#a)"><path fill="#000" d="M16.587 1.936H1.308v14.86h15.28z"/><path fill="#00F58C" d="M1.197 0C.535 0 0 .535 0 1.197V18h14.893c.504 0 .988-.2 1.344-.556l1.207-1.207c.356-.356.556-.84.556-1.344V0zm10.556 2.314L5.898 8.17a.775.775 0 0 1-1.247-.217L2.38 3.157a.59.59 0 0 1 .535-.843zM2.314 15.686V9.99a.55.55 0 0 1 .55-.55h5.695zm6.717-7.29H7.146L12.82 2.72c.26-.26.614-.407.982-.407h1.886l-5.674 5.674a1.4 1.4 0 0 1-.983.407"/></g><defs><clipPath id="a"><path fill="#fff" d="M0 0h18v18H0z"/></clipPath></defs></svg>