<svg xmlns="http://www.w3.org/2000/svg" width="24" height="24" fill="none"><g clip-path="url(#a)"><mask id="b" width="24" height="24" x="0" y="0" maskUnits="userSpaceOnUse" style="mask-type:luminance"><path fill="#fff" d="M0 0h24v24H0z"/></mask><g mask="url(#b)"><path fill="#000" d="M22.116 2.582H1.744v19.813h20.373z"/><path fill="#00F58C" d="M1.596 0C.713 0 0 .713 0 1.596V24h19.857c.672 0 1.318-.267 1.792-.741l1.61-1.61c.474-.474.741-1.12.741-1.792V0zm14.075 3.085-7.807 7.808a1.034 1.034 0 0 1-1.663-.289L3.173 4.209a.787.787 0 0 1 .714-1.124zM3.085 20.915V13.32a.733.733 0 0 1 .734-.733h7.593zm8.956-9.72H9.528l7.565-7.568a1.85 1.85 0 0 1 1.31-.543h2.514l-7.565 7.565c-.348.347-.82.542-1.31.543"/></g></g><defs><clipPath id="a"><path fill="#fff" d="M0 0h24v24H0z"/></clipPath></defs></svg>