<svg xmlns="http://www.w3.org/2000/svg" width="24" height="24" fill="none"><g clip-path="url(#a)"><path fill="#E17726" stroke="#E17726" d="M22.272 1.768 13.365 8.34l1.656-3.873z"/><path fill="#E27625" stroke="#E27625" d="m1.727 1.768 8.828 6.634-1.577-3.935zm17.338 15.239-2.37 3.61 5.075 1.394 1.453-4.925zm-18.28.08L2.23 22.01l5.065-1.394-2.36-3.61z"/><path fill="#E27625" stroke="#E27625" d="m7.024 10.908-1.41 2.121 5.022.228-.168-5.389zm9.953 0-3.498-3.102-.113 5.451 5.02-.228zm-9.681 9.71 3.039-1.464-2.617-2.032zm6.369-1.463 3.03 1.463-.413-3.497z"/><path fill="#D5BFB2" stroke="#D5BFB2" d="m16.696 20.618-3.03-1.464.245 1.963-.026.833zm-9.4 0 2.819 1.332-.018-.832.238-1.964z"/><path fill="#233447" stroke="#233447" d="m10.168 15.824-2.52-.736 1.78-.815zm3.665 0 .74-1.55 1.788.814z"/><path fill="#CC6228" stroke="#CC6228" d="m7.295 20.617.44-3.61-2.802.08zm8.969-3.61.431 3.61 2.37-3.53zm2.123-3.978-5.022.228.467 2.567.74-1.55 1.788.814zm-10.738 2.06 1.78-.816.74 1.551.466-2.568-5.021-.228z"/><path fill="#E27525" stroke="#E27525" d="M5.614 13.029 7.72 17.12l-.071-2.033zm10.748 2.059-.08 2.033 2.106-4.092zm-5.726-1.831-.467 2.568.59 3.031.132-3.996zm2.729 0-.246 1.595.123 4.004.59-3.032z"/><path fill="#F5841F" stroke="#F5841F" d="m13.832 15.825-.59 3.031.423.299 2.617-2.034.079-2.033zm-6.184-.737.071 2.033 2.616 2.034.423-.299-.59-3.031z"/><path fill="#C0AC9D" stroke="#C0AC9D" d="m13.885 21.95.027-.832-.229-.194h-3.366l-.22.194.018.832-2.82-1.332.987.806 2 1.376h3.427l2.009-1.376.978-.806z"/><path fill="#161616" stroke="#161616" d="m13.666 19.154-.423-.298h-2.484l-.423.298-.239 1.963.22-.193h3.367l.228.193z"/><path fill="#763E1A" stroke="#763E1A" d="m22.651 8.77.75-3.628-1.129-3.374-8.607 6.354 3.313 2.786 4.678 1.358 1.03-1.2-.449-.324.714-.648-.546-.422.713-.543zM.601 5.142l.757 3.628-.485.36.722.542-.545.421.714.649-.45.324 1.03 1.2 4.679-1.358 3.312-2.787-8.607-6.353z"/><path fill="#F5841F" stroke="#F5841F" d="m21.657 12.267-4.678-1.359 1.41 2.121-2.107 4.092 2.784-.035h4.159zM7.023 10.908l-4.678 1.359-1.56 4.82h4.15l2.784.034-2.106-4.092zm6.343 2.35.3-5.136 1.356-3.654H8.98l1.356 3.654.3 5.135.114 1.612.01 3.988h2.483l.01-3.988z"/><path fill="#E17726" stroke="#E17726" d="m22.272 1.2-8.906 6.573 1.656-3.874z"/><path fill="#E27625" stroke="#E27625" d="m1.727 1.2 8.827 6.634-1.577-3.935zm17.338 15.24-2.37 3.61 5.075 1.393 1.453-4.924zm-18.28.08 1.445 4.923 5.065-1.393-2.36-3.61z"/><path fill="#E27625" stroke="#E27625" d="m7.024 10.34-1.41 2.12 5.022.229-.168-5.39zm9.953 0-3.498-3.102-.113 5.45 5.02-.228zm-9.681 9.71 3.039-1.464-2.617-2.033zm6.369-1.464 3.03 1.464-.413-3.497z"/><path fill="#D5BFB2" stroke="#D5BFB2" d="m16.696 20.05-3.03-1.465.245 1.964-.026.832zm-9.4 0 2.819 1.331-.018-.832.238-1.963z"/><path fill="#233447" stroke="#233447" d="m10.168 15.256-2.52-.737 1.78-.814zm3.665 0 .74-1.551 1.788.814z"/><path fill="#CC6228" stroke="#CC6228" d="m7.295 20.049.44-3.61-2.802.078zm8.969-3.61.431 3.61 2.37-3.532zm2.123-3.979-5.022.228.467 2.568.74-1.552 1.788.815zM7.649 14.52l1.78-.816.74 1.551.466-2.568-5.021-.227z"/><path fill="#E27525" stroke="#E27525" d="m5.614 12.46 2.106 4.092-.071-2.032zm10.748 2.06-.08 2.033 2.106-4.092zm-5.726-1.832-.467 2.568.59 3.032.132-3.996zm2.729 0-.246 1.595.123 4.005.59-3.032z"/><path fill="#F5841F" stroke="#F5841F" d="m13.832 15.256-.59 3.032.423.298 2.617-2.033.079-2.033zm-6.184-.736.071 2.033 2.616 2.033.423-.298-.59-3.032z"/><path fill="#C0AC9D" stroke="#C0AC9D" d="m13.885 21.382.027-.833-.229-.193h-3.366l-.22.193.018.833-2.82-1.332.987.806 2 1.376h3.427l2.009-1.376.978-.806z"/><path fill="#161616" stroke="#161616" d="m13.666 18.586-.423-.298h-2.484l-.423.298-.239 1.963.22-.193h3.367l.228.193z"/><path fill="#763E1A" stroke="#763E1A" d="m22.651 8.202.75-3.628-1.13-3.374-8.607 6.354 3.312 2.786 4.678 1.358 1.031-1.2-.449-.324.714-.649-.546-.42.713-.544zM.601 4.574l.757 3.628-.485.36.722.543-.545.42.714.649-.45.324 1.03 1.2 4.679-1.358 3.312-2.786L1.728 1.2z"/><path fill="#F5841F" stroke="#F5841F" d="m21.657 11.698-4.678-1.358 1.41 2.12-2.107 4.093 2.784-.035h4.159zM7.023 10.34l-4.678 1.358-1.56 4.82h4.15l2.784.035-2.106-4.092zm6.343 2.349.3-5.136 1.356-3.654H8.98l1.356 3.654.3 5.136.114 1.612.01 3.987h2.483l.01-3.987z"/></g><defs><clipPath id="a"><path fill="#fff" d="M0 0h24v24H0z"/></clipPath></defs></svg>