<svg
      fill="none"
      height="40"
      viewBox="0 0 40 40"
      width="40"
      xmlns="http://www.w3.org/2000/svg"
    >
      <path
        d="M37.1201 2.94739L22.2754 13.9012L25.0359 7.44577L37.1201 2.94739Z"
        fill="#E17726"
        stroke="#E17726"
        strokeLinecap="round"
        strokeLinejoin="round"
        strokeWidth="0.25"
      />
      <path
        d="M2.87891 2.94739L17.5915 14.0035L14.9632 7.44576L2.87891 2.94739Z"
        fill="#E27625"
        stroke="#E27625"
        strokeLinecap="round"
        strokeLinejoin="round"
        strokeWidth="0.25"
      />
      <path
        d="M31.7749 28.345L27.8252 34.3624L36.2827 36.6846L38.7055 28.4766L31.7749 28.345Z"
        fill="#E27625"
        stroke="#E27625"
        strokeLinecap="round"
        strokeLinejoin="round"
        strokeWidth="0.25"
      />
      <path
        d="M1.30859 28.4766L3.71662 36.6846L12.1595 34.3624L8.22437 28.345L1.30859 28.4766Z"
        fill="#E27625"
        stroke="#E27625"
        strokeLinecap="round"
        strokeLinejoin="round"
        strokeWidth="0.25"
      />
      <path
        d="M11.7057 18.1807L9.35645 21.7152L17.7258 22.0949L17.4469 13.1128L11.7057 18.1807Z"
        fill="#E27625"
        stroke="#E27625"
        strokeLinecap="round"
        strokeLinejoin="round"
        strokeWidth="0.25"
      />
      <path
        d="M28.2954 18.1804L22.4663 13.0102L22.2754 22.0946L30.6447 21.7149L28.2954 18.1804Z"
        fill="#E27625"
        stroke="#E27625"
        strokeLinecap="round"
        strokeLinejoin="round"
        strokeWidth="0.25"
      />
      <path
        d="M12.1592 34.3629L17.2248 31.9239L12.864 28.5355L12.1592 34.3629Z"
        fill="#E27625"
        stroke="#E27625"
        strokeLinecap="round"
        strokeLinejoin="round"
        strokeWidth="0.25"
      />
      <path
        d="M22.7754 31.9239L27.8263 34.3629L27.1362 28.5355L22.7754 31.9239Z"
        fill="#E27625"
        stroke="#E27625"
        strokeLinecap="round"
        strokeLinejoin="round"
        strokeWidth="0.25"
      />
      <path
        d="M27.8263 34.363L22.7754 31.924L23.1865 35.1955L23.1424 36.583L27.8263 34.363Z"
        fill="#D5BFB2"
        stroke="#D5BFB2"
        strokeLinecap="round"
        strokeLinejoin="round"
        strokeWidth="0.25"
      />
      <path
        d="M12.1592 34.363L16.8578 36.583L16.8284 35.1955L17.2248 31.924L12.1592 34.363Z"
        fill="#D5BFB2"
        stroke="#D5BFB2"
        strokeLinecap="round"
        strokeLinejoin="round"
        strokeWidth="0.25"
      />
      <path
        d="M16.9465 26.3736L12.7471 25.1468L15.7131 23.7885L16.9465 26.3736Z"
        fill="#233447"
        stroke="#233447"
        strokeLinecap="round"
        strokeLinejoin="round"
        strokeWidth="0.25"
      />
      <path
        d="M23.0547 26.3736L24.2881 23.7885L27.2688 25.1468L23.0547 26.3736Z"
        fill="#233447"
        stroke="#233447"
        strokeLinecap="round"
        strokeLinejoin="round"
        strokeWidth="0.25"
      />
      <path
        d="M12.1577 34.3624L12.8919 28.345L8.22266 28.4766L12.1577 34.3624Z"
        fill="#CC6228"
        stroke="#CC6228"
        strokeLinecap="round"
        strokeLinejoin="round"
        strokeWidth="0.25"
      />
      <path
        d="M27.1064 28.345L27.826 34.3624L31.7757 28.4766L27.1064 28.345Z"
        fill="#CC6228"
        stroke="#CC6228"
        strokeLinecap="round"
        strokeLinejoin="round"
        strokeWidth="0.25"
      />
      <path
        d="M30.6447 21.7146L22.2754 22.0943L23.0536 26.3737L24.287 23.7885L27.2677 25.1468L30.6447 21.7146Z"
        fill="#CC6228"
        stroke="#CC6228"
        strokeLinecap="round"
        strokeLinejoin="round"
        strokeWidth="0.25"
      />
      <path
        d="M12.7483 25.1468L15.7142 23.7885L16.9477 26.3737L17.7258 22.0943L9.35645 21.7146L12.7483 25.1468Z"
        fill="#CC6228"
        stroke="#CC6228"
        strokeLinecap="round"
        strokeLinejoin="round"
        strokeWidth="0.25"
      />
      <path
        d="M9.35645 21.7146L12.8658 28.5352L12.7482 25.1468L9.35645 21.7146Z"
        fill="#E27525"
        stroke="#E27525"
        strokeLinecap="round"
        strokeLinejoin="round"
        strokeWidth="0.25"
      />
      <path
        d="M27.2698 25.1468L27.1377 28.5352L30.647 21.7146L27.2698 25.1468Z"
        fill="#E27525"
        stroke="#E27525"
        strokeLinecap="round"
        strokeLinejoin="round"
        strokeWidth="0.25"
      />
      <path
        d="M17.7265 22.0947L16.9482 26.3741L17.932 31.4274L18.1523 24.7675L17.7265 22.0947Z"
        fill="#E27525"
        stroke="#E27525"
        strokeLinecap="round"
        strokeLinejoin="round"
        strokeWidth="0.25"
      />
      <path
        d="M22.2754 22.0947L21.8643 24.753L22.0698 31.4274L23.0536 26.3741L22.2754 22.0947Z"
        fill="#E27525"
        stroke="#E27525"
        strokeLinecap="round"
        strokeLinejoin="round"
        strokeWidth="0.25"
      />
      <path
        d="M23.0541 26.3739L22.0703 31.4272L22.7751 31.9238L27.1361 28.5354L27.2682 25.147L23.0541 26.3739Z"
        fill="#F5841F"
        stroke="#F5841F"
        strokeLinecap="round"
        strokeLinejoin="round"
        strokeWidth="0.25"
      />
      <path
        d="M12.7471 25.147L12.8646 28.5354L17.2254 31.9238L17.9303 31.4272L16.9465 26.3739L12.7471 25.147Z"
        fill="#F5841F"
        stroke="#F5841F"
        strokeLinecap="round"
        strokeLinejoin="round"
        strokeWidth="0.25"
      />
      <path
        d="M23.1422 36.5833L23.1862 35.1958L22.8045 34.8744H17.1956L16.8284 35.1958L16.8578 36.5833L12.1592 34.3633L13.8037 35.7069L17.1368 38H22.8485L26.1963 35.7069L27.8261 34.3633L23.1422 36.5833Z"
        fill="#C0AC9D"
        stroke="#C0AC9D"
        strokeLinecap="round"
        strokeLinejoin="round"
        strokeWidth="0.25"
      />
      <path
        d="M22.7758 31.9239L22.0709 31.4274H17.9303L17.2256 31.9239L16.8291 35.1956L17.1962 34.8742H22.8052L23.187 35.1956L22.7758 31.9239Z"
        fill="#161616"
        stroke="#161616"
        strokeLinecap="round"
        strokeLinejoin="round"
        strokeWidth="0.25"
      />
      <path
        d="M37.7521 14.6168L39.0003 8.57036L37.1208 2.94739L22.7754 13.5361L28.2962 18.1805L36.093 20.4444L37.8109 18.4435L37.0621 17.903L38.2514 16.8223L37.3411 16.1212L38.5304 15.2157L37.7521 14.6168Z"
        fill="#763E1A"
        stroke="#763E1A"
        strokeLinecap="round"
        strokeLinejoin="round"
        strokeWidth="0.25"
      />
      <path
        d="M1 8.57036L2.26275 14.6168L1.45518 15.2157L2.6592 16.1212L1.74884 16.8223L2.93818 17.903L2.18933 18.4435L3.90727 20.4444L11.7041 18.1805L17.2249 13.5361L2.87945 2.94739L1 8.57036Z"
        fill="#763E1A"
        stroke="#763E1A"
        strokeLinecap="round"
        strokeLinejoin="round"
        strokeWidth="0.25"
      />
      <path
        d="M36.0944 20.4442L28.2977 18.1804L30.647 21.7149L27.1377 28.5354L31.7776 28.477H38.708L36.0944 20.4442Z"
        fill="#F5841F"
        stroke="#F5841F"
        strokeLinecap="round"
        strokeLinejoin="round"
        strokeWidth="0.25"
      />
      <path
        d="M11.7042 18.1804L3.90751 20.4442L1.30859 28.477H8.22437L12.8642 28.5354L9.35497 21.7149L11.7042 18.1804Z"
        fill="#F5841F"
        stroke="#F5841F"
        strokeLinecap="round"
        strokeLinejoin="round"
        strokeWidth="0.25"
      />
      <path
        d="M22.2771 22.095L22.7763 13.5363L25.0375 7.44604H14.9648L17.226 13.5363L17.7252 22.095L17.9161 24.7823L17.9308 31.4277H22.0715L22.0862 24.7823L22.2771 22.095Z"
        fill="#F5841F"
        stroke="#F5841F"
        strokeLinecap="round"
        strokeLinejoin="round"
        strokeWidth="0.25"
      />
      <path
        d="M37.1206 2L22.2759 12.9538L25.0364 6.49839L37.1206 2Z"
        fill="#E17726"
        stroke="#E17726"
        strokeLinecap="round"
        strokeLinejoin="round"
        strokeWidth="0.25"
      />
      <path
        d="M2.87866 2L17.5912 13.0561L14.963 6.49837L2.87866 2Z"
        fill="#E27625"
        stroke="#E27625"
        strokeLinecap="round"
        strokeLinejoin="round"
        strokeWidth="0.25"
      />
      <path
        d="M31.7749 27.3976L27.8252 33.415L36.2827 35.7372L38.7055 27.5292L31.7749 27.3976Z"
        fill="#E27625"
        stroke="#E27625"
        strokeLinecap="round"
        strokeLinejoin="round"
        strokeWidth="0.25"
      />
      <path
        d="M1.30859 27.5292L3.71662 35.7372L12.1595 33.415L8.22437 27.3976L1.30859 27.5292Z"
        fill="#E27625"
        stroke="#E27625"
        strokeLinecap="round"
        strokeLinejoin="round"
        strokeWidth="0.25"
      />
      <path
        d="M11.7057 17.2333L9.35645 20.7678L17.7258 21.1475L17.4469 12.1654L11.7057 17.2333Z"
        fill="#E27625"
        stroke="#E27625"
        strokeLinecap="round"
        strokeLinejoin="round"
        strokeWidth="0.25"
      />
      <path
        d="M28.2954 17.233L22.4663 12.0628L22.2754 21.1472L30.6447 20.7675L28.2954 17.233Z"
        fill="#E27625"
        stroke="#E27625"
        strokeLinecap="round"
        strokeLinejoin="round"
        strokeWidth="0.25"
      />
      <path
        d="M12.1592 33.4155L17.2248 30.9765L12.864 27.5881L12.1592 33.4155Z"
        fill="#E27625"
        stroke="#E27625"
        strokeLinecap="round"
        strokeLinejoin="round"
        strokeWidth="0.25"
      />
      <path
        d="M22.7754 30.9765L27.8263 33.4155L27.1362 27.5881L22.7754 30.9765Z"
        fill="#E27625"
        stroke="#E27625"
        strokeLinecap="round"
        strokeLinejoin="round"
        strokeWidth="0.25"
      />
      <path
        d="M27.8263 33.4155L22.7754 30.9765L23.1865 34.248L23.1424 35.6355L27.8263 33.4155Z"
        fill="#D5BFB2"
        stroke="#D5BFB2"
        strokeLinecap="round"
        strokeLinejoin="round"
        strokeWidth="0.25"
      />
      <path
        d="M12.1592 33.4155L16.8578 35.6355L16.8284 34.248L17.2248 30.9765L12.1592 33.4155Z"
        fill="#D5BFB2"
        stroke="#D5BFB2"
        strokeLinecap="round"
        strokeLinejoin="round"
        strokeWidth="0.25"
      />
      <path
        d="M16.9465 25.4262L12.7471 24.1994L15.7131 22.8411L16.9465 25.4262Z"
        fill="#233447"
        stroke="#233447"
        strokeLinecap="round"
        strokeLinejoin="round"
        strokeWidth="0.25"
      />
      <path
        d="M23.0547 25.4262L24.2881 22.8411L27.2688 24.1994L23.0547 25.4262Z"
        fill="#233447"
        stroke="#233447"
        strokeLinecap="round"
        strokeLinejoin="round"
        strokeWidth="0.25"
      />
      <path
        d="M12.1577 33.415L12.8919 27.3976L8.22266 27.5292L12.1577 33.415Z"
        fill="#CC6228"
        stroke="#CC6228"
        strokeLinecap="round"
        strokeLinejoin="round"
        strokeWidth="0.25"
      />
      <path
        d="M27.1064 27.3976L27.826 33.415L31.7757 27.5292L27.1064 27.3976Z"
        fill="#CC6228"
        stroke="#CC6228"
        strokeLinecap="round"
        strokeLinejoin="round"
        strokeWidth="0.25"
      />
      <path
        d="M30.6447 20.7672L22.2754 21.1469L23.0536 25.4263L24.287 22.8411L27.2677 24.1995L30.6447 20.7672Z"
        fill="#CC6228"
        stroke="#CC6228"
        strokeLinecap="round"
        strokeLinejoin="round"
        strokeWidth="0.25"
      />
      <path
        d="M12.7483 24.1995L15.7142 22.8411L16.9477 25.4263L17.7258 21.1469L9.35645 20.7672L12.7483 24.1995Z"
        fill="#CC6228"
        stroke="#CC6228"
        strokeLinecap="round"
        strokeLinejoin="round"
        strokeWidth="0.25"
      />
      <path
        d="M9.35645 20.7672L12.8658 27.5878L12.7482 24.1995L9.35645 20.7672Z"
        fill="#E27525"
        stroke="#E27525"
        strokeLinecap="round"
        strokeLinejoin="round"
        strokeWidth="0.25"
      />
      <path
        d="M27.2698 24.1995L27.1377 27.5878L30.647 20.7672L27.2698 24.1995Z"
        fill="#E27525"
        stroke="#E27525"
        strokeLinecap="round"
        strokeLinejoin="round"
        strokeWidth="0.25"
      />
      <path
        d="M17.7265 21.1473L16.9482 25.4267L17.932 30.48L18.1523 23.8201L17.7265 21.1473Z"
        fill="#E27525"
        stroke="#E27525"
        strokeLinecap="round"
        strokeLinejoin="round"
        strokeWidth="0.25"
      />
      <path
        d="M22.2754 21.1473L21.8643 23.8056L22.0698 30.48L23.0536 25.4267L22.2754 21.1473Z"
        fill="#E27525"
        stroke="#E27525"
        strokeLinecap="round"
        strokeLinejoin="round"
        strokeWidth="0.25"
      />
      <path
        d="M23.0541 25.4265L22.0703 30.4798L22.7751 30.9764L27.1361 27.588L27.2682 24.1996L23.0541 25.4265Z"
        fill="#F5841F"
        stroke="#F5841F"
        strokeLinecap="round"
        strokeLinejoin="round"
        strokeWidth="0.25"
      />
      <path
        d="M12.7471 24.1996L12.8646 27.588L17.2254 30.9764L17.9303 30.4798L16.9465 25.4265L12.7471 24.1996Z"
        fill="#F5841F"
        stroke="#F5841F"
        strokeLinecap="round"
        strokeLinejoin="round"
        strokeWidth="0.25"
      />
      <path
        d="M23.1422 35.6359L23.1862 34.2484L22.8045 33.927H17.1956L16.8284 34.2484L16.8578 35.6359L12.1592 33.4159L13.8037 34.7596L17.1368 37.0526H22.8485L26.1963 34.7596L27.8261 33.4159L23.1422 35.6359Z"
        fill="#C0AC9D"
        stroke="#C0AC9D"
        strokeLinecap="round"
        strokeLinejoin="round"
        strokeWidth="0.25"
      />
      <path
        d="M22.7758 30.9765L22.0709 30.48H17.9303L17.2256 30.9765L16.8291 34.2482L17.1962 33.9268H22.8052L23.187 34.2482L22.7758 30.9765Z"
        fill="#161616"
        stroke="#161616"
        strokeLinecap="round"
        strokeLinejoin="round"
        strokeWidth="0.25"
      />
      <path
        d="M37.7517 13.6695L38.9998 7.62297L37.1203 2L22.7749 12.5888L28.2957 17.2331L36.0925 19.497L37.8104 17.4961L37.0616 16.9556L38.2509 15.8749L37.3406 15.1738L38.5299 14.2683L37.7517 13.6695Z"
        fill="#763E1A"
        stroke="#763E1A"
        strokeLinecap="round"
        strokeLinejoin="round"
        strokeWidth="0.25"
      />
      <path
        d="M1 7.62297L2.26275 13.6695L1.45518 14.2683L2.6592 15.1738L1.74884 15.8749L2.93818 16.9556L2.18933 17.4961L3.90727 19.497L11.7041 17.2331L17.2249 12.5888L2.87945 2L1 7.62297Z"
        fill="#763E1A"
        stroke="#763E1A"
        strokeLinecap="round"
        strokeLinejoin="round"
        strokeWidth="0.25"
      />
      <path
        d="M36.0944 19.4968L28.2977 17.233L30.647 20.7675L27.1377 27.588L31.7776 27.5296H38.708L36.0944 19.4968Z"
        fill="#F5841F"
        stroke="#F5841F"
        strokeLinecap="round"
        strokeLinejoin="round"
        strokeWidth="0.25"
      />
      <path
        d="M11.7042 17.233L3.90751 19.4968L1.30859 27.5296H8.22437L12.8642 27.588L9.35497 20.7675L11.7042 17.233Z"
        fill="#F5841F"
        stroke="#F5841F"
        strokeLinecap="round"
        strokeLinejoin="round"
        strokeWidth="0.25"
      />
      <path
        d="M22.2771 21.1476L22.7763 12.5889L25.0375 6.49866H14.9648L17.226 12.5889L17.7252 21.1476L17.9161 23.8349L17.9308 30.4803H22.0715L22.0862 23.8349L22.2771 21.1476Z"
        fill="#F5841F"
        stroke="#F5841F"
        strokeLinecap="round"
        strokeLinejoin="round"
        strokeWidth="0.25"
      />
    </svg>