<svg xmlns="http://www.w3.org/2000/svg" width="40" height="40" fill="none"><path fill="#E17726" stroke="#E17726" d="M37.12 2.947 22.275 13.901l2.76-6.455z"/><path fill="#E27625" stroke="#E27625" d="m2.879 2.947 14.713 11.057-2.629-6.558zm28.896 25.398-3.95 6.017 8.458 2.323 2.422-8.208zm-30.466.132 2.408 8.208 8.442-2.323-3.935-6.017z"/><path fill="#E27625" stroke="#E27625" d="m11.706 18.18-2.35 3.535 8.37.38-.28-8.982zm16.589 0-5.829-5.17-.19 9.085 8.369-.38zM12.16 34.363l5.065-2.44-4.361-3.387zm10.615-2.439 5.051 2.439-.69-5.828z"/><path fill="#D5BFB2" stroke="#D5BFB2" d="m27.826 34.363-5.05-2.439.41 3.272-.044 1.387zm-15.666 0 4.698 2.22-.03-1.387.397-3.272z"/><path fill="#233447" stroke="#233447" d="m16.947 26.374-4.2-1.227 2.966-1.358zm6.108 0 1.233-2.585 2.98 1.358z"/><path fill="#CC6228" stroke="#CC6228" d="m12.158 34.362.734-6.017-4.67.132zm14.948-6.017.72 6.017 3.95-5.885zm3.539-6.63-8.37.38.779 4.279 1.233-2.585 2.98 1.358zm-17.897 3.432 2.966-1.358 1.234 2.585.778-4.28-8.37-.38z"/><path fill="#E27525" stroke="#E27525" d="m9.356 21.715 3.51 6.82-.118-3.388zm17.914 3.432-.132 3.388 3.509-6.82zm-9.543-3.052-.779 4.28.984 5.052.22-6.66zm4.548 0-.41 2.658.205 6.674.984-5.053z"/><path fill="#F5841F" stroke="#F5841F" d="m23.054 26.374-.984 5.053.705.497 4.361-3.389.132-3.388zm-10.307-1.227.118 3.388 4.36 3.389.705-.497-.983-5.053z"/><path fill="#C0AC9D" stroke="#C0AC9D" d="m23.142 36.583.044-1.387-.381-.322h-5.61l-.367.322.03 1.387-4.699-2.22 1.645 1.344L17.137 38h5.712l3.347-2.293 1.63-1.344z"/><path fill="#161616" stroke="#161616" d="m22.776 31.924-.705-.497h-4.14l-.705.497-.397 3.272.367-.322h5.61l.381.322z"/><path fill="#763E1A" stroke="#763E1A" d="M37.752 14.617 39 8.57l-1.88-5.623-14.345 10.59 5.521 4.643 7.797 2.264 1.718-2-.749-.541 1.19-1.08-.91-.702 1.188-.905zM1 8.57l1.263 6.047-.808.599 1.204.905-.91.701 1.19 1.081-.75.54 1.718 2.001 7.797-2.264 5.52-4.644L2.88 2.947z"/><path fill="#F5841F" stroke="#F5841F" d="m36.094 20.444-7.796-2.264 2.349 3.535-3.51 6.82 4.64-.058h6.931zm-24.39-2.264-7.796 2.264-2.6 8.033h6.916l4.64.058-3.509-6.82zm10.573 3.915.5-8.559 2.26-6.09H14.966l2.261 6.09.5 8.559.19 2.687.015 6.646h4.14l.015-6.646z"/><path fill="#E17726" stroke="#E17726" d="M37.12 2 22.277 12.954l2.76-6.456z"/><path fill="#E27625" stroke="#E27625" d="M2.879 2 17.59 13.056l-2.628-6.558zm28.896 25.398-3.95 6.017 8.458 2.322 2.422-8.208zm-30.466.132 2.408 8.207 8.442-2.322-3.935-6.017z"/><path fill="#E27625" stroke="#E27625" d="m11.706 17.233-2.35 3.535 8.37.38-.28-8.983zm16.589 0-5.829-5.17-.19 9.084 8.369-.38zM12.16 33.416l5.065-2.44-4.361-3.388zm10.615-2.439 5.051 2.439-.69-5.828z"/><path fill="#D5BFB2" stroke="#D5BFB2" d="m27.826 33.416-5.05-2.44.41 3.272-.044 1.388zm-15.666 0 4.698 2.22-.03-1.388.397-3.271z"/><path fill="#233447" stroke="#233447" d="m16.947 25.426-4.2-1.227 2.966-1.358zm6.108 0 1.233-2.585 2.98 1.358z"/><path fill="#CC6228" stroke="#CC6228" d="m12.158 33.415.734-6.017-4.67.131zm14.948-6.017.72 6.017 3.95-5.886zm3.539-6.631-8.37.38.779 4.28 1.233-2.586 2.98 1.358zM12.748 24.2l2.966-1.359 1.234 2.585.778-4.28-8.37-.379z"/><path fill="#E27525" stroke="#E27525" d="m9.356 20.767 3.51 6.82-.118-3.387zM27.27 24.2l-.132 3.388 3.509-6.82zm-9.543-3.053-.779 4.28.984 5.053.22-6.66zm4.548 0-.41 2.659.205 6.674.984-5.053z"/><path fill="#F5841F" stroke="#F5841F" d="m23.054 25.427-.984 5.053.705.496 4.361-3.388.132-3.388zM12.747 24.2l.118 3.388 4.36 3.388.705-.496-.983-5.053z"/><path fill="#C0AC9D" stroke="#C0AC9D" d="m23.142 35.636.044-1.388-.381-.321h-5.61l-.367.321.03 1.388-4.699-2.22 1.645 1.344 3.333 2.293h5.712l3.347-2.293 1.63-1.344z"/><path fill="#161616" stroke="#161616" d="m22.776 30.977-.705-.497h-4.14l-.705.497-.397 3.271.367-.321h5.61l.381.321z"/><path fill="#763E1A" stroke="#763E1A" d="M37.752 13.67 39 7.623 37.12 2 22.775 12.589l5.52 4.644 7.797 2.264 1.718-2-.748-.541 1.189-1.081-.91-.701 1.189-.906zM1 7.623l1.263 6.046-.808.6 1.204.905-.91.7 1.19 1.082-.75.54 1.718 2.001 7.797-2.264 5.52-4.644L2.88 2z"/><path fill="#F5841F" stroke="#F5841F" d="m36.094 19.497-7.796-2.264 2.349 3.534-3.51 6.821 4.64-.058h6.931zm-24.39-2.264-7.796 2.264-2.6 8.033h6.916l4.64.058-3.509-6.82zm10.573 3.915.5-8.56 2.26-6.09H14.966l2.261 6.09.5 8.56.19 2.687.015 6.645h4.14l.015-6.645z"/></svg>