<svg width="23" height="23" viewBox="0 0 23 23" fill="none" xmlns="http://www.w3.org/2000/svg">
    <path d="M3.28098 3.97605C3.10813 3.78113 3.11699 3.4853 3.30121 3.30108C3.48543 3.11686 3.78126 3.108 3.97618 3.28085L12.32 10.6801L19.7193 19.0239C19.8921 19.2188 19.8832 19.5147 19.699 19.6989C19.5148 19.8831 19.219 19.892 19.0241 19.7191L10.6802 12.3199L3.28098 3.97605Z"
          fill="#6642EE"/>
    <path d="M13.9064 0.620064C13.9888 0.372907 14.2494 0.232672 14.5011 0.300101C14.7527 0.367529 14.9083 0.619289 14.8561 0.874523L12.6201 11.8001L9.09373 22.38C9.01135 22.6271 8.75073 22.7673 8.49908 22.6999C8.24743 22.6325 8.09184 22.3807 8.14408 22.1255L10.3801 11.1999L13.9064 0.620064Z"
          fill="#D37C40"/>
    <path d="M22.1256 8.14402C22.3808 8.09178 22.6326 8.24737 22.7 8.49902C22.7674 8.75067 22.6272 9.01129 22.38 9.09367L11.8002 12.62L0.874604 14.856C0.619372 14.9083 0.367612 14.7527 0.300183 14.501C0.232754 14.2494 0.372989 13.9888 0.620145 13.9064L11.2 10.38L22.1256 8.14402Z"
          fill="#37AC81"/>
</svg>
