<svg width="16" height="16" viewBox="0 0 16 16" fill="none" xmlns="http://www.w3.org/2000/svg">
<path d="M11.9999 0H4C1.79086 0 0 1.79086 0 4V11.9999C0 14.209 1.79086 15.9999 4 15.9999H11.9999C14.209 15.9999 15.9999 14.209 15.9999 11.9999V4C15.9999 1.79086 14.209 0 11.9999 0Z" fill="black"/>
<path d="M5.73272 14.8088C5.34042 14.6791 5.12796 14.2556 5.25862 13.8636L9.32552 1.66358C9.45571 1.27303 9.87741 1.06152 10.2683 1.1907V1.1907C10.6606 1.32035 10.873 1.74392 10.7424 2.13589L6.67549 14.3359C6.5453 14.7264 6.1236 14.938 5.73272 14.8088V14.8088Z" fill="#FEFEFE"/>
<path d="M14.8095 5.73198C14.9387 6.12286 14.7272 6.54456 14.3367 6.67475L2.13665 10.7416C1.74468 10.8723 1.32111 10.6598 1.19146 10.2675V10.2675C1.06228 9.87667 1.2738 9.45497 1.66434 9.32478L13.8644 5.25788C14.2563 5.12722 14.6799 5.33968 14.8095 5.73198V5.73198Z" fill="#FEFEFE"/>
<path d="M4.88717 4.6146C5.18641 4.32997 5.65969 4.34171 5.94445 4.64081L11.1401 10.0982C11.425 10.3975 11.4133 10.8711 11.1138 11.1559V11.1559C10.8146 11.4405 10.3413 11.4288 10.0566 11.1297L4.86095 5.67236C4.576 5.37306 4.58775 4.89941 4.88717 4.6146V4.6146Z" fill="#FEFEFE"/>
</svg>
