<svg xmlns="http://www.w3.org/2000/svg" width="360" height="180" fill="none"><path stroke="#969696" d="m53 147 41-43 26.5 17L180 70"/><path fill="#4B4B4B" d="M52 32h1v116h-1zm1 116v-1h255v1z"/><path fill="#969696" d="M19.828 74v-.828l2.007-2.133q.513-.549.747-.972a1.74 1.74 0 0 0 .234-.828q0-.549-.306-.864-.297-.315-.819-.315-.576 0-.909.324-.324.324-.324.891h-.81q.018-.594.27-1.026a1.75 1.75 0 0 1 .711-.675q.459-.234 1.062-.234.594 0 1.026.234.441.225.675.648t.234 1.008q0 .558-.297 1.107t-.972 1.251l-1.62 1.674h2.997V74zm7.448.09q-.602 0-1.052-.234a1.7 1.7 0 0 1-.684-.675 2.1 2.1 0 0 1-.243-1.026v-2.88q0-.594.242-1.026.243-.432.684-.666.45-.243 1.053-.243.614 0 1.053.243.442.234.684.666t.243 1.026v2.88q0 .585-.242 1.026a1.7 1.7 0 0 1-.694.675q-.441.234-1.044.234m0-.693q.54 0 .864-.342.334-.351.334-.9v-2.88q0-.549-.334-.891-.323-.351-.864-.351t-.872.351q-.325.342-.325.891v2.88q0 .549.325.9.332.342.872.342m0-2.151a.54.54 0 0 1-.395-.153.57.57 0 0 1-.145-.405q0-.243.145-.387a.54.54 0 0 1 .395-.153q.244 0 .387.153a.5.5 0 0 1 .154.387.55.55 0 0 1-.154.405.5.5 0 0 1-.387.153m5.577 2.844q-.603 0-1.053-.234a1.7 1.7 0 0 1-.684-.675 2.1 2.1 0 0 1-.243-1.026v-2.88q0-.594.243-1.026t.684-.666q.45-.243 1.053-.243.612 0 1.053.243.441.234.684.666t.243 1.026v2.88q0 .585-.243 1.026a1.7 1.7 0 0 1-.693.675q-.441.234-1.044.234m0-.693q.54 0 .864-.342.333-.351.333-.9v-2.88q0-.549-.333-.891-.324-.351-.864-.351t-.873.351q-.324.342-.324.891v2.88q0 .549.324.9.333.342.873.342m0-2.151a.54.54 0 0 1-.396-.153.57.57 0 0 1-.144-.405q0-.243.144-.387a.54.54 0 0 1 .396-.153q.243 0 .387.153a.5.5 0 0 1 .153.387.55.55 0 0 1-.153.405.5.5 0 0 1-.387.153m5.576 2.844q-.602 0-1.053-.234a1.7 1.7 0 0 1-.683-.675 2.1 2.1 0 0 1-.243-1.026v-2.88q0-.594.242-1.026.244-.432.684-.666.45-.243 1.053-.243.613 0 1.053.243.442.234.684.666.244.432.244 1.026v2.88q0 .585-.243 1.026a1.7 1.7 0 0 1-.694.675q-.441.234-1.044.234m0-.693q.54 0 .864-.342.334-.351.334-.9v-2.88q0-.549-.334-.891-.323-.351-.864-.351t-.873.351q-.323.342-.323.891v2.88q0 .549.324.9.332.342.872.342m0-2.151a.54.54 0 0 1-.396-.153.57.57 0 0 1-.144-.405q0-.243.144-.387a.54.54 0 0 1 .396-.153q.244 0 .387.153a.5.5 0 0 1 .153.387.55.55 0 0 1-.153.405.5.5 0 0 1-.387.153"/><path fill="#00E388" d="m177.45 65 1.71-6.57h1.089L181.95 65h-.819l-.432-1.746h-1.989L178.278 65zm1.422-2.43h1.656l-.504-2.025a26 26 0 0 1-.225-.963 13 13 0 0 1-.099-.504q-.018.117-.099.504t-.225.954z"/><path stroke="#969696" stroke-dasharray="2 2" d="m180 70 46.5 26L308 32"/><path stroke="#00E388" d="M53 70h255"/><rect width="4" height="4" x="178" y="68" fill="#00E388" rx="2"/><rect width="4" height="4" x="133" y="159" fill="#00E388" rx="2"/><path fill="#969696" d="m141.25 164 2.16-7h1.48l2.16 7h-.87l-.54-1.77h-2.98l-.54 1.77zm1.62-2.53h2.55l-1.2-3.96h-.14zm7.767.32v-.73h7.52v.73zm14.327 2.35q-1.25 0-1.99-.72-.74-.73-.74-2.12v-1.6q0-1.39.74-2.11.74-.73 1.99-.73 1.24 0 1.9.69.67.69.67 1.89v.05h-.83v-.08q0-.79-.43-1.29-.42-.51-1.31-.51t-1.39.55q-.5.54-.5 1.52v1.64q0 .98.5 1.53.5.54 1.39.54t1.31-.5q.43-.51.43-1.3v-.16h.83v.13q0 1.2-.67 1.89-.66.69-1.9.69m5.986-.05q-.53 0-.98-.23a1.7 1.7 0 0 1-.7-.68q-.25-.46-.25-1.11v-2.96h.79v2.9q0 .73.36 1.06.37.33.99.33.7 0 1.15-.46t.45-1.37v-2.46h.79V164h-.77v-.83h-.14q-.16.35-.55.64-.39.28-1.14.28m4.453-.09v-4.89h.77v.6h.14a.9.9 0 0 1 .4-.47q.27-.15.71-.15h.58v.72h-.63q-.53 0-.86.3-.32.29-.32.91V164zm3.97 0v-4.89h.77v.6h.14a.9.9 0 0 1 .4-.47q.27-.15.71-.15h.58v.72h-.63q-.53 0-.86.3-.32.29-.32.91V164zm6.033.14q-.74 0-1.3-.31a2.24 2.24 0 0 1-.87-.89q-.31-.57-.31-1.32v-.12q0-.76.31-1.33t.86-.88q.55-.32 1.26-.32.69 0 1.22.3.53.29.83.84t.3 1.29v.36h-3.99q.03.79.51 1.24.48.44 1.2.44.63 0 .97-.29t.52-.69l.68.33q-.15.31-.42.62-.26.31-.69.52-.42.21-1.08.21m-1.68-3.03h3.18q-.04-.68-.47-1.06-.42-.38-1.08-.38-.67 0-1.1.38t-.53 1.06m5.558 2.89v-4.89h.77v.83h.14q.16-.35.54-.63.39-.29 1.14-.29.55 0 .98.23.44.23.7.68t.26 1.11V164h-.79v-2.9q0-.73-.37-1.06-.36-.33-.98-.33-.71 0-1.16.46-.44.46-.44 1.37V164zm7.996 0q-.42 0-.65-.23-.22-.23-.22-.63v-3.34h-1.47v-.69h1.47v-1.74h.79v1.74h1.6v.69h-1.6v3.22q0 .3.29.3h1.09v.68zm5.768 2v-6.89h.77v.81h.14a1.8 1.8 0 0 1 .61-.66q.43-.29 1.19-.29.63 0 1.15.31.531.3.84.86.32.56.32 1.35v.13q0 .78-.31 1.35-.309.57-.84.87-.52.3-1.16.3-.51 0-.87-.14a1.7 1.7 0 0 1-.57-.34 1.8 1.8 0 0 1-.34-.43h-.14V166zm2.5-2.56q.76 0 1.23-.48.48-.49.48-1.36v-.09q0-.87-.48-1.35-.47-.49-1.23-.49-.75 0-1.24.49-.48.48-.48 1.35v.09q0 .87.48 1.36.49.48 1.24.48m4.136.56v-4.89h.77v.6h.14a.9.9 0 0 1 .4-.47q.27-.15.71-.15h.58v.72h-.63q-.53 0-.86.3-.32.29-.32.91V164zm3.969 0v-4.89h.79V164zm.4-5.65a.62.62 0 0 1-.44-.17.58.58 0 0 1-.17-.43q0-.27.17-.44a.62.62 0 0 1 .44-.17q.26 0 .43.17t.17.44a.58.58 0 0 1-.6.6m4.502 5.79q-.71 0-1.28-.3a2.3 2.3 0 0 1-.89-.88q-.32-.57-.32-1.35v-.11q0-.79.32-1.35.33-.57.89-.87a2.6 2.6 0 0 1 1.28-.31q.7 0 1.19.26.5.26.78.69.29.43.37.92l-.77.16a1.7 1.7 0 0 0-.24-.66q-.18-.3-.51-.48t-.81-.18q-.49 0-.88.22a1.63 1.63 0 0 0-.61.63q-.22.41-.22.98v.09q0 .57.22.98.23.41.61.63.39.22.88.22.729 0 1.11-.38.39-.38.48-.94l.78.17q-.11.48-.4.91a2.1 2.1 0 0 1-.79.69q-.49.26-1.19.26m6.166 0q-.74 0-1.3-.31a2.24 2.24 0 0 1-.87-.89q-.31-.57-.31-1.32v-.12q0-.76.31-1.33t.86-.88q.55-.32 1.26-.32.69 0 1.22.3.53.29.83.84t.3 1.29v.36h-3.99q.03.79.51 1.24.48.44 1.2.44.63 0 .97-.29t.52-.69l.68.33q-.15.31-.42.62-.26.31-.69.52-.42.21-1.08.21m-1.68-3.03h3.18q-.04-.68-.47-1.06-.42-.38-1.08-.38-.67 0-1.1.38t-.53 1.06"/></svg>