<svg xmlns="http://www.w3.org/2000/svg" width="360" height="196" fill="none"><path stroke="#969696" d="m53 147 41-43 26.5 17L180 70"/><path fill="#4B4B4B" d="M52 32h1v116h-1zm1 116v-1h255v1z"/><path fill="#969696" d="M21.601 60.09q-.594 0-1.044-.234a1.74 1.74 0 0 1-.684-.666 1.95 1.95 0 0 1-.243-.99h.81q0 .549.306.864.315.306.864.306.558 0 .864-.324t.306-.846v-.468q0-.558-.306-.864t-.864-.306h-.675v-.81l1.629-1.584H19.9v-.738h3.483v.81l-1.755 1.701v-.099q.9 0 1.431.513t.531 1.377v.468q0 .567-.252.99a1.7 1.7 0 0 1-.693.666q-.45.234-1.044.234m5.676 0q-.604 0-1.053-.234a1.7 1.7 0 0 1-.684-.675 2.1 2.1 0 0 1-.243-1.026v-2.88q0-.594.242-1.026.243-.432.684-.666.45-.243 1.053-.243.614 0 1.053.243.442.234.684.666t.243 1.026v2.88q0 .585-.242 1.026a1.7 1.7 0 0 1-.694.675q-.441.234-1.044.234m0-.693q.54 0 .863-.342.334-.351.334-.9v-2.88q0-.549-.334-.891-.323-.351-.864-.351t-.872.351q-.325.342-.325.891v2.88q0 .549.325.9.332.342.872.342m0-2.151a.54.54 0 0 1-.396-.153.57.57 0 0 1-.145-.405q0-.243.145-.387a.54.54 0 0 1 .395-.153q.244 0 .387.153a.5.5 0 0 1 .154.387.55.55 0 0 1-.154.405.5.5 0 0 1-.387.153m5.576 2.844q-.603 0-1.053-.234a1.7 1.7 0 0 1-.684-.675 2.1 2.1 0 0 1-.243-1.026v-2.88q0-.594.243-1.026t.684-.666q.45-.243 1.053-.243.612 0 1.053.243.441.234.684.666t.243 1.026v2.88q0 .585-.243 1.026a1.7 1.7 0 0 1-.693.675q-.441.234-1.044.234m0-.693q.54 0 .864-.342.333-.351.333-.9v-2.88q0-.549-.333-.891-.324-.351-.864-.351t-.873.351q-.324.342-.324.891v2.88q0 .549.324.9.333.342.873.342m0-2.151a.54.54 0 0 1-.396-.153.57.57 0 0 1-.144-.405q0-.243.144-.387a.54.54 0 0 1 .396-.153q.243 0 .387.153a.5.5 0 0 1 .153.387.55.55 0 0 1-.153.405.5.5 0 0 1-.387.153m5.576 2.844q-.602 0-1.053-.234a1.7 1.7 0 0 1-.683-.675 2.1 2.1 0 0 1-.243-1.026v-2.88q0-.594.242-1.026.244-.432.684-.666.45-.243 1.053-.243.613 0 1.053.243.442.234.684.666.244.432.244 1.026v2.88q0 .585-.243 1.026a1.7 1.7 0 0 1-.694.675q-.441.234-1.044.234m0-.693q.54 0 .864-.342.334-.351.334-.9v-2.88q0-.549-.334-.891-.323-.351-.864-.351t-.873.351q-.323.342-.323.891v2.88q0 .549.324.9.332.342.872.342m0-2.151a.54.54 0 0 1-.396-.153.57.57 0 0 1-.144-.405q0-.243.144-.387a.54.54 0 0 1 .396-.153q.244 0 .387.153a.5.5 0 0 1 .153.387.55.55 0 0 1-.153.405.5.5 0 0 1-.387.153M19.81 109v-.738h1.782v-5.157l-1.782 1.332v-.9l1.485-1.107h1.107v5.832h1.458V109zm7.449.09q-.802 0-1.314-.414-.514-.414-.604-1.116h.81a.84.84 0 0 0 .334.603q.288.207.782.207.567 0 .846-.306.288-.306.288-.864v-.639q0-.558-.288-.864-.279-.306-.837-.306-.35 0-.611.189-.261.18-.378.486h-.81l.044-3.636h3.456v.738h-2.672l-.027 2.187h.252l-.253.234a.78.78 0 0 1 .333-.666q.343-.243.91-.243.801-.009 1.242.495.45.495.45 1.386v.639q0 .873-.514 1.386-.512.504-1.44.504m5.594 0q-.603 0-1.053-.234a1.7 1.7 0 0 1-.684-.675 2.1 2.1 0 0 1-.243-1.026v-2.88q0-.594.243-1.026t.684-.666q.45-.243 1.053-.243.612 0 1.053.243.441.234.684.666t.243 1.026v2.88q0 .585-.243 1.026a1.7 1.7 0 0 1-.693.675q-.441.234-1.044.234m0-.693q.54 0 .864-.342.333-.351.333-.9v-2.88q0-.549-.333-.891-.324-.351-.864-.351t-.873.351q-.324.342-.324.891v2.88q0 .549.324.9.333.342.873.342m0-2.151a.54.54 0 0 1-.396-.153.57.57 0 0 1-.144-.405q0-.243.144-.387a.54.54 0 0 1 .396-.153q.243 0 .387.153a.5.5 0 0 1 .153.387.55.55 0 0 1-.153.405.5.5 0 0 1-.387.153m5.576 2.844q-.602 0-1.053-.234a1.7 1.7 0 0 1-.683-.675 2.1 2.1 0 0 1-.243-1.026v-2.88q0-.594.242-1.026.244-.432.684-.666.45-.243 1.053-.243.613 0 1.053.243.442.234.684.666.244.432.244 1.026v2.88q0 .585-.243 1.026a1.7 1.7 0 0 1-.694.675q-.441.234-1.044.234m0-.693q.54 0 .864-.342.334-.351.334-.9v-2.88q0-.549-.334-.891-.323-.351-.864-.351t-.873.351q-.323.342-.323.891v2.88q0 .549.324.9.332.342.872.342m0-2.151a.54.54 0 0 1-.396-.153.57.57 0 0 1-.144-.405q0-.243.144-.387a.54.54 0 0 1 .396-.153q.244 0 .387.153a.5.5 0 0 1 .153.387.55.55 0 0 1-.153.405.5.5 0 0 1-.387.153M177.45 65l1.71-6.57h1.089L181.95 65h-.819l-.432-1.746h-1.989L178.278 65zm1.422-2.43h1.656l-.504-2.025a26 26 0 0 1-.225-.963 13 13 0 0 1-.099-.504q-.018.117-.099.504t-.225.954z"/><path fill="#00E388" d="M255.837 68v-6.57h1.863q.9 0 1.404.45.513.45.513 1.251 0 .45-.189.783a1.27 1.27 0 0 1-.54.513q-.342.18-.828.171v-.135q.522-.009.9.198.387.207.594.594.216.387.216.918 0 .558-.234.972a1.6 1.6 0 0 1-.666.639q-.432.216-1.035.216zm.792-.729h1.116q.567 0 .891-.297.333-.306.333-.828 0-.54-.333-.873-.324-.342-.891-.342h-1.116zm0-3.042h1.062q.522 0 .819-.279.306-.279.306-.756t-.297-.756-.819-.279h-1.071zm-20.591 52.861a2.25 2.25 0 0 1-1.035-.225 1.63 1.63 0 0 1-.675-.648 2.1 2.1 0 0 1-.234-1.017v-2.97q0-.594.234-1.017.243-.423.675-.648a2.25 2.25 0 0 1 1.035-.225q.594 0 1.026.234.432.225.666.648t.234 1.008h-.81q0-.558-.297-.855-.288-.306-.819-.306t-.837.297q-.297.297-.297.855v2.979q0 .558.297.864.306.297.837.297t.819-.297q.297-.306.297-.864h.81q0 .576-.234 1.008a1.63 1.63 0 0 1-.666.657q-.432.225-1.026.225m9.712 8a2.25 2.25 0 0 1-1.035-.225 1.63 1.63 0 0 1-.675-.648 2.1 2.1 0 0 1-.234-1.017v-2.97q0-.594.234-1.017.243-.423.675-.648a2.25 2.25 0 0 1 1.035-.225q.594 0 1.026.234.432.225.666.648t.234 1.008h-.81q0-.558-.297-.855-.288-.306-.819-.306t-.837.297q-.297.297-.297.855v2.979q0 .558.297.864.306.297.837.297t.819-.297q.297-.306.297-.864h.81q0 .576-.234 1.008a1.63 1.63 0 0 1-.666.657q-.432.225-1.026.225m3.668-.09v-.828l2.007-2.133q.513-.549.747-.972a1.74 1.74 0 0 0 .234-.828q0-.549-.306-.864-.297-.315-.819-.315-.576 0-.909.324-.324.324-.324.891h-.81q.018-.594.27-1.026a1.75 1.75 0 0 1 .711-.675q.459-.234 1.062-.234.594 0 1.026.234.441.225.675.648t.234 1.008q0 .558-.297 1.107t-.972 1.251l-1.62 1.674h2.997V125zm-10.567-47v-6.57h1.863q.9 0 1.404.45.513.45.513 1.251 0 .45-.189.783a1.27 1.27 0 0 1-.54.513q-.342.18-.828.171v-.135q.522-.009.9.198.387.207.594.594.216.387.216.918 0 .558-.234.972a1.6 1.6 0 0 1-.666.639q-.432.216-1.035.216zm.792-.729h1.116q.567 0 .891-.297.333-.306.333-.828 0-.54-.333-.873-.324-.342-.891-.342h-1.116zm0-3.042h1.062q.522 0 .819-.279.306-.279.306-.756t-.297-.756-.819-.279h-1.071zM244.4 78v-.738h1.782v-5.157l-1.782 1.332v-.9l1.485-1.107h1.107v5.832h1.458V78z"/><path stroke="#969696" stroke-dasharray="2 2" d="m180 70 56 35m-56-35 16.5-14M230 75l-33.5-19M230 75l28-19"/><path stroke="#00E388" stroke-dasharray="2 2" d="M308 21.5 258 56m-22 49 24.5 15.5L308 85"/><path stroke="#969696" d="M53 105h255M53 56h255"/><rect width="4" height="4" x="178" y="68" fill="#595959" rx="2"/><rect width="4" height="4" x="234" y="103" fill="#00E388" rx="2"/><rect width="4" height="4" x="256" y="54" fill="#00E388" rx="2"/><rect width="4" height="4" x="247" y="111" fill="#fff" rx="2"/><rect width="4" height="4" x="221" y="95" fill="#fff" rx="2"/><rect width="4" height="4" x="242" y="64" fill="#fff" rx="2"/><rect width="4" height="4" x="270" y="44" fill="#fff" rx="2"/><rect width="4" height="4" x="82.5" y="159" fill="#595959" rx="2"/><path fill="#969696" d="m90.75 164 2.16-7h1.48l2.16 7h-.87l-.54-1.77h-2.98l-.54 1.77zm1.62-2.53h2.55l-1.2-3.96h-.14zm7.767.32v-.73h7.52v.73zm14.327 2.35q-1.25 0-1.99-.72-.74-.73-.74-2.12v-1.6q0-1.39.74-2.11.74-.73 1.99-.73 1.24 0 1.9.69.67.69.67 1.89v.05h-.83v-.08q0-.79-.43-1.29-.42-.51-1.31-.51t-1.39.55q-.5.54-.5 1.52v1.64q0 .98.5 1.53.5.54 1.39.54t1.31-.5q.43-.51.43-1.3v-.16h.83v.13q0 1.2-.67 1.89-.66.69-1.9.69m5.986-.05q-.53 0-.98-.23a1.7 1.7 0 0 1-.7-.68q-.25-.46-.25-1.11v-2.96h.79v2.9q0 .73.36 1.06.37.33.99.33.7 0 1.15-.46t.45-1.37v-2.46h.79V164h-.77v-.83h-.14q-.16.35-.55.64-.39.28-1.14.28m4.453-.09v-4.89h.77v.6h.14a.9.9 0 0 1 .4-.47q.27-.15.71-.15h.58v.72h-.63q-.53 0-.86.3-.32.29-.32.91V164zm3.97 0v-4.89h.77v.6h.14a.9.9 0 0 1 .4-.47q.27-.15.71-.15h.58v.72h-.63q-.53 0-.86.3-.32.29-.32.91V164zm6.033.14q-.74 0-1.3-.31a2.24 2.24 0 0 1-.87-.89q-.31-.57-.31-1.32v-.12q0-.76.31-1.33t.86-.88q.55-.32 1.26-.32.69 0 1.22.3.53.29.83.84t.3 1.29v.36h-3.99q.03.79.51 1.24.48.44 1.2.44.63 0 .97-.29t.52-.69l.68.33q-.15.31-.42.62-.26.31-.69.52-.42.21-1.08.21m-1.68-3.03h3.18q-.04-.68-.47-1.06-.42-.38-1.08-.38-.67 0-1.1.38t-.53 1.06m5.558 2.89v-4.89h.77v.83h.14q.16-.35.54-.63.39-.29 1.14-.29.55 0 .98.23.44.23.7.68t.26 1.11V164h-.79v-2.9q0-.73-.37-1.06-.36-.33-.98-.33-.71 0-1.16.46-.44.46-.44 1.37V164zm7.996 0q-.42 0-.65-.23-.22-.23-.22-.63v-3.34h-1.47v-.69h1.47v-1.74h.79v1.74h1.6v.69h-1.6v3.22q0 .3.29.3h1.09v.68zm5.738 0v-7h2.68q.63 0 1.12.25.5.24.79.69t.29 1.09v.13q0 .63-.3 1.09-.29.45-.79.69a2.5 2.5 0 0 1-1.11.24h-1.84V164zm.84-3.58h1.75q.67 0 1.06-.33.39-.34.39-.95v-.1q0-.61-.39-.94-.38-.34-1.06-.34h-1.75zm5.396 3.58v-4.89h.77v.6h.14a.9.9 0 0 1 .4-.47q.27-.15.71-.15h.58v.72h-.63q-.53 0-.86.3-.32.29-.32.91V164zm3.97 0v-4.89h.79V164zm.4-5.65a.62.62 0 0 1-.44-.17.58.58 0 0 1-.17-.43q0-.27.17-.44a.62.62 0 0 1 .44-.17q.26 0 .43.17t.17.44a.584.584 0 0 1-.6.6m4.501 5.79q-.71 0-1.28-.3-.56-.31-.89-.88-.32-.57-.32-1.35v-.11q0-.79.32-1.35.33-.57.89-.87.57-.31 1.28-.31.7 0 1.19.26.5.26.78.69.29.43.37.92l-.77.16a1.6 1.6 0 0 0-.24-.66q-.18-.3-.51-.48t-.81-.18q-.49 0-.88.22a1.64 1.64 0 0 0-.61.63q-.22.41-.22.98v.09q0 .57.22.98.23.41.61.63.39.22.88.22.73 0 1.11-.38.39-.38.48-.94l.78.17q-.11.48-.4.91a2.1 2.1 0 0 1-.79.69q-.49.26-1.19.26m6.166 0q-.74 0-1.3-.31a2.24 2.24 0 0 1-.87-.89q-.31-.57-.31-1.32v-.12q0-.76.31-1.33t.86-.88q.55-.32 1.26-.32.69 0 1.22.3.53.29.83.84t.3 1.29v.36h-3.99q.03.79.51 1.24.48.44 1.2.44.63 0 .97-.29t.52-.69l.68.33q-.15.31-.42.62-.26.31-.69.52-.42.21-1.08.21m-1.68-3.03h3.18q-.04-.68-.47-1.06-.42-.38-1.08-.38-.67 0-1.1.38t-.53 1.06"/><rect width="4" height="4" x="185.5" y="159" fill="#00E388" rx="2"/><path fill="#969696" d="M193.97 164v-.75h.98v-5.5h-.98V157h3.51q.61 0 1.08.22a1.7 1.7 0 0 1 .74.62q.27.39.27.92v.08q0 .49-.19.81-.19.31-.45.49a2 2 0 0 1-.51.25v.14q.25.06.52.24.27.17.45.49.19.32.19.81v.1q0 .57-.28.99-.27.41-.75.63-.47.21-1.08.21zm1.82-.76h1.59q.66 0 1.01-.31t.35-.84V162q0-.53-.35-.84t-1.01-.31h-1.59zm0-3.15h1.62q.6 0 .96-.3.36-.31.36-.81v-.1q0-.51-.36-.81-.35-.31-.96-.31h-1.62zm4.443 5.91 2.94-9h.79l-2.94 9zm7.231-1.86q-1.25 0-1.99-.72-.74-.73-.74-2.12v-1.6q0-1.39.74-2.11.74-.73 1.99-.73 1.24 0 1.9.69.67.69.67 1.89v.05h-.83v-.08q0-.79-.43-1.29-.42-.51-1.31-.51t-1.39.55q-.5.54-.5 1.52v1.64q0 .98.5 1.53.5.54 1.39.54t1.31-.5q.43-.51.43-1.3v-.16h.83v.13q0 1.2-.67 1.89-.66.69-1.9.69m6.552-2.35v-.73h7.52v.73zm14.117 2.35q-.76 0-1.36-.27t-.95-.81q-.34-.55-.34-1.37v-.21h.83v.21q0 .87.51 1.3.51.42 1.31.42.82 0 1.25-.37t.43-.93q0-.39-.2-.62a1.3 1.3 0 0 0-.54-.37 5 5 0 0 0-.82-.26l-.52-.13a6 6 0 0 1-1.08-.39 1.95 1.95 0 0 1-.74-.6q-.26-.38-.26-.97t.29-1.02q.3-.43.83-.66.54-.23 1.24-.23.71 0 1.27.25.57.24.89.72.33.47.33 1.19v.42h-.83v-.42q0-.51-.22-.82a1.24 1.24 0 0 0-.59-.46 2.3 2.3 0 0 0-.85-.15q-.69 0-1.11.31-.42.3-.42.86 0 .37.18.6t.51.38q.33.14.79.25l.52.13q.61.13 1.09.36.489.22.78.61.29.38.29 1t-.31 1.08-.88.72q-.561.25-1.32.25m5.833-.14q-.42 0-.65-.23-.22-.23-.22-.63v-3.34h-1.47v-.69h1.47v-1.74h.79v1.74h1.6v.69h-1.6v3.22q0 .3.29.3h1.09v.68zm5.083.14q-.74 0-1.31-.31a2.26 2.26 0 0 1-.88-.87q-.31-.57-.31-1.34v-.13q0-.76.31-1.33.32-.57.88-.88.57-.31 1.31-.31t1.3.31q.57.31.88.88.32.57.32 1.33v.13q0 .77-.32 1.34-.31.56-.88.87-.56.31-1.3.31m0-.71q.78 0 1.24-.49.47-.5.47-1.34v-.09q0-.84-.47-1.33-.46-.5-1.24-.5-.77 0-1.24.5-.47.49-.47 1.33v.09q0 .84.47 1.34.47.49 1.24.49m4.122 2.57v-6.89h.77v.81h.14a1.8 1.8 0 0 1 .61-.66q.43-.29 1.19-.29.63 0 1.15.31.53.3.84.86.32.56.32 1.35v.13q0 .78-.31 1.35t-.84.87q-.52.3-1.16.3-.51 0-.87-.14a1.7 1.7 0 0 1-.57-.34 1.8 1.8 0 0 1-.34-.43h-.14V166zm2.5-2.56q.76 0 1.23-.48.48-.49.48-1.36v-.09q0-.87-.48-1.35-.47-.49-1.23-.49-.75 0-1.24.49-.48.48-.48 1.35v.09q0 .87.48 1.36.49.48 1.24.48m6.874.56v-7h2.68q.63 0 1.12.25.5.24.79.69t.29 1.09v.13q0 .63-.3 1.09-.29.45-.79.69a2.5 2.5 0 0 1-1.11.24h-1.84V164zm.84-3.58h1.75q.67 0 1.06-.33.39-.34.39-.95v-.1q0-.61-.39-.94-.38-.34-1.06-.34h-1.75zm5.396 3.58v-4.89h.77v.6h.14a.9.9 0 0 1 .4-.47q.27-.15.71-.15h.58v.72h-.63q-.53 0-.86.3-.32.29-.32.91V164zm3.969 0v-4.89h.79V164zm.4-5.65a.62.62 0 0 1-.44-.17.58.58 0 0 1-.17-.43q0-.27.17-.44a.62.62 0 0 1 .44-.17q.26 0 .43.17t.17.44a.58.58 0 0 1-.6.6m4.501 5.79q-.71 0-1.28-.3-.56-.31-.89-.88-.32-.57-.32-1.35v-.11q0-.79.32-1.35.33-.57.89-.87.57-.31 1.28-.31.7 0 1.19.26.501.26.78.69.29.43.37.92l-.77.16a1.6 1.6 0 0 0-.24-.66q-.18-.3-.51-.48t-.81-.18q-.49 0-.88.22a1.64 1.64 0 0 0-.61.63q-.22.41-.22.98v.09q0 .57.22.98.23.41.61.63.39.22.88.22.73 0 1.11-.38.39-.38.48-.94l.78.17q-.11.48-.4.91a2.1 2.1 0 0 1-.79.69q-.49.26-1.19.26m6.167 0q-.74 0-1.3-.31a2.24 2.24 0 0 1-.87-.89q-.31-.57-.31-1.32v-.12q0-.76.31-1.33t.86-.88q.55-.32 1.26-.32.69 0 1.22.3.53.29.83.84t.3 1.29v.36h-3.99q.03.79.51 1.24.48.44 1.2.44.63 0 .97-.29t.52-.69l.68.33q-.15.31-.42.62-.26.31-.69.52-.42.21-1.08.21m-1.68-3.03h3.18q-.04-.68-.47-1.06-.42-.38-1.08-.38-.67 0-1.1.38t-.53 1.06"/><rect width="4" height="4" x="112.5" y="177" fill="#00E388" rx="2"/><path fill="#969696" d="M120.97 182v-.75h.98v-5.5h-.98V175h3.51q.61 0 1.08.22a1.7 1.7 0 0 1 .74.62q.27.39.27.92v.08q0 .49-.19.81-.19.31-.45.49a2 2 0 0 1-.51.25v.14q.25.06.52.24.27.17.45.49.19.32.19.81v.1q0 .57-.28.99-.27.41-.75.63-.47.21-1.08.21zm1.82-.76h1.59q.66 0 1.01-.31t.35-.84V180q0-.53-.35-.84t-1.01-.31h-1.59zm0-3.15h1.62q.6 0 .96-.3.36-.31.36-.81v-.1q0-.51-.36-.81-.35-.31-.96-.31h-1.62zm7.091 3.91v-6.46h-.15l-1.36 2.49h-.88l1.67-3.03h1.53v7zm1.81 2 2.94-9h.79l-2.94 9zm4.371-2v-.75h.98v-5.5h-.98V175h3.51q.61 0 1.08.22a1.7 1.7 0 0 1 .74.62q.27.39.27.92v.08q0 .49-.19.81-.189.31-.45.49a2 2 0 0 1-.51.25v.14q.25.06.52.24.27.17.45.49.19.32.19.81v.1q0 .57-.28.99-.27.41-.75.63-.47.21-1.08.21zm1.82-.76h1.59q.66 0 1.01-.31t.35-.84V180q0-.53-.35-.84t-1.01-.31h-1.59zm0-3.15h1.62q.6 0 .96-.3.36-.31.36-.81v-.1q0-.51-.36-.81-.35-.31-.96-.31h-1.62zm5.052 3.91v-.73q0-.75.26-1.2.27-.45.74-.72.48-.28 1.14-.48l.55-.17q.45-.14.79-.34a1.6 1.6 0 0 0 .53-.52q.19-.32.19-.78v-.04q0-.66-.46-1.04-.46-.39-1.18-.39-.76 0-1.24.41-.48.4-.48 1.22v.14h-.8v-.13q0-.76.33-1.29t.9-.8q.57-.28 1.29-.28t1.27.27q.56.27.87.75t.31 1.12v.09q0 .68-.27 1.13a2.1 2.1 0 0 1-.75.72 5.2 5.2 0 0 1-1.11.48l-.54.17a5 5 0 0 0-.85.34q-.33.17-.5.44t-.17.73v.17h4.13v.73zm5.695 2 2.94-9h.79l-2.94 9zm7.231-1.86q-1.25 0-1.99-.72-.74-.73-.74-2.12v-1.6q0-1.39.74-2.11.74-.73 1.99-.73 1.24 0 1.9.69.67.69.67 1.89v.05h-.83v-.08q0-.79-.43-1.29-.42-.51-1.31-.51t-1.39.55q-.5.54-.5 1.52v1.64q0 .98.5 1.53.5.54 1.39.54t1.31-.5q.43-.51.43-1.3v-.16h.83v.13q0 1.2-.67 1.89-.66.69-1.9.69m5.856-.14v-6.46h-.15l-1.36 2.49h-.88l1.67-3.03h1.53v7zm1.81 2 2.94-9h.79l-2.94 9zm7.231-1.86q-1.25 0-1.99-.72-.74-.73-.74-2.12v-1.6q0-1.39.74-2.11.74-.73 1.99-.73 1.24 0 1.9.69.67.69.67 1.89v.05h-.83v-.08q0-.79-.43-1.29-.42-.51-1.31-.51t-1.39.55q-.5.54-.5 1.52v1.64q0 .98.5 1.53.5.54 1.39.54t1.31-.5q.43-.51.43-1.3v-.16h.83v.13q0 1.2-.67 1.89-.66.69-1.9.69m3.816-.14v-.73q0-.75.26-1.2.27-.45.74-.72.48-.28 1.14-.48l.55-.17q.45-.14.79-.34a1.6 1.6 0 0 0 .53-.52q.19-.32.19-.78v-.04q0-.66-.46-1.04-.46-.39-1.18-.39-.76 0-1.24.41-.48.4-.48 1.22v.14h-.8v-.13q0-.76.33-1.29t.9-.8q.57-.28 1.29-.28t1.27.27q.56.27.87.75t.31 1.12v.09q0 .68-.27 1.13a2.1 2.1 0 0 1-.75.72 5.2 5.2 0 0 1-1.11.48l-.54.17q-.51.16-.85.34-.33.17-.5.44t-.17.73v.17h4.13v.73zm8.961-2.21v-.73h7.52v.73zM195.33 182v-7h.84v6.24h3.54v.76zm5.689 0v-4.89h.79V182zm.4-5.65a.62.62 0 0 1-.44-.17.58.58 0 0 1-.17-.43q0-.27.17-.44a.62.62 0 0 1 .44-.17q.26 0 .43.17t.17.44a.58.58 0 0 1-.6.6m2.252 5.65v-4.89h.77v.61h.14q.14-.26.46-.48t.9-.22q.57 0 .92.25.36.25.52.61h.14q.17-.36.51-.61.35-.25.97-.25.49 0 .86.2t.58.58q.22.37.22.89V182h-.79v-3.24q0-.49-.29-.77-.28-.29-.79-.29-.54 0-.89.35-.34.35-.34 1.01V182h-.79v-3.24q0-.49-.29-.77-.28-.29-.79-.29-.54 0-.89.35-.34.35-.34 1.01V182zm8.803 0v-4.89h.79V182zm.4-5.65a.62.62 0 0 1-.44-.17.58.58 0 0 1-.17-.43q0-.27.17-.44a.62.62 0 0 1 .44-.17q.26 0 .43.17t.17.44a.584.584 0 0 1-.6.6m4.051 5.65q-.42 0-.65-.23-.22-.23-.22-.63v-3.34h-1.47v-.69h1.47v-1.74h.79v1.74h1.6v.69h-1.6v3.22q0 .3.29.3h1.09v.68zm5.738 0v-7h2.68q.63 0 1.12.25.5.24.79.69t.29 1.09v.13q0 .63-.3 1.09-.29.45-.79.69a2.5 2.5 0 0 1-1.11.24h-1.84V182zm.84-3.58h1.75q.67 0 1.06-.33.39-.34.39-.95v-.1q0-.61-.39-.94-.38-.34-1.06-.34h-1.75zm5.396 3.58v-4.89h.77v.6h.14a.9.9 0 0 1 .4-.47q.27-.15.71-.15h.58v.72h-.63q-.53 0-.86.3-.32.29-.32.91V182zm3.97 0v-4.89h.79V182zm.4-5.65a.62.62 0 0 1-.44-.17.58.58 0 0 1-.17-.43q0-.27.17-.44a.62.62 0 0 1 .44-.17q.26 0 .43.17t.17.44a.584.584 0 0 1-.6.6m4.501 5.79q-.71 0-1.28-.3-.56-.31-.89-.88-.32-.57-.32-1.35v-.11q0-.79.32-1.35.33-.57.89-.87.57-.31 1.28-.31.7 0 1.19.26.5.26.78.69.29.43.37.92l-.77.16a1.6 1.6 0 0 0-.24-.66q-.18-.3-.51-.48t-.81-.18q-.49 0-.88.22a1.64 1.64 0 0 0-.61.63q-.22.41-.22.98v.09q0 .57.22.98.23.41.61.63.39.22.88.22.73 0 1.11-.38.39-.38.48-.94l.78.17q-.11.48-.4.91a2.1 2.1 0 0 1-.79.69q-.49.26-1.19.26m6.166 0q-.74 0-1.3-.31a2.24 2.24 0 0 1-.87-.89q-.31-.57-.31-1.32v-.12q0-.76.31-1.33t.86-.88q.55-.32 1.26-.32.69 0 1.22.3.53.29.83.84t.3 1.29v.36h-3.99q.03.79.51 1.24.48.44 1.2.44.63 0 .97-.29t.52-.69l.68.33q-.15.31-.42.62-.26.31-.69.52-.42.21-1.08.21m-1.68-3.03h3.18q-.04-.68-.47-1.06-.42-.38-1.08-.38-.67 0-1.1.38t-.53 1.06"/><path fill="#00E388" d="M277.851 54v-6.57h1.863q.9 0 1.404.45.513.45.513 1.251 0 .45-.189.783a1.27 1.27 0 0 1-.54.513q-.342.18-.828.171v-.135q.522-.009.9.198.387.207.594.594.216.387.216.918 0 .558-.234.972a1.6 1.6 0 0 1-.666.639q-.432.216-1.035.216zm.792-.729h1.116q.567 0 .891-.297.333-.306.333-.828 0-.54-.333-.873-.324-.342-.891-.342h-1.116zm0-3.042h1.062q.522 0 .819-.279.306-.279.306-.756t-.297-.756-.819-.279h-1.071zM283.418 54v-.828l2.007-2.133q.513-.549.747-.972a1.74 1.74 0 0 0 .234-.828q0-.549-.306-.864-.297-.315-.819-.315-.576 0-.909.324-.324.324-.324.891h-.81q.018-.594.27-1.026a1.75 1.75 0 0 1 .711-.675q.459-.234 1.062-.234.594 0 1.026.234.441.225.675.648t.234 1.008q0 .558-.297 1.107t-.972 1.251l-1.62 1.674h2.997V54zm-73.668 49.09a2.25 2.25 0 0 1-1.035-.225 1.63 1.63 0 0 1-.675-.648 2.1 2.1 0 0 1-.234-1.017v-2.97q0-.594.234-1.017.243-.423.675-.648a2.25 2.25 0 0 1 1.035-.225q.594 0 1.026.234.432.225.666.648t.234 1.008h-.81q0-.558-.297-.855-.288-.306-.819-.306t-.837.297q-.297.297-.297.855v2.979q0 .558.297.864.306.297.837.297t.819-.297q.297-.306.297-.864h.81q0 .576-.234 1.008a1.63 1.63 0 0 1-.666.657q-.432.225-1.026.225m3.65-.09v-.738h1.782v-5.157l-1.782 1.332v-.9l1.485-1.107h1.107v5.832h1.458V103z"/></svg>