<svg width="555" height="265" viewBox="0 0 555 265" fill="none" xmlns="http://www.w3.org/2000/svg">
    <rect width="554" height="264" fill="black"/>
    <path d="M417.261 184.291V212.891H443.798C445.173 212.891 445.862 212.252 445.862 210.975V186.209C445.862 184.93 445.173 184.291 443.798 184.291H417.261ZM263.942 184.291V215.103H290.182C291.559 215.103 292.246 214.464 292.246 213.186V186.209C292.246 184.93 291.558 184.291 290.182 184.291H263.942ZM263.942 263.458H246.545V169.844L285.907 169.254C293.77 169.057 299.716 170.827 303.746 174.562C307.775 178.297 309.791 183.702 309.791 190.778V208.174C309.791 212.499 308.905 216.331 307.137 219.673C305.367 223.015 302.689 225.619 299.102 227.486C295.515 229.353 291.116 230.288 285.907 230.288H263.942V263.458ZM388.218 263.458H370.971L366.127 240.902H331.984L326.449 263.458H310.232L330.871 185.323C332.051 181.097 333.279 177.805 334.557 175.446C335.834 173.088 337.653 171.441 340.011 170.508C342.37 169.573 345.614 169.156 349.742 169.254L367.137 169.844L388.218 263.458ZM345.614 186.503L335.666 226.012H362.979L353.87 184.733H347.383C346.793 184.733 346.4 184.857 346.203 185.103C346.007 185.348 345.81 185.815 345.614 186.503ZM498.933 263.458H481.685V169.844H498.933V208.616H516.182C516.87 208.616 517.312 208.469 517.509 208.174C517.705 207.879 517.902 207.437 518.098 206.848L533.431 169.844H550.826L536.674 203.309C535.396 206.258 534.217 208.714 533.135 210.68C532.054 212.646 530.826 214.145 529.451 215.176C528.968 215.538 528.434 215.861 527.848 216.145C529.881 216.976 531.57 218.324 532.915 220.189C534.438 222.302 536.134 225.324 538.001 229.256L554.217 263.458H535.789L518.098 225.57C517.902 224.882 517.705 224.415 517.509 224.169C517.312 223.924 516.92 223.801 516.33 223.801H498.933V263.458ZM189.494 208.616H207.332C215.194 208.616 221.189 210.459 225.317 214.145C229.445 217.83 231.509 223.162 231.509 230.14V242.524C231.509 249.6 229.469 255.005 225.391 258.74C221.312 262.475 215.341 264.244 207.479 264.048L171.802 263.458V248.421H211.902C213.18 248.421 213.819 247.733 213.819 246.356V226.307C213.819 224.931 213.18 224.243 211.902 224.243H193.916C186.054 224.243 180.082 222.425 176.004 218.789C171.925 215.152 169.886 209.796 169.886 202.719V190.925C169.886 183.948 171.95 178.542 176.078 174.709C180.206 170.876 186.2 169.057 194.063 169.254L228.413 169.844V184.881H189.494C188.216 184.881 187.577 185.569 187.577 186.945V206.552C187.577 207.929 188.216 208.616 189.494 208.616ZM417.261 263.458H399.865V169.844L439.522 169.254C447.385 169.057 453.355 170.827 457.434 174.562C461.512 178.297 463.552 183.702 463.552 190.778V205.668C463.552 211.368 462.004 216.135 458.908 219.967C456.803 222.574 454.028 224.521 450.582 225.81L450.621 225.795L450.601 225.822C451.298 226.267 451.93 226.773 452.496 227.339C454.265 229.108 455.787 231.81 457.066 235.448L466.943 263.458H449.547L438.343 229.993C438.048 229.206 437.778 228.642 437.531 228.297C437.286 227.953 436.721 227.781 435.837 227.781H417.261V263.458Z" fill="white"/>
    <path d="M0.34668 149.78L228.214 74.332L230.546 81.4149L2.67866 156.864L0.34668 149.78Z" fill="#5A72F1"/>
    <path d="M156.712 2.82965L81.2633 230.697L74.1804 228.365L149.629 0.498047L156.712 2.82965Z" fill="#00E61A"/>
    <path d="M80.3601 75.2354L156.189 151.064L150.913 156.34L75.0842 80.5112L80.3601 75.2354Z" fill="#FF6A00"/>
</svg>
