<svg xmlns="http://www.w3.org/2000/svg" width="56" height="56" fill="none"><path fill="url(#a)" d="M0 0h56v56H0z"/><path fill="#fff" fill-rule="evenodd" d="M37.61 24.716c.441-2.948-1.805-4.533-4.873-5.59l.995-3.994-2.43-.605-.97 3.889c-.638-.16-1.294-.31-1.947-.459l.977-3.913-2.43-.607-.996 3.993a78 78 0 0 1-1.552-.366l.003-.012-3.353-.837-.647 2.596s1.805.413 1.767.439c.984.246 1.161.897 1.131 1.414l-1.133 4.55q.104.023.253.08l-.257-.064-1.59 6.373c-.12.299-.425.747-1.114.577.025.035-1.767-.44-1.767-.44l-1.206 2.781 3.164.79c.588.147 1.164.302 1.731.447l-1.006 4.038 2.43.605.995-3.994q.994.267 1.938.502l-.993 3.977 2.43.605 1.005-4.03c4.146.784 7.262.468 8.574-3.281 1.058-3.018-.052-4.76-2.233-5.895 1.589-.366 2.784-1.41 3.104-3.57m-5.555 7.787c-.75 3.02-5.833 1.387-7.481.978l1.336-5.351c1.648.412 6.931 1.226 6.145 4.373m.752-7.831c-.685 2.746-4.915 1.35-6.286 1.008l1.21-4.851c1.37.341 5.79.979 5.076 3.843" clip-rule="evenodd"/><defs><linearGradient id="a" x1="27.985" x2="27.985" y1="-.013" y2="55.994" gradientUnits="userSpaceOnUse"><stop stop-color="#F9AA4B"/><stop offset="1" stop-color="#F7931A"/></linearGradient></defs></svg>