<svg xmlns="http://www.w3.org/2000/svg" width="24" height="24" fill="none"><path fill="#969696" fill-rule="evenodd" d="M14.286 4.3H5.714c-.043 0-.127.017-.225.132A.88.88 0 0 0 5.3 5v10c0 .254.089.45.19.568.097.115.181.132.224.132H8V9c0-1.105.768-2 1.714-2H14.7V5a.88.88 0 0 0-.19-.568c-.097-.115-.181-.132-.224-.132M16 7V5c0-1.105-.768-2-1.714-2H5.714C4.768 3 4 3.895 4 5v10c0 1.105.768 2 1.714 2H8v2c0 1.105.768 2 1.714 2h8.572c.947 0 1.714-.895 1.714-2V9c0-1.105-.767-2-1.714-2zM9.714 8.3h8.572c.043 0 .127.017.225.132.1.117.189.314.189.568v10c0 .254-.089.45-.19.568-.097.115-.181.132-.224.132H9.714c-.043 0-.127-.017-.225-.132A.88.88 0 0 1 9.3 19V9c0-.254.089-.45.19-.568.097-.115.181-.132.224-.132" clip-rule="evenodd"/></svg>