<svg width="102" height="48" viewBox="0 0 102 48" fill="none" xmlns="http://www.w3.org/2000/svg">
    <path d="M75.773 33.4495V38.5779H80.5958C80.8458 38.5779 80.9709 38.4634 80.9709 38.2343V33.7933C80.9709 33.564 80.8457 33.4495 80.5958 33.4495H75.773ZM47.9076 33.4495V38.9746H52.6768C52.9269 38.9746 53.0519 38.86 53.0519 38.6309V33.7933C53.0519 33.564 52.9268 33.4495 52.6768 33.4495H47.9076ZM47.9076 47.6455H44.7458V30.8589L51.8998 30.7531C53.3289 30.7178 54.4094 31.0351 55.1419 31.7049C55.8742 32.3745 56.2405 33.3439 56.2405 34.6126V37.7321C56.2405 38.5076 56.0796 39.1949 55.7581 39.794C55.4365 40.3933 54.9498 40.8603 54.2979 41.1951C53.6459 41.5298 52.8465 41.6975 51.8998 41.6975H47.9076V47.6455ZM70.4945 47.6455H67.3598L66.4795 43.6008H60.274L59.268 47.6455H56.3207L60.0718 33.6345C60.2862 32.8768 60.5095 32.2864 60.7417 31.8634C60.9738 31.4406 61.3044 31.1452 61.733 30.9779C62.1617 30.8103 62.7512 30.7355 63.5015 30.7531L66.6631 30.8589L70.4945 47.6455ZM62.7512 33.846L60.9433 40.9307H65.9073L64.2517 33.5288H63.0728C62.9656 33.5288 62.8941 33.551 62.8584 33.595C62.8227 33.639 62.7869 33.7228 62.7512 33.846ZM90.6166 47.6455H87.4818V30.8589H90.6166V37.8114H93.7514C93.8765 37.8114 93.9568 37.7849 93.9925 37.7321C94.0283 37.6792 94.0641 37.5999 94.0997 37.4943L96.8863 30.8589H100.048L97.4758 36.8598C97.2435 37.3885 97.0293 37.829 96.8327 38.1815C96.6362 38.5339 96.4129 38.8027 96.163 38.9877C96.0752 39.0527 95.9781 39.1105 95.8717 39.1614C96.2412 39.3104 96.5481 39.5522 96.7926 39.8866C97.0694 40.2655 97.3776 40.8074 97.717 41.5124L100.664 47.6455H97.315L94.0997 40.8514C94.0641 40.7281 94.0283 40.6444 93.9925 40.6003C93.9568 40.5563 93.8855 40.5343 93.7783 40.5343H90.6166V47.6455ZM34.3769 37.8114H37.6189C39.0479 37.8114 40.1374 38.1418 40.8878 38.8027C41.638 39.4636 42.0131 40.4197 42.0131 41.671V43.8916C42.0131 45.1605 41.6423 46.1297 40.9012 46.7994C40.1598 47.4691 39.0746 47.7864 37.6456 47.7512L31.1616 47.6455V44.949H38.4495C38.6818 44.949 38.7979 44.8257 38.7979 44.5788V40.9837C38.7979 40.7368 38.6818 40.6136 38.4495 40.6136H35.1806C33.7517 40.6136 32.6664 40.2875 31.9252 39.6355C31.1839 38.9833 30.8132 38.0229 30.8132 36.754V34.6391C30.8132 33.3879 31.1884 32.4186 31.9387 31.7312C32.6889 31.0439 33.7784 30.7178 35.2074 30.7531L41.4504 30.8589V33.5552H34.3769C34.1446 33.5552 34.0286 33.6786 34.0286 33.9254V37.4413C34.0286 37.6881 34.1446 37.8114 34.3769 37.8114ZM75.773 47.6455H72.6112V30.8589L79.8187 30.7531C81.2478 30.7178 82.3329 31.0351 83.0742 31.7049C83.8154 32.3745 84.1862 33.3439 84.1862 34.6126V37.2828C84.1862 38.3049 83.9048 39.1596 83.3422 39.8468C82.9596 40.3143 82.4551 40.6634 81.8289 40.8945L81.8359 40.8919L81.8323 40.8966C81.959 40.9765 82.0738 41.0672 82.1767 41.1688C82.4982 41.4859 82.7749 41.9705 83.0073 42.6227L84.8024 47.6455H81.6407L79.6045 41.6447C79.5508 41.5036 79.5017 41.4024 79.457 41.3406C79.4123 41.2789 79.3096 41.2481 79.149 41.2481H75.773V47.6455Z" fill="white"/>
    <path d="M0 27.2612L41.4142 13.732L41.838 15.002L0.423829 28.5313L0 27.2612Z" fill="#5A72F1"/>
    <path d="M28.4187 0.910403L14.7061 41.771L13.4188 41.3528L27.1314 0.49231L28.4187 0.910403Z" fill="#00E61A"/>
    <path d="M14.5423 13.894L28.3239 27.4914L27.3651 28.4374L13.5835 14.84L14.5423 13.894Z" fill="#FF6A00"/>
</svg>
