<svg width="17" height="16" viewBox="0 0 17 16" fill="none" xmlns="http://www.w3.org/2000/svg">
    <path d="M5.69985 2H3.16652C2.79315 2 2.60647 2 2.46386 2.07266C2.33842 2.13658 2.23643 2.23856 2.17252 2.36401C2.09985 2.50661 2.09985 2.6933 2.09985 3.06667V5.6C2.09985 5.97337 2.09985 6.16005 2.17252 6.30266C2.23643 6.4281 2.33842 6.53009 2.46386 6.594C2.60647 6.66667 2.79315 6.66667 3.16652 6.66667H5.69985C6.07322 6.66667 6.25991 6.66667 6.40251 6.594C6.52796 6.53009 6.62994 6.4281 6.69386 6.30266C6.76652 6.16005 6.76652 5.97337 6.76652 5.6V3.06667C6.76652 2.6933 6.76652 2.50661 6.69386 2.36401C6.62994 2.23856 6.52796 2.13658 6.40251 2.07266C6.25991 2 6.07322 2 5.69985 2Z"
          stroke="#1F262B" stroke-width="1.5" stroke-linecap="round" stroke-linejoin="round"/>
    <path d="M13.0332 2H10.4999C10.1265 2 9.9398 2 9.79719 2.07266C9.67175 2.13658 9.56977 2.23856 9.50585 2.36401C9.43319 2.50661 9.43319 2.6933 9.43319 3.06667V5.6C9.43319 5.97337 9.43319 6.16005 9.50585 6.30266C9.56977 6.4281 9.67175 6.53009 9.79719 6.594C9.9398 6.66667 10.1265 6.66667 10.4999 6.66667H13.0332C13.4066 6.66667 13.5932 6.66667 13.7358 6.594C13.8613 6.53009 13.9633 6.4281 14.0272 6.30266C14.0999 6.16005 14.0999 5.97337 14.0999 5.6V3.06667C14.0999 2.6933 14.0999 2.50661 14.0272 2.36401C13.9633 2.23856 13.8613 2.13658 13.7358 2.07266C13.5932 2 13.4066 2 13.0332 2Z"
          stroke="#1F262B" stroke-width="1.5" stroke-linecap="round" stroke-linejoin="round"/>
    <path d="M13.0332 9.33333H10.4999C10.1265 9.33333 9.9398 9.33333 9.79719 9.406C9.67175 9.46991 9.56977 9.5719 9.50585 9.69734C9.43319 9.83995 9.43319 10.0266 9.43319 10.4V12.9333C9.43319 13.3067 9.43319 13.4934 9.50585 13.636C9.56977 13.7614 9.67175 13.8634 9.79719 13.9273C9.9398 14 10.1265 14 10.4999 14H13.0332C13.4066 14 13.5932 14 13.7358 13.9273C13.8613 13.8634 13.9633 13.7614 14.0272 13.636C14.0999 13.4934 14.0999 13.3067 14.0999 12.9333V10.4C14.0999 10.0266 14.0999 9.83995 14.0272 9.69734C13.9633 9.5719 13.8613 9.46991 13.7358 9.406C13.5932 9.33333 13.4066 9.33333 13.0332 9.33333Z"
          stroke="#1F262B" stroke-width="1.5" stroke-linecap="round" stroke-linejoin="round"/>
    <path d="M5.69985 9.33333H3.16652C2.79315 9.33333 2.60647 9.33333 2.46386 9.406C2.33842 9.46991 2.23643 9.5719 2.17252 9.69734C2.09985 9.83995 2.09985 10.0266 2.09985 10.4V12.9333C2.09985 13.3067 2.09985 13.4934 2.17252 13.636C2.23643 13.7614 2.33842 13.8634 2.46386 13.9273C2.60647 14 2.79315 14 3.16652 14H5.69985C6.07322 14 6.25991 14 6.40251 13.9273C6.52796 13.8634 6.62994 13.7614 6.69386 13.636C6.76652 13.4934 6.76652 13.3067 6.76652 12.9333V10.4C6.76652 10.0266 6.76652 9.83995 6.69386 9.69734C6.62994 9.5719 6.52796 9.46991 6.40251 9.406C6.25991 9.33333 6.07322 9.33333 5.69985 9.33333Z"
          stroke="#1F262B" stroke-width="1.5" stroke-linecap="round" stroke-linejoin="round"/>
</svg>
