<svg width="40" height="40" viewBox="0 0 40 40" fill="none" xmlns="http://www.w3.org/2000/svg">
    <g clip-path="url(#clip0_414_28644)">
        <g clip-path="url(#clip1_414_28644)">
            <path d="M20 40C31.0457 40 40 31.0457 40 20C40 8.9543 31.0457 0 20 0C8.9543 0 0 8.9543 0 20C0 31.0457 8.9543 40 20 40Z"
                  fill="#F9FAFB"/>
            <path d="M39.5 20C39.5 30.7696 30.7696 39.5 20 39.5C9.23044 39.5 0.5 30.7696 0.5 20C0.5 9.23044 9.23044 0.5 20 0.5C30.7696 0.5 39.5 9.23044 39.5 20Z"
                  stroke="black" stroke-opacity="0.1"/>
            <path d="M11.4482 20.2541L20.097 25.2752L21.5397 14.6172L11.4482 20.2541Z" fill="#393939"/>
            <path d="M20.0968 6.1582L15.999 20.6039L28.7445 20.2537L20.0968 6.1582Z" fill="#343434"/>
            <path d="M20.097 6.1582L11.4482 20.2537L20.097 16.3896V6.1582Z" fill="#8C8C8C"/>
            <path d="M20.097 33.8363L20.3097 27.0005L11.4482 21.8643L20.097 33.8363Z" fill="#8C8C8C"/>
            <path d="M20.0967 26.8842V33.8363L28.7501 21.8643L20.0967 26.8842Z" fill="#3C3C3B"/>
            <path d="M20.0967 25.2746L28.7443 20.2534L20.0967 16.3916V25.2746Z" fill="#141414"/>
        </g>
    </g>
    <defs>
        <clipPath id="clip0_414_28644">
            <rect width="40" height="40" fill="white"/>
        </clipPath>
        <clipPath id="clip1_414_28644">
            <rect width="40" height="40" fill="white"/>
        </clipPath>
    </defs>
</svg>
