<svg xmlns="http://www.w3.org/2000/svg" width="360" height="160" fill="none"><path fill="url(#a)" d="M0 0h255v20H0z" transform="matrix(1 0 0 -1 53 106)"/><path stroke="#969696" d="m53 127 56-66.5 33 13 32.5-28"/><path fill="#4B4B4B" d="M52 12h1v116h-1zm1 116v-1h255v1z"/><path fill="#969696" d="m177.45 61 1.71-6.57h1.089L181.95 61h-.819l-.432-1.746h-1.989L178.278 61zm1.422-2.43h1.656l-.504-2.025a26 26 0 0 1-.225-.963 13 13 0 0 1-.099-.504q-.018.117-.099.504t-.225.954zM177.837 15V8.43h1.863q.9 0 1.404.45.513.45.513 1.251 0 .45-.189.783a1.27 1.27 0 0 1-.54.513q-.342.18-.828.171v-.135q.522-.009.9.198.387.207.594.594.216.387.216.918 0 .558-.234.972a1.6 1.6 0 0 1-.666.639q-.432.216-1.035.216zm.792-.729h1.116q.567 0 .891-.297.333-.306.333-.828 0-.54-.333-.873-.324-.342-.891-.342h-1.116zm0-3.042h1.062q.522 0 .819-.279.306-.279.306-.756t-.297-.756-.819-.279h-1.071z"/><path fill="#00E388" d="M252.765 98v-.72h3.87V98zm3.87-1.71-3.87-1.935v-.9l3.87-1.935v.783l-2.79 1.368a7 7 0 0 1-.324.144q-.144.054-.216.072.081.018.234.081.153.054.306.135l2.79 1.377zm3.677 1.8a2.25 2.25 0 0 1-1.035-.225 1.63 1.63 0 0 1-.675-.648 2.1 2.1 0 0 1-.234-1.017v-2.97q0-.594.234-1.017.243-.423.675-.648a2.25 2.25 0 0 1 1.035-.225q.594 0 1.026.234.432.225.666.648t.234 1.008h-.81q0-.558-.297-.855-.288-.306-.819-.306t-.837.297q-.297.297-.297.855V96.2q0 .558.297.864.306.297.837.297t.819-.297q.297-.306.297-.864h.81q0 .576-.234 1.008a1.63 1.63 0 0 1-.666.657q-.432.225-1.026.225"/><path stroke="#969696" stroke-dasharray="2 2" d="m174.5 45.5 18.5-17L260.5 86"/><path stroke="#00E388" stroke-dasharray="2 2" d="m261 86 17.5 14.5L308 91"/><path stroke="#00E388" d="M53 86h255"/><rect width="4" height="4" x="178" y="64" fill="#595959" rx="2"/><rect width="4" height="4" x="178" y="18" fill="#00E388" rx="2"/><rect width="4" height="4" x="259" y="84" fill="#00E388" rx="2"/><rect width="4" height="4" x="83" y="139" fill="#595959" rx="2"/><path fill="#969696" d="m91.25 144 2.16-7h1.48l2.16 7h-.87l-.54-1.77h-2.98l-.54 1.77zm1.62-2.53h2.55l-1.2-3.96h-.14zm7.767.32v-.73h7.52v.73zm14.327 2.35q-1.25 0-1.99-.72-.74-.73-.74-2.12v-1.6q0-1.39.74-2.11.74-.73 1.99-.73 1.24 0 1.9.69.67.69.67 1.89v.05h-.83v-.08q0-.79-.43-1.29-.42-.51-1.31-.51t-1.39.55q-.5.54-.5 1.52v1.64q0 .98.5 1.53.5.54 1.39.54t1.31-.5q.43-.51.43-1.3v-.16h.83v.13q0 1.2-.67 1.89-.66.69-1.9.69m5.986-.05q-.53 0-.98-.23a1.7 1.7 0 0 1-.7-.68q-.25-.46-.25-1.11v-2.96h.79v2.9q0 .73.36 1.06.37.33.99.33.7 0 1.15-.46t.45-1.37v-2.46h.79V144h-.77v-.83h-.14q-.16.35-.55.64-.39.28-1.14.28m4.453-.09v-4.89h.77v.6h.14a.9.9 0 0 1 .4-.47q.27-.15.71-.15h.58v.72h-.63q-.53 0-.86.3-.32.29-.32.91V144zm3.97 0v-4.89h.77v.6h.14a.9.9 0 0 1 .4-.47q.27-.15.71-.15h.58v.72h-.63q-.53 0-.86.3-.32.29-.32.91V144zm6.033.14q-.74 0-1.3-.31a2.24 2.24 0 0 1-.87-.89q-.31-.57-.31-1.32v-.12q0-.76.31-1.33t.86-.88q.55-.32 1.26-.32.69 0 1.22.3.53.29.83.84t.3 1.29v.36h-3.99q.03.79.51 1.24.48.44 1.2.44.63 0 .97-.29t.52-.69l.68.33q-.15.31-.42.62-.26.31-.69.52-.42.21-1.08.21m-1.68-3.03h3.18q-.04-.68-.47-1.06-.42-.38-1.08-.38-.67 0-1.1.38t-.53 1.06m5.558 2.89v-4.89h.77v.83h.14q.16-.35.54-.63.39-.29 1.14-.29.55 0 .98.23.44.23.7.68t.26 1.11V144h-.79v-2.9q0-.73-.37-1.06-.36-.33-.98-.33-.71 0-1.16.46-.44.46-.44 1.37V144zm7.996 0q-.42 0-.65-.23-.22-.23-.22-.63v-3.34h-1.47v-.69h1.47v-1.74h.79v1.74h1.6v.69h-1.6v3.22q0 .3.29.3h1.09v.68zm5.738 0v-7h2.68q.63 0 1.12.25.5.24.79.69t.29 1.09v.13q0 .63-.3 1.09-.29.45-.79.69a2.5 2.5 0 0 1-1.11.24h-1.84V144zm.84-3.58h1.75q.67 0 1.06-.33.39-.34.39-.95v-.1q0-.61-.39-.94-.38-.34-1.06-.34h-1.75zm5.396 3.58v-4.89h.77v.6h.14a.9.9 0 0 1 .4-.47q.27-.15.71-.15h.58v.72h-.63q-.53 0-.86.3-.32.29-.32.91V144zm3.97 0v-4.89h.79V144zm.4-5.65a.62.62 0 0 1-.44-.17.58.58 0 0 1-.17-.43q0-.27.17-.44a.62.62 0 0 1 .44-.17q.26 0 .43.17t.17.44a.584.584 0 0 1-.6.6m4.501 5.79q-.71 0-1.28-.3-.56-.31-.89-.88-.32-.57-.32-1.35v-.11q0-.79.32-1.35.33-.57.89-.87.57-.31 1.28-.31.7 0 1.19.26.5.26.78.69.29.43.37.92l-.77.16a1.6 1.6 0 0 0-.24-.66q-.18-.3-.51-.48t-.81-.18q-.49 0-.88.22a1.64 1.64 0 0 0-.61.63q-.22.41-.22.98v.09q0 .57.22.98.23.41.61.63.39.22.88.22.73 0 1.11-.38.39-.38.48-.94l.78.17q-.11.48-.4.91a2.1 2.1 0 0 1-.79.69q-.49.26-1.19.26m6.166 0q-.74 0-1.3-.31a2.24 2.24 0 0 1-.87-.89q-.31-.57-.31-1.32v-.12q0-.76.31-1.33t.86-.88q.55-.32 1.26-.32.69 0 1.22.3.53.29.83.84t.3 1.29v.36h-3.99q.03.79.51 1.24.48.44 1.2.44.63 0 .97-.29t.52-.69l.68.33q-.15.31-.42.62-.26.31-.69.52-.42.21-1.08.21m-1.68-3.03h3.18q-.04-.68-.47-1.06-.42-.38-1.08-.38-.67 0-1.1.38t-.53 1.06"/><rect width="4" height="4" x="186" y="139" fill="#00E388" rx="2"/><path fill="#969696" d="M194.47 144v-.75h.98v-5.5h-.98V137h3.51q.61 0 1.08.22a1.7 1.7 0 0 1 .74.62q.27.39.27.92v.08q0 .49-.19.81-.19.31-.45.49a2 2 0 0 1-.51.25v.14q.25.06.52.24.27.17.45.49.19.32.19.81v.1q0 .57-.28.99-.27.41-.75.63-.47.21-1.08.21zm1.82-.76h1.59q.66 0 1.01-.31t.35-.84V142q0-.53-.35-.84t-1.01-.31h-1.59zm0-3.15h1.62q.6 0 .96-.3.36-.31.36-.81v-.1q0-.51-.36-.81-.35-.31-.96-.31h-1.62zm4.443 5.91 2.94-9h.79l-2.94 9zm7.231-1.86q-1.25 0-1.99-.72-.74-.73-.74-2.12v-1.6q0-1.39.74-2.11.74-.73 1.99-.73 1.24 0 1.9.69.67.69.67 1.89v.05h-.83v-.08q0-.79-.43-1.29-.42-.51-1.31-.51t-1.39.55q-.5.54-.5 1.52v1.64q0 .98.5 1.53.5.54 1.39.54t1.31-.5q.43-.51.43-1.3v-.16h.83v.13q0 1.2-.67 1.89-.66.69-1.9.69m6.552-2.35v-.73h7.52v.73zm11.797 2.21v-7h.84v6.24h3.54v.76zm5.688 0v-4.89h.79V144zm.4-5.65a.62.62 0 0 1-.44-.17.58.58 0 0 1-.17-.43q0-.27.17-.44a.62.62 0 0 1 .44-.17q.26 0 .43.17t.17.44a.58.58 0 0 1-.6.6m2.252 5.65v-4.89h.77v.61h.14q.14-.26.46-.48t.9-.22q.57 0 .92.25.36.25.52.61h.14q.17-.36.51-.61.35-.25.97-.25.49 0 .86.2t.58.58q.22.37.22.89V144h-.79v-3.24q0-.49-.29-.77-.28-.29-.79-.29-.54 0-.89.35-.34.35-.34 1.01V144h-.79v-3.24q0-.49-.29-.77-.28-.29-.79-.29-.54 0-.89.35-.34.35-.34 1.01V144zm8.803 0v-4.89h.79V144zm.4-5.65a.62.62 0 0 1-.44-.17.58.58 0 0 1-.17-.43q0-.27.17-.44a.62.62 0 0 1 .44-.17q.26 0 .43.17t.17.44a.58.58 0 0 1-.6.6m4.051 5.65q-.42 0-.65-.23-.22-.23-.22-.63v-3.34h-1.47v-.69h1.47v-1.74h.79v1.74h1.6v.69h-1.6v3.22q0 .3.29.3h1.09v.68zm5.738 0v-7h2.68q.63 0 1.12.25.5.24.79.69t.29 1.09v.13q0 .63-.3 1.09-.29.45-.79.69a2.5 2.5 0 0 1-1.11.24h-1.84V144zm.84-3.58h1.75q.67 0 1.06-.33.39-.34.39-.95v-.1q0-.61-.39-.94-.38-.34-1.06-.34h-1.75zm5.396 3.58v-4.89h.77v.6h.14a.9.9 0 0 1 .4-.47q.27-.15.71-.15h.58v.72h-.63q-.53 0-.86.3-.32.29-.32.91V144zm3.97 0v-4.89h.79V144zm.4-5.65a.62.62 0 0 1-.44-.17.58.58 0 0 1-.17-.43q0-.27.17-.44a.62.62 0 0 1 .44-.17q.26 0 .43.17t.17.44a.584.584 0 0 1-.6.6m4.501 5.79q-.71 0-1.28-.3-.56-.31-.89-.88-.32-.57-.32-1.35v-.11q0-.79.32-1.35.33-.57.89-.87.57-.31 1.28-.31.7 0 1.19.26.5.26.78.69.29.43.37.92l-.77.16a1.6 1.6 0 0 0-.24-.66q-.18-.3-.51-.48t-.81-.18q-.49 0-.88.22a1.64 1.64 0 0 0-.61.63q-.22.41-.22.98v.09q0 .57.22.98.23.41.61.63.39.22.88.22.73 0 1.11-.38.39-.38.48-.94l.78.17q-.11.48-.4.91a2.1 2.1 0 0 1-.79.69q-.49.26-1.19.26m6.166 0q-.74 0-1.3-.31a2.24 2.24 0 0 1-.87-.89q-.31-.57-.31-1.32v-.12q0-.76.31-1.33t.86-.88q.55-.32 1.26-.32.69 0 1.22.3.53.29.83.84t.3 1.29v.36h-3.99q.03.79.51 1.24.48.44 1.2.44.63 0 .97-.29t.52-.69l.68.33q-.15.31-.42.62-.26.31-.69.52-.42.21-1.08.21m-1.68-3.03h3.18q-.04-.68-.47-1.06-.42-.38-1.08-.38-.67 0-1.1.38t-.53 1.06M21.601 40.09q-.594 0-1.044-.234a1.74 1.74 0 0 1-.684-.666 1.95 1.95 0 0 1-.243-.99h.81q0 .549.306.864.315.306.864.306.558 0 .864-.324t.306-.846v-.468q0-.558-.306-.864t-.864-.306h-.675v-.81l1.629-1.584H19.9v-.738h3.483v.81l-1.755 1.701v-.099q.9 0 1.431.513t.531 1.377v.468q0 .567-.252.99a1.7 1.7 0 0 1-.693.666q-.45.234-1.044.234m5.676 0q-.604 0-1.053-.234a1.7 1.7 0 0 1-.684-.675 2.1 2.1 0 0 1-.243-1.026v-2.88q0-.594.242-1.026.243-.432.684-.666.45-.243 1.053-.243.614 0 1.053.243.442.234.684.666t.243 1.026v2.88q0 .585-.242 1.026a1.7 1.7 0 0 1-.694.675q-.441.234-1.044.234m0-.693q.54 0 .863-.342.334-.351.334-.9v-2.88q0-.549-.334-.891-.323-.351-.864-.351t-.872.351q-.325.342-.325.891v2.88q0 .549.325.9.332.342.872.342m0-2.151a.54.54 0 0 1-.396-.153.57.57 0 0 1-.145-.405q0-.243.145-.387a.54.54 0 0 1 .395-.153q.244 0 .387.153a.5.5 0 0 1 .154.387.55.55 0 0 1-.154.405.5.5 0 0 1-.387.153m5.576 2.844q-.603 0-1.053-.234a1.7 1.7 0 0 1-.684-.675 2.1 2.1 0 0 1-.243-1.026v-2.88q0-.594.243-1.026t.684-.666q.45-.243 1.053-.243.612 0 1.053.243.441.234.684.666t.243 1.026v2.88q0 .585-.243 1.026a1.7 1.7 0 0 1-.693.675q-.441.234-1.044.234m0-.693q.54 0 .864-.342.333-.351.333-.9v-2.88q0-.549-.333-.891-.324-.351-.864-.351t-.873.351q-.324.342-.324.891v2.88q0 .549.324.9.333.342.873.342m0-2.151a.54.54 0 0 1-.396-.153.57.57 0 0 1-.144-.405q0-.243.144-.387a.54.54 0 0 1 .396-.153q.243 0 .387.153a.5.5 0 0 1 .153.387.55.55 0 0 1-.153.405.5.5 0 0 1-.387.153m5.576 2.844q-.602 0-1.053-.234a1.7 1.7 0 0 1-.683-.675 2.1 2.1 0 0 1-.243-1.026v-2.88q0-.594.242-1.026.244-.432.684-.666.45-.243 1.053-.243.613 0 1.053.243.442.234.684.666.244.432.244 1.026v2.88q0 .585-.243 1.026a1.7 1.7 0 0 1-.694.675q-.441.234-1.044.234m0-.693q.54 0 .864-.342.334-.351.334-.9v-2.88q0-.549-.334-.891-.323-.351-.864-.351t-.873.351q-.323.342-.323.891v2.88q0 .549.324.9.332.342.872.342m0-2.151a.54.54 0 0 1-.396-.153.57.57 0 0 1-.144-.405q0-.243.144-.387a.54.54 0 0 1 .396-.153q.244 0 .387.153a.5.5 0 0 1 .153.387.55.55 0 0 1-.153.405.5.5 0 0 1-.387.153M19.81 89v-.738h1.782v-5.157l-1.782 1.332v-.9l1.485-1.107h1.107v5.832h1.458V89zm7.449.09q-.802 0-1.314-.414-.514-.414-.604-1.116h.81a.84.84 0 0 0 .334.603q.288.207.782.207.567 0 .846-.306.288-.306.288-.864v-.639q0-.558-.288-.864-.279-.306-.837-.306-.35 0-.611.189-.261.18-.378.486h-.81l.044-3.636h3.456v.738h-2.672l-.027 2.187h.252l-.253.234a.78.78 0 0 1 .333-.666q.343-.243.91-.243.801-.009 1.242.495.45.495.45 1.386v.639q0 .873-.514 1.386-.512.504-1.44.504m5.594 0q-.603 0-1.053-.234a1.7 1.7 0 0 1-.684-.675 2.1 2.1 0 0 1-.243-1.026v-2.88q0-.594.243-1.026t.684-.666q.45-.243 1.053-.243.612 0 1.053.243.441.234.684.666t.243 1.026v2.88q0 .585-.243 1.026a1.7 1.7 0 0 1-.693.675q-.441.234-1.044.234m0-.693q.54 0 .864-.342.333-.351.333-.9v-2.88q0-.549-.333-.891-.324-.351-.864-.351t-.873.351q-.324.342-.324.891v2.88q0 .549.324.9.333.342.873.342m0-2.151a.54.54 0 0 1-.396-.153.57.57 0 0 1-.144-.405q0-.243.144-.387a.54.54 0 0 1 .396-.153q.243 0 .387.153a.5.5 0 0 1 .153.387.55.55 0 0 1-.153.405.5.5 0 0 1-.387.153m5.576 2.844q-.602 0-1.053-.234a1.7 1.7 0 0 1-.683-.675 2.1 2.1 0 0 1-.243-1.026v-2.88q0-.594.242-1.026.244-.432.684-.666.45-.243 1.053-.243.613 0 1.053.243.442.234.684.666.244.432.244 1.026v2.88q0 .585-.243 1.026a1.7 1.7 0 0 1-.694.675q-.441.234-1.044.234m0-.693q.54 0 .864-.342.334-.351.334-.9v-2.88q0-.549-.334-.891-.323-.351-.864-.351t-.873.351q-.323.342-.323.891v2.88q0 .549.324.9.332.342.872.342m0-2.151a.54.54 0 0 1-.396-.153.57.57 0 0 1-.144-.405q0-.243.144-.387a.54.54 0 0 1 .396-.153q.244 0 .387.153a.5.5 0 0 1 .153.387.55.55 0 0 1-.153.405.5.5 0 0 1-.387.153"/><defs><linearGradient id="a" x1="127.5" x2="127.5" y1="0" y2="20" gradientUnits="userSpaceOnUse"><stop stop-color="#00E388" stop-opacity="0"/><stop offset="1" stop-color="#00E388" stop-opacity=".2"/></linearGradient></defs></svg>