<svg width="138" height="24" viewBox="0 0 138 24" fill="none" xmlns="http://www.w3.org/2000/svg">
    <g clip-path="url(#clip0_68_1722)">
        <g clip-path="url(#clip1_68_1722)">
            <path d="M31.4561 0L23.3173 15.638L18.6283 11.6532L12.8603 21.8244L6.63441 18.0033L0.500123 24L6.20606 11.7088L11.0226 14.843L16.5847 3.83097L22.0323 7.85496L31.4561 0Z"
                  fill="#3C69FF"/>
        </g>
        <path d="M45.4795 15.2578C45.4795 15.0495 45.4326 14.8568 45.3389 14.6797C45.2503 14.4974 45.0654 14.3333 44.7842 14.1875C44.5081 14.0365 44.0915 13.9062 43.5342 13.7969C43.0654 13.6979 42.641 13.5807 42.2607 13.4453C41.8857 13.3099 41.5654 13.1458 41.2998 12.9531C41.0394 12.7604 40.8389 12.5339 40.6982 12.2734C40.5576 12.013 40.4873 11.7083 40.4873 11.3594C40.4873 11.026 40.5602 10.7109 40.7061 10.4141C40.8571 10.1172 41.068 9.85417 41.3389 9.625C41.6149 9.39583 41.9456 9.21615 42.3311 9.08594C42.7165 8.95573 43.1462 8.89062 43.6201 8.89062C44.2972 8.89062 44.8753 9.01042 45.3545 9.25C45.8337 9.48958 46.2008 9.8099 46.4561 10.2109C46.7113 10.6068 46.8389 11.0469 46.8389 11.5312H45.3936C45.3936 11.2969 45.3232 11.0703 45.1826 10.8516C45.0472 10.6276 44.8467 10.4427 44.5811 10.2969C44.3206 10.151 44.0003 10.0781 43.6201 10.0781C43.2191 10.0781 42.8936 10.1406 42.6436 10.2656C42.3988 10.3854 42.2191 10.5391 42.1045 10.7266C41.9951 10.9141 41.9404 11.112 41.9404 11.3203C41.9404 11.4766 41.9665 11.6172 42.0186 11.7422C42.0758 11.862 42.1748 11.974 42.3154 12.0781C42.4561 12.1771 42.654 12.2708 42.9092 12.3594C43.1644 12.4479 43.4899 12.5365 43.8857 12.625C44.5785 12.7812 45.1488 12.9688 45.5967 13.1875C46.0446 13.4062 46.3779 13.6745 46.5967 13.9922C46.8154 14.3099 46.9248 14.6953 46.9248 15.1484C46.9248 15.5182 46.8467 15.8568 46.6904 16.1641C46.5394 16.4714 46.318 16.737 46.0264 16.9609C45.7399 17.1797 45.3962 17.3516 44.9951 17.4766C44.5993 17.5964 44.154 17.6562 43.6592 17.6562C42.9144 17.6562 42.2842 17.5234 41.7686 17.2578C41.2529 16.9922 40.8623 16.6484 40.5967 16.2266C40.3311 15.8047 40.1982 15.3594 40.1982 14.8906H41.6514C41.6722 15.2865 41.7868 15.6016 41.9951 15.8359C42.2035 16.0651 42.4587 16.2292 42.7607 16.3281C43.0628 16.4219 43.3623 16.4688 43.6592 16.4688C44.055 16.4688 44.3857 16.4167 44.6514 16.3125C44.9222 16.2083 45.1279 16.0651 45.2686 15.8828C45.4092 15.7005 45.4795 15.4922 45.4795 15.2578ZM50.9639 16L53.1357 9.04688H54.0889L53.9014 10.4297L51.6904 17.5H50.7607L50.9639 16ZM49.5029 9.04688L51.3545 16.0781L51.4873 17.5H50.5107L48.0576 9.04688H49.5029ZM56.167 16.0234L57.9326 9.04688H59.3701L56.917 17.5H55.9482L56.167 16.0234ZM54.2998 9.04688L56.4248 15.8828L56.667 17.5H55.7451L53.4717 10.4141L53.2842 9.04688H54.2998ZM65.8389 16.0547V11.7031C65.8389 11.3698 65.7712 11.0807 65.6357 10.8359C65.5055 10.5859 65.3076 10.3932 65.042 10.2578C64.7764 10.1224 64.4482 10.0547 64.0576 10.0547C63.693 10.0547 63.3727 10.1172 63.0967 10.2422C62.8258 10.3672 62.6123 10.5312 62.4561 10.7344C62.305 10.9375 62.2295 11.1562 62.2295 11.3906H60.7842C60.7842 11.0885 60.8623 10.7891 61.0186 10.4922C61.1748 10.1953 61.3988 9.92708 61.6904 9.6875C61.9873 9.44271 62.3415 9.25 62.7529 9.10938C63.1696 8.96354 63.6331 8.89062 64.1436 8.89062C64.7581 8.89062 65.2998 8.99479 65.7686 9.20312C66.2425 9.41146 66.6123 9.72656 66.8779 10.1484C67.1488 10.5651 67.2842 11.0885 67.2842 11.7188V15.6562C67.2842 15.9375 67.3076 16.237 67.3545 16.5547C67.4066 16.8724 67.4821 17.1458 67.5811 17.375V17.5H66.0732C66.0003 17.3333 65.943 17.112 65.9014 16.8359C65.8597 16.5547 65.8389 16.2943 65.8389 16.0547ZM66.0889 12.375L66.1045 13.3906H64.6436C64.2321 13.3906 63.8649 13.4245 63.542 13.4922C63.2191 13.5547 62.9482 13.651 62.7295 13.7812C62.5107 13.9115 62.3441 14.0755 62.2295 14.2734C62.1149 14.4661 62.0576 14.6927 62.0576 14.9531C62.0576 15.2188 62.1175 15.4609 62.2373 15.6797C62.3571 15.8984 62.5368 16.0729 62.7764 16.2031C63.0212 16.3281 63.3206 16.3906 63.6748 16.3906C64.1175 16.3906 64.5081 16.2969 64.8467 16.1094C65.1852 15.9219 65.4535 15.6927 65.6514 15.4219C65.8545 15.151 65.9639 14.888 65.9795 14.6328L66.5967 15.3281C66.5602 15.5469 66.4613 15.7891 66.2998 16.0547C66.1383 16.3203 65.9222 16.5755 65.6514 16.8203C65.3857 17.0599 65.068 17.2604 64.6982 17.4219C64.3337 17.5781 63.9222 17.6562 63.4639 17.6562C62.891 17.6562 62.3883 17.5443 61.9561 17.3203C61.529 17.0964 61.1956 16.7969 60.9561 16.4219C60.7217 16.0417 60.6045 15.6172 60.6045 15.1484C60.6045 14.6953 60.693 14.2969 60.8701 13.9531C61.0472 13.6042 61.3024 13.3151 61.6357 13.0859C61.9691 12.8516 62.3701 12.6745 62.8389 12.5547C63.3076 12.4349 63.8311 12.375 64.4092 12.375H66.0889ZM71.8076 16.625L74.1592 9.04688H75.7061L72.3154 18.8047C72.2373 19.013 72.1331 19.237 72.0029 19.4766C71.8779 19.7214 71.7165 19.9531 71.5186 20.1719C71.3206 20.3906 71.0811 20.5677 70.7998 20.7031C70.5238 20.8438 70.193 20.9141 69.8076 20.9141C69.693 20.9141 69.5472 20.8984 69.3701 20.8672C69.193 20.8359 69.068 20.8099 68.9951 20.7891L68.9873 19.6172C69.029 19.6224 69.0941 19.6276 69.1826 19.6328C69.2764 19.6432 69.3415 19.6484 69.3779 19.6484C69.7061 19.6484 69.9847 19.6042 70.2139 19.5156C70.443 19.4323 70.6357 19.2891 70.792 19.0859C70.9535 18.888 71.0915 18.6146 71.2061 18.2656L71.8076 16.625ZM70.0811 9.04688L72.2764 15.6094L72.6514 17.1328L71.6123 17.6641L68.5029 9.04688H70.0811ZM76.1904 16.7344C76.1904 16.4896 76.266 16.2839 76.417 16.1172C76.5732 15.9453 76.7972 15.8594 77.0889 15.8594C77.3805 15.8594 77.6019 15.9453 77.7529 16.1172C77.9092 16.2839 77.9873 16.4896 77.9873 16.7344C77.9873 16.974 77.9092 17.1771 77.7529 17.3438C77.6019 17.5104 77.3805 17.5938 77.0889 17.5938C76.7972 17.5938 76.5732 17.5104 76.417 17.3438C76.266 17.1771 76.1904 16.974 76.1904 16.7344ZM81.8311 10.8516V17.5H80.3857V9.04688H81.7529L81.8311 10.8516ZM81.4873 12.9531L80.8857 12.9297C80.891 12.3516 80.9769 11.8177 81.1436 11.3281C81.3102 10.8333 81.5446 10.4036 81.8467 10.0391C82.1488 9.67448 82.5081 9.39323 82.9248 9.19531C83.3467 8.99219 83.8128 8.89062 84.3232 8.89062C84.7399 8.89062 85.1149 8.94792 85.4482 9.0625C85.7816 9.17188 86.0654 9.34896 86.2998 9.59375C86.5394 9.83854 86.7217 10.1562 86.8467 10.5469C86.9717 10.9323 87.0342 11.4036 87.0342 11.9609V17.5H85.5811V11.9453C85.5811 11.5026 85.516 11.1484 85.3857 10.8828C85.2555 10.612 85.0654 10.4167 84.8154 10.2969C84.5654 10.1719 84.2581 10.1094 83.8936 10.1094C83.5342 10.1094 83.2061 10.1849 82.9092 10.3359C82.6175 10.487 82.3649 10.6953 82.1514 10.9609C81.943 11.2266 81.779 11.5312 81.6592 11.875C81.5446 12.2135 81.4873 12.5729 81.4873 12.9531ZM92.7373 17.6562C92.1488 17.6562 91.6149 17.5573 91.1357 17.3594C90.6618 17.1562 90.2529 16.8724 89.9092 16.5078C89.5706 16.1432 89.3102 15.7109 89.1279 15.2109C88.9456 14.7109 88.8545 14.1641 88.8545 13.5703V13.2422C88.8545 12.5547 88.9561 11.9427 89.1592 11.4062C89.3623 10.8646 89.6383 10.4062 89.9873 10.0312C90.3363 9.65625 90.7321 9.3724 91.1748 9.17969C91.6175 8.98698 92.0758 8.89062 92.5498 8.89062C93.154 8.89062 93.6748 8.99479 94.1123 9.20312C94.555 9.41146 94.917 9.70312 95.1982 10.0781C95.4795 10.4479 95.6878 10.8854 95.8232 11.3906C95.9587 11.8906 96.0264 12.4375 96.0264 13.0312V13.6797H89.7139V12.5H94.5811V12.3906C94.5602 12.0156 94.4821 11.651 94.3467 11.2969C94.2165 10.9427 94.0081 10.651 93.7217 10.4219C93.4352 10.1927 93.0446 10.0781 92.5498 10.0781C92.2217 10.0781 91.9196 10.1484 91.6436 10.2891C91.3675 10.4245 91.1305 10.6276 90.9326 10.8984C90.7347 11.1693 90.5811 11.5 90.4717 11.8906C90.3623 12.2812 90.3076 12.7318 90.3076 13.2422V13.5703C90.3076 13.9714 90.3623 14.349 90.4717 14.7031C90.5863 15.0521 90.7503 15.3594 90.9639 15.625C91.1826 15.8906 91.4456 16.099 91.7529 16.25C92.0654 16.401 92.4196 16.4766 92.8154 16.4766C93.3258 16.4766 93.7581 16.3724 94.1123 16.1641C94.4665 15.9557 94.7764 15.6771 95.042 15.3281L95.917 16.0234C95.7347 16.2995 95.5029 16.5625 95.2217 16.8125C94.9404 17.0625 94.5941 17.2656 94.1826 17.4219C93.7764 17.5781 93.2946 17.6562 92.7373 17.6562ZM101.253 9.04688V10.1562H96.6826V9.04688H101.253ZM98.2295 6.99219H99.6748V15.4062C99.6748 15.6927 99.7191 15.9089 99.8076 16.0547C99.8962 16.2005 100.011 16.2969 100.151 16.3438C100.292 16.3906 100.443 16.4141 100.604 16.4141C100.724 16.4141 100.849 16.4036 100.979 16.3828C101.115 16.3568 101.216 16.3359 101.284 16.3203L101.292 17.5C101.177 17.5365 101.026 17.5703 100.839 17.6016C100.657 17.638 100.435 17.6562 100.175 17.6562C99.8206 17.6562 99.4951 17.5859 99.1982 17.4453C98.9014 17.3047 98.6644 17.0703 98.4873 16.7422C98.3154 16.4089 98.2295 15.9609 98.2295 15.3984V6.99219ZM105.089 16L107.261 9.04688H108.214L108.026 10.4297L105.815 17.5H104.886L105.089 16ZM103.628 9.04688L105.479 16.0781L105.612 17.5H104.636L102.183 9.04688H103.628ZM110.292 16.0234L112.058 9.04688H113.495L111.042 17.5H110.073L110.292 16.0234ZM108.425 9.04688L110.55 15.8828L110.792 17.5H109.87L107.597 10.4141L107.409 9.04688H108.425ZM114.597 13.3672V13.1875C114.597 12.5781 114.685 12.013 114.862 11.4922C115.039 10.9661 115.295 10.5104 115.628 10.125C115.961 9.73438 116.365 9.43229 116.839 9.21875C117.313 9 117.844 8.89062 118.433 8.89062C119.026 8.89062 119.56 9 120.034 9.21875C120.513 9.43229 120.92 9.73438 121.253 10.125C121.591 10.5104 121.849 10.9661 122.026 11.4922C122.203 12.013 122.292 12.5781 122.292 13.1875V13.3672C122.292 13.9766 122.203 14.5417 122.026 15.0625C121.849 15.5833 121.591 16.0391 121.253 16.4297C120.92 16.8151 120.516 17.1172 120.042 17.3359C119.573 17.5495 119.042 17.6562 118.448 17.6562C117.854 17.6562 117.321 17.5495 116.847 17.3359C116.373 17.1172 115.966 16.8151 115.628 16.4297C115.295 16.0391 115.039 15.5833 114.862 15.0625C114.685 14.5417 114.597 13.9766 114.597 13.3672ZM116.042 13.1875V13.3672C116.042 13.7891 116.091 14.1875 116.19 14.5625C116.289 14.9323 116.438 15.2604 116.636 15.5469C116.839 15.8333 117.091 16.0599 117.394 16.2266C117.696 16.388 118.047 16.4688 118.448 16.4688C118.844 16.4688 119.19 16.388 119.487 16.2266C119.789 16.0599 120.039 15.8333 120.237 15.5469C120.435 15.2604 120.584 14.9323 120.683 14.5625C120.787 14.1875 120.839 13.7891 120.839 13.3672V13.1875C120.839 12.7708 120.787 12.3776 120.683 12.0078C120.584 11.6328 120.433 11.3021 120.229 11.0156C120.032 10.724 119.782 10.4948 119.479 10.3281C119.183 10.1615 118.834 10.0781 118.433 10.0781C118.037 10.0781 117.688 10.1615 117.386 10.3281C117.089 10.4948 116.839 10.724 116.636 11.0156C116.438 11.3021 116.289 11.6328 116.19 12.0078C116.091 12.3776 116.042 12.7708 116.042 13.1875ZM125.55 10.375V17.5H124.104V9.04688H125.511L125.55 10.375ZM128.19 9L128.183 10.3438C128.063 10.3177 127.948 10.3021 127.839 10.2969C127.735 10.2865 127.615 10.2812 127.479 10.2812C127.146 10.2812 126.852 10.3333 126.597 10.4375C126.341 10.5417 126.125 10.6875 125.948 10.875C125.771 11.0625 125.631 11.2865 125.526 11.5469C125.427 11.8021 125.362 12.0833 125.331 12.3906L124.925 12.625C124.925 12.1146 124.974 11.6354 125.073 11.1875C125.177 10.7396 125.336 10.3438 125.55 10C125.763 9.65104 126.034 9.38021 126.362 9.1875C126.696 8.98958 127.091 8.89062 127.55 8.89062C127.654 8.89062 127.774 8.90365 127.909 8.92969C128.045 8.95052 128.138 8.97396 128.19 9ZM130.979 5.5V17.5H129.526V5.5H130.979ZM136.144 9.04688L132.456 12.9922L130.394 15.1328L130.276 13.5938L131.753 11.8281L134.378 9.04688H136.144ZM134.823 17.5L131.808 13.4688L132.558 12.1797L136.526 17.5H134.823Z"
              fill="white"/>
    </g>
    <defs>
        <clipPath id="clip0_68_1722">
            <rect width="136.956" height="24" fill="white" transform="translate(0.5)"/>
        </clipPath>
        <clipPath id="clip1_68_1722">
            <rect width="30.9559" height="24" fill="white" transform="matrix(-1 0 0 1 31.4561 0)"/>
        </clipPath>
    </defs>
</svg>
