<svg width="82" height="23" viewBox="0 0 82 23" fill="none" xmlns="http://www.w3.org/2000/svg">
    <path d="M32.4152 13.75H34.3252C34.3585 13.9433 34.4752 14.1167 34.6752 14.27C34.8752 14.4167 35.1419 14.53 35.4752 14.61C35.8085 14.69 36.1885 14.73 36.6152 14.73C37.0219 14.73 37.3485 14.7033 37.5952 14.65C37.8419 14.59 38.0219 14.5067 38.1352 14.4C38.2485 14.2867 38.3052 14.1467 38.3052 13.98C38.3052 13.8267 38.2252 13.7067 38.0652 13.62C37.9052 13.5333 37.6419 13.4667 37.2752 13.42C36.9085 13.3667 36.4052 13.32 35.7652 13.28C35.2785 13.2467 34.8385 13.19 34.4452 13.11C34.0585 13.0233 33.7285 12.9067 33.4552 12.76C33.1819 12.6133 32.9719 12.4333 32.8252 12.22C32.6852 12 32.6152 11.74 32.6152 11.44C32.6152 11.0067 32.7485 10.64 33.0152 10.34C33.2819 10.0333 33.6819 9.8 34.2152 9.64C34.7485 9.48 35.4119 9.4 36.2052 9.4C37.3785 9.4 38.2785 9.60667 38.9052 10.02C39.5319 10.4333 39.8385 11.0167 39.8252 11.77H38.0152C37.9819 11.4433 37.7985 11.2067 37.4652 11.06C37.1319 10.9067 36.6885 10.83 36.1352 10.83C35.6019 10.83 35.1852 10.8833 34.8852 10.99C34.5852 11.0967 34.4352 11.28 34.4352 11.54C34.4352 11.6533 34.4719 11.75 34.5452 11.83C34.6252 11.91 34.7585 11.9767 34.9452 12.03C35.1319 12.0833 35.3919 12.13 35.7252 12.17C36.0585 12.21 36.4752 12.25 36.9752 12.29C37.4885 12.3233 37.9385 12.38 38.3252 12.46C38.7119 12.54 39.0319 12.6533 39.2852 12.8C39.5452 12.94 39.7385 13.12 39.8652 13.34C39.9985 13.5533 40.0652 13.8167 40.0652 14.13C40.0652 14.57 39.9385 14.94 39.6852 15.24C39.4385 15.54 39.0485 15.77 38.5152 15.93C37.9819 16.0833 37.2919 16.16 36.4452 16.16C35.8985 16.16 35.4085 16.1133 34.9752 16.02C34.5485 15.9333 34.1719 15.81 33.8452 15.65C33.5185 15.49 33.2485 15.3067 33.0352 15.1C32.8219 14.8867 32.6619 14.6667 32.5552 14.44C32.4552 14.2067 32.4085 13.9767 32.4152 13.75ZM43.8239 14.08V12.74H47.5939C47.8872 12.74 48.1239 12.6733 48.3039 12.54C48.4839 12.4 48.5739 12.1867 48.5739 11.9C48.5739 11.6 48.4839 11.3833 48.3039 11.25C48.1239 11.11 47.8872 11.04 47.5939 11.04H43.9839V16H42.1839V9.56H47.3639C47.7839 9.56 48.1739 9.6 48.5339 9.68C48.9005 9.76 49.2205 9.89 49.4939 10.07C49.7672 10.25 49.9805 10.49 50.1339 10.79C50.2872 11.0833 50.3639 11.4533 50.3639 11.9C50.3639 12.3333 50.2872 12.6933 50.1339 12.98C49.9805 13.26 49.7672 13.4833 49.4939 13.65C49.2205 13.81 48.9005 13.9233 48.5339 13.99C48.1739 14.05 47.7839 14.08 47.3639 14.08H43.8239ZM52.9404 14.77V13.5H58.2504V14.77H52.9404ZM51.0804 16L54.6204 9.56H56.6004L60.1704 16H58.2004L55.1204 10.21H56.1004L53.0504 16H51.0804ZM62.0457 16V9.56H67.7757C68.3157 9.56 68.7923 9.63 69.2057 9.77C69.6257 9.90333 69.9523 10.12 70.1857 10.42C70.4257 10.72 70.5457 11.1167 70.5457 11.61C70.5457 11.9433 70.4857 12.2233 70.3657 12.45C70.2523 12.67 70.0923 12.8467 69.8857 12.98C69.679 13.1133 69.439 13.2133 69.1657 13.28C68.899 13.3467 68.6157 13.39 68.3157 13.41L67.9457 13.3C68.539 13.3067 69.0123 13.3433 69.3657 13.41C69.719 13.4767 69.9723 13.5967 70.1257 13.77C70.2857 13.9433 70.3657 14.1967 70.3657 14.53V16H68.5757V14.7C68.5757 14.4733 68.5323 14.3 68.4457 14.18C68.3657 14.0533 68.2057 13.9667 67.9657 13.92C67.7323 13.8733 67.3823 13.85 66.9157 13.85H63.8457V16H62.0457ZM63.8457 12.55H67.7757C68.0757 12.55 68.3123 12.4833 68.4857 12.35C68.659 12.2167 68.7457 12.02 68.7457 11.76C68.7457 11.5133 68.659 11.3333 68.4857 11.22C68.3123 11.1 68.0757 11.04 67.7757 11.04H63.8457V12.55ZM76.7285 12.85L76.7185 12.29L81.6385 16H78.9985L74.7185 12.6L78.5885 9.56H81.1485L76.7285 12.85ZM72.9285 9.56H74.7285V16H72.9285V9.56Z"
          fill="#FFFFFD"/>
    <path d="M3.28095 3.97606C3.1081 3.78113 3.11696 3.48531 3.30118 3.30109C3.4854 3.11687 3.78123 3.108 3.97615 3.28086L12.32 10.6801L19.7192 19.0239C19.8921 19.2189 19.8832 19.5147 19.699 19.6989C19.5148 19.8831 19.2189 19.892 19.024 19.7191L10.6802 12.3199L3.28095 3.97606Z"
          fill="#6642EE"/>
    <path d="M13.9064 0.620064C13.9888 0.372907 14.2494 0.232672 14.5011 0.300101C14.7527 0.367529 14.9083 0.619289 14.8561 0.874523L12.6201 11.8001L9.09373 22.38C9.01135 22.6271 8.75073 22.7673 8.49908 22.6999C8.24743 22.6325 8.09184 22.3807 8.14408 22.1255L10.3801 11.1999L13.9064 0.620064Z"
          fill="#D37C40"/>
    <path d="M22.1255 8.14401C22.3808 8.09177 22.6325 8.24736 22.7 8.49901C22.7674 8.75066 22.6272 9.01128 22.38 9.09366L11.8002 12.62L0.874574 14.856C0.619341 14.9083 0.367581 14.7527 0.300152 14.501C0.232724 14.2494 0.372958 13.9888 0.620114 13.9064L11.2 10.38L22.1255 8.14401Z"
          fill="#37AC81"/>
</svg>
