<svg xmlns="http://www.w3.org/2000/svg" width="83" height="24" fill="none"><path fill="#6642EE" d="M3.921 4.149a.514.514 0 0 1 .726-.725l8.706 7.72 7.721 8.707a.514.514 0 0 1-.725.726l-8.707-7.722z"/><path fill="#D37C40" d="M15.114.647a.514.514 0 0 1 .99.266l-2.333 11.4-3.68 11.04a.514.514 0 0 1-.99-.266l2.333-11.4z"/><path fill="#37AC81" d="M23.67 8.498a.514.514 0 0 1 .266.991l-11.04 3.68-11.4 2.333a.514.514 0 0 1-.266-.991l11.04-3.68z"/><path fill="#FFFFFD" d="M33 13.148h1.94q.052.343.356.615.305.26.813.403.507.142 1.158.142.62 0 .995-.095.376-.107.549-.296a.74.74 0 0 0 .172-.497.48.48 0 0 0-.243-.426q-.244-.153-.803-.237a17 17 0 0 0-1.533-.165 9 9 0 0 1-1.341-.202 3.6 3.6 0 0 1-1.006-.414 1.9 1.9 0 0 1-.64-.639 1.9 1.9 0 0 1-.213-.923q0-.77.406-1.302.406-.544 1.219-.828T36.85 8q1.788 0 2.743.734t.934 2.07H38.69a.98.98 0 0 0-.559-.84q-.508-.272-1.35-.272-.814 0-1.27.19t-.457.65q0 .203.111.344.122.141.407.236.284.095.792.166t1.27.142q.782.06 1.37.201.59.143.976.403.396.248.59.639.201.378.202.935 0 .78-.386 1.313-.375.533-1.188.817-.813.272-2.103.272a6.2 6.2 0 0 1-1.493-.166 4.3 4.3 0 0 1-1.148-.438 3.2 3.2 0 0 1-.823-.65 2.8 2.8 0 0 1-.487-.782 2.2 2.2 0 0 1-.142-.816m11.588.391v-1.586h3.829q.447 0 .72-.237.275-.249.275-.757 0-.533-.274-.77-.274-.248-.721-.248h-3.667v5.87h-1.829V8.189h5.262q.64 0 1.188.142.56.143.976.462t.65.852q.233.52.233 1.314 0 .768-.233 1.278a2 2 0 0 1-.65.793q-.417.283-.976.402a6 6 0 0 1-1.188.107zm9.26.816v-1.503h5.393v1.503zm-1.89 1.456 3.596-7.622h2.011l3.627 7.622h-2.002l-3.128-6.852h.995l-3.098 6.852zm11.138-.001V8.19h5.82q.824 0 1.453.248.64.236.996.77.365.532.365 1.407 0 .592-.183.995-.172.39-.487.627t-.731.355a4.3 4.3 0 0 1-.864.154l-.376-.13q.904.01 1.443.13.538.118.772.426.243.308.243.899v1.74h-1.818v-1.539q0-.402-.132-.615-.122-.225-.487-.308-.356-.083-1.067-.083h-3.118v2.545zm1.829-4.082h3.992q.457 0 .72-.237.265-.237.265-.698 0-.438-.264-.64-.264-.212-.721-.212h-3.992zm13.086.355-.01-.663L83 15.81h-2.682l-4.347-4.023 3.93-3.598h2.601zm-3.86-3.894h1.828v7.622h-1.828z"/></svg>