<svg width="93" height="48" viewBox="0 0 93 48" fill="none" xmlns="http://www.w3.org/2000/svg">
    <path d="M3.92134 16.1489C3.74097 15.9455 3.75022 15.6368 3.94245 15.4446C4.13468 15.2524 4.44337 15.2431 4.64676 15.4235L13.3534 23.1444L21.0743 31.851C21.2547 32.0544 21.2454 32.3631 21.0532 32.5554C20.861 32.7476 20.5523 32.7568 20.3489 32.5765L11.6423 24.8555L3.92134 16.1489Z"
          fill="#00E388"/>
    <path d="M15.1134 12.647C15.1993 12.3891 15.4713 12.2428 15.7339 12.3131C15.9965 12.3835 16.1588 12.6462 16.1043 12.9125L13.7711 24.3132L10.0914 35.353C10.0054 35.6109 9.73349 35.7572 9.4709 35.6869C9.20831 35.6165 9.04596 35.3538 9.10046 35.0875L11.4337 23.6869L15.1134 12.647Z"
          fill="#00E388"/>
    <path d="M23.6703 20.4981C23.9366 20.4436 24.1993 20.606 24.2697 20.8685C24.3401 21.1311 24.1937 21.4031 23.9358 21.4891L12.896 25.1687L1.49536 27.502C1.22903 27.5565 0.966325 27.3941 0.895964 27.1315C0.825604 26.8689 0.971935 26.597 1.22984 26.511L12.2697 22.8313L23.6703 20.4981Z"
          fill="#00E388"/>
    <path d="M33.0006 25.1479H34.9407C34.9746 25.3767 35.0931 25.5819 35.2963 25.7633C35.4994 25.9369 35.7703 26.071 36.1089 26.1657C36.4475 26.2604 36.8335 26.3077 37.2669 26.3077C37.6799 26.3077 38.0118 26.2761 38.2623 26.213C38.5129 26.142 38.6957 26.0434 38.8108 25.9172C38.9259 25.783 38.9835 25.6174 38.9835 25.4201C38.9835 25.2387 38.9022 25.0966 38.7397 24.9941C38.5772 24.8915 38.3097 24.8126 37.9373 24.7574C37.5648 24.6943 37.0535 24.6391 36.4035 24.5917C35.9091 24.5523 35.4622 24.4852 35.0626 24.3905C34.6699 24.288 34.3347 24.1499 34.057 23.9763C33.7794 23.8028 33.5661 23.5897 33.4171 23.3373C33.2749 23.0769 33.2038 22.7692 33.2038 22.4142C33.2038 21.9014 33.3392 21.4675 33.6101 21.1124C33.881 20.7495 34.2873 20.4734 34.829 20.284C35.3708 20.0947 36.0445 20 36.8504 20C38.0422 20 38.9564 20.2446 39.593 20.7337C40.2295 21.2229 40.541 21.9132 40.5275 22.8047H38.6889C38.6551 22.4181 38.4688 22.1381 38.1303 21.9645C37.7917 21.783 37.3413 21.6923 36.7793 21.6923C36.2375 21.6923 35.8143 21.7554 35.5096 21.8817C35.2048 22.0079 35.0525 22.2249 35.0525 22.5325C35.0525 22.6667 35.0897 22.7811 35.1642 22.8757C35.2455 22.9704 35.3809 23.0493 35.5705 23.1124C35.7601 23.1755 36.0242 23.2308 36.3628 23.2781C36.7014 23.3254 37.1246 23.3728 37.6325 23.4201C38.154 23.4596 38.6111 23.5266 39.0038 23.6213C39.3966 23.716 39.7216 23.8501 39.979 24.0237C40.2431 24.1893 40.4394 24.4024 40.5681 24.6627C40.7035 24.9152 40.7712 25.2268 40.7712 25.5976C40.7712 26.1183 40.6426 26.5562 40.3853 26.9112C40.1347 27.2663 39.7386 27.5385 39.1968 27.7278C38.6551 27.9093 37.9542 28 37.0942 28C36.5389 28 36.0412 27.9448 35.601 27.8343C35.1676 27.7318 34.785 27.5858 34.4532 27.3964C34.1214 27.2071 33.8471 26.9901 33.6304 26.7456C33.4137 26.4931 33.2512 26.2327 33.1428 25.9645C33.0413 25.6884 32.9939 25.4162 33.0006 25.1479Z"
          fill="#FFFFFD"/>
    <path d="M44.5892 25.5385V23.9527H48.4186C48.7166 23.9527 48.957 23.8738 49.1398 23.716C49.3227 23.5503 49.4141 23.2978 49.4141 22.9586C49.4141 22.6036 49.3227 22.3471 49.1398 22.1893C48.957 22.0237 48.7166 21.9408 48.4186 21.9408H44.7517V27.8107H42.9233V20.1893H48.185C48.6116 20.1893 49.0078 20.2367 49.3734 20.3314C49.7459 20.426 50.0709 20.5799 50.3486 20.7929C50.6262 21.0059 50.8429 21.2899 50.9987 21.645C51.1544 21.9921 51.2323 22.43 51.2323 22.9586C51.2323 23.4714 51.1544 23.8974 50.9987 24.2367C50.8429 24.568 50.6262 24.8323 50.3486 25.0296C50.0709 25.2189 49.7459 25.3531 49.3734 25.432C49.0078 25.503 48.6116 25.5385 48.185 25.5385H44.5892Z"
          fill="#FFFFFD"/>
    <path d="M53.8495 26.355V24.8521H59.2432V26.355H53.8495ZM51.9602 27.8107L55.556 20.1893H57.5672L61.1935 27.8107H59.1924L56.0639 20.9586H57.0593L53.9612 27.8107H51.9602Z"
          fill="#FFFFFD"/>
    <path d="M63.0983 27.8107V20.1893H68.9186C69.4671 20.1893 69.9513 20.2722 70.3712 20.4379C70.7978 20.5957 71.1296 20.8521 71.3666 21.2071C71.6104 21.5621 71.7323 22.0316 71.7323 22.6154C71.7323 23.0099 71.6713 23.3412 71.5495 23.6095C71.4343 23.8698 71.2718 24.0789 71.0619 24.2367C70.852 24.3945 70.6082 24.5128 70.3305 24.5917C70.0597 24.6706 69.7719 24.7219 69.4671 24.7456L69.0913 24.6154C69.694 24.6233 70.1748 24.6667 70.5337 24.7456C70.8926 24.8245 71.1499 24.9665 71.3057 25.1716C71.4682 25.3767 71.5495 25.6765 71.5495 26.071V27.8107H69.7312V26.2722C69.7312 26.0039 69.6872 25.7988 69.5992 25.6568C69.5179 25.5069 69.3554 25.4043 69.1116 25.3491C68.8746 25.2939 68.5191 25.2663 68.0451 25.2663H64.9267V27.8107H63.0983ZM64.9267 23.7278H68.9186C69.2234 23.7278 69.4637 23.6489 69.6398 23.4911C69.8159 23.3333 69.9039 23.1006 69.9039 22.7929C69.9039 22.501 69.8159 22.288 69.6398 22.1538C69.4637 22.0118 69.2234 21.9408 68.9186 21.9408H64.9267V23.7278Z"
          fill="#FFFFFD"/>
    <path d="M78.0126 24.0828L78.0024 23.4201L83 27.8107H80.3184L75.9709 23.787L79.9019 20.1893H82.5023L78.0126 24.0828ZM74.1527 20.1893H75.9811V27.8107H74.1527V20.1893Z"
          fill="#FFFFFD"/>
</svg>
