<svg width="186" height="29" viewBox="0 0 186 29" fill="none" xmlns="http://www.w3.org/2000/svg">
    <g clip-path="url(#clip0_53_1480)">
        <g clip-path="url(#clip1_53_1480)">
            <path d="M31.191 2.6637L23.0523 18.3016L18.3633 14.3169L12.5952 24.4881L6.3694 20.667L0.235108 26.6637L5.94104 14.3725L10.7576 17.5067L16.3196 6.49467L21.7673 10.5187L31.191 2.6637Z"
                  fill="#3C69FF"/>
        </g>
        <path d="M48.2262 19.3004C48.2262 18.9879 48.1559 18.6989 48.0153 18.4332C47.8824 18.1598 47.6051 17.9137 47.1832 17.6949C46.7692 17.4684 46.1442 17.2731 45.3082 17.109C44.6051 16.9606 43.9684 16.7848 43.3981 16.5817C42.8356 16.3785 42.3551 16.1324 41.9567 15.8434C41.566 15.5543 41.2653 15.2145 41.0543 14.8239C40.8434 14.4332 40.7379 13.9762 40.7379 13.4528C40.7379 12.9528 40.8473 12.4801 41.066 12.0348C41.2926 11.5895 41.609 11.1949 42.0153 10.8512C42.4293 10.5074 42.9254 10.2379 43.5035 10.0426C44.0817 9.84729 44.7262 9.74963 45.4371 9.74963C46.4528 9.74963 47.3199 9.92932 48.0387 10.2887C48.7574 10.6481 49.3082 11.1285 49.691 11.7301C50.0739 12.3239 50.2653 12.984 50.2653 13.7106H48.0973C48.0973 13.359 47.9918 13.0192 47.7809 12.691C47.5778 12.3551 47.277 12.0778 46.8785 11.859C46.4879 11.6403 46.0074 11.5309 45.4371 11.5309C44.8356 11.5309 44.3473 11.6246 43.9723 11.8121C43.6051 11.9918 43.3356 12.2223 43.1637 12.5035C42.9996 12.7848 42.9176 13.0817 42.9176 13.3942C42.9176 13.6285 42.9567 13.8395 43.0348 14.027C43.1207 14.2067 43.2692 14.3746 43.4801 14.5309C43.691 14.6793 43.9879 14.8199 44.3707 14.9528C44.7535 15.0856 45.2418 15.2184 45.8356 15.3512C46.8746 15.5856 47.7301 15.8668 48.402 16.1949C49.0739 16.5231 49.5739 16.9254 49.902 17.402C50.2301 17.8785 50.3942 18.4567 50.3942 19.1364C50.3942 19.691 50.277 20.1989 50.0426 20.6598C49.816 21.1207 49.484 21.5192 49.0465 21.8551C48.6168 22.1832 48.1012 22.441 47.4996 22.6285C46.9059 22.8082 46.2379 22.8981 45.4957 22.8981C44.3785 22.8981 43.4332 22.6989 42.6598 22.3004C41.8864 21.902 41.3004 21.3864 40.902 20.7535C40.5035 20.1207 40.3043 19.4528 40.3043 18.7496H42.484C42.5153 19.3434 42.6871 19.816 42.9996 20.1676C43.3121 20.5114 43.6949 20.7574 44.1481 20.9059C44.6012 21.0465 45.0504 21.1168 45.4957 21.1168C46.0895 21.1168 46.5856 21.0387 46.984 20.8824C47.3903 20.7262 47.6989 20.5114 47.9098 20.2379C48.1207 19.9645 48.2262 19.652 48.2262 19.3004ZM56.4528 20.4137L59.7106 9.98401H61.1403L60.859 12.0582L57.5426 22.6637H56.1481L56.4528 20.4137ZM54.2614 9.98401L57.0387 20.5309L57.2379 22.6637H55.7731L52.0934 9.98401H54.2614ZM64.2574 20.4489L66.9059 9.98401H69.0621L65.3824 22.6637H63.9293L64.2574 20.4489ZM61.4567 9.98401L64.6442 20.2379L65.0074 22.6637H63.6246L60.2145 12.0348L59.9332 9.98401H61.4567ZM78.7653 20.4957V13.9684C78.7653 13.4684 78.6637 13.0348 78.4606 12.6676C78.2653 12.2926 77.9684 12.0035 77.5699 11.8004C77.1715 11.5973 76.6793 11.4957 76.0934 11.4957C75.5465 11.4957 75.066 11.5895 74.652 11.777C74.2457 11.9645 73.9254 12.2106 73.691 12.5153C73.4645 12.8199 73.3512 13.1481 73.3512 13.4996H71.1832C71.1832 13.0465 71.3004 12.5973 71.5348 12.152C71.7692 11.7067 72.1051 11.3043 72.5426 10.9449C72.9879 10.5778 73.5192 10.2887 74.1364 10.0778C74.7614 9.85901 75.4567 9.74963 76.2223 9.74963C77.1442 9.74963 77.9567 9.90588 78.6598 10.2184C79.3707 10.5309 79.9254 11.0035 80.3239 11.6364C80.7301 12.2614 80.9332 13.0465 80.9332 13.9918V19.8981C80.9332 20.3199 80.9684 20.7692 81.0387 21.2457C81.1168 21.7223 81.2301 22.1324 81.3785 22.4762V22.6637H79.1168C79.0074 22.4137 78.9215 22.0817 78.859 21.6676C78.7965 21.2457 78.7653 20.8551 78.7653 20.4957ZM79.1403 14.9762L79.1637 16.4996H76.9723C76.3551 16.4996 75.8043 16.5504 75.3199 16.652C74.8356 16.7457 74.4293 16.8903 74.1012 17.0856C73.7731 17.2809 73.5231 17.527 73.3512 17.8239C73.1793 18.1129 73.0934 18.4528 73.0934 18.8434C73.0934 19.2418 73.1832 19.6051 73.3629 19.9332C73.5426 20.2614 73.8121 20.5231 74.1715 20.7184C74.5387 20.9059 74.9879 20.9996 75.5192 20.9996C76.1832 20.9996 76.7692 20.859 77.277 20.5778C77.7848 20.2965 78.1871 19.9528 78.484 19.5465C78.7887 19.1403 78.9528 18.7457 78.9762 18.3629L79.902 19.4059C79.8473 19.734 79.6989 20.0973 79.4567 20.4957C79.2145 20.8942 78.8903 21.277 78.484 21.6442C78.0856 22.0035 77.609 22.3043 77.0543 22.5465C76.5074 22.7809 75.8903 22.8981 75.2028 22.8981C74.3434 22.8981 73.5895 22.7301 72.941 22.3942C72.3004 22.0582 71.8004 21.609 71.441 21.0465C71.0895 20.4762 70.9137 19.8395 70.9137 19.1364C70.9137 18.4567 71.0465 17.859 71.3121 17.3434C71.5778 16.8199 71.9606 16.3864 72.4606 16.0426C72.9606 15.691 73.5621 15.4254 74.2653 15.2457C74.9684 15.066 75.7535 14.9762 76.6207 14.9762H79.1403ZM87.7184 21.3512L91.2457 9.98401H93.566L88.4801 24.6207C88.3629 24.9332 88.2067 25.2692 88.0114 25.6285C87.8239 25.9957 87.5817 26.3434 87.2848 26.6715C86.9879 26.9996 86.6285 27.2653 86.2067 27.4684C85.7926 27.6793 85.2965 27.7848 84.7184 27.7848C84.5465 27.7848 84.3278 27.7614 84.0621 27.7145C83.7965 27.6676 83.609 27.6285 83.4996 27.5973L83.4879 25.8395C83.5504 25.8473 83.6481 25.8551 83.7809 25.8629C83.9215 25.8785 84.0192 25.8864 84.0739 25.8864C84.566 25.8864 84.984 25.8199 85.3278 25.6871C85.6715 25.5621 85.9606 25.3473 86.1949 25.0426C86.4371 24.7457 86.6442 24.3356 86.816 23.8121L87.7184 21.3512ZM85.1285 9.98401L88.4215 19.8278L88.984 22.1129L87.4254 22.9098L82.7614 9.98401H85.1285ZM94.2926 21.5153C94.2926 21.1481 94.4059 20.8395 94.6324 20.5895C94.8668 20.3317 95.2028 20.2028 95.6403 20.2028C96.0778 20.2028 96.4098 20.3317 96.6364 20.5895C96.8707 20.8395 96.9879 21.1481 96.9879 21.5153C96.9879 21.8746 96.8707 22.1793 96.6364 22.4293C96.4098 22.6793 96.0778 22.8043 95.6403 22.8043C95.2028 22.8043 94.8668 22.6793 94.6324 22.4293C94.4059 22.1793 94.2926 21.8746 94.2926 21.5153ZM102.754 12.691V22.6637H100.586V9.98401H102.636L102.754 12.691ZM102.238 15.8434L101.336 15.8082C101.343 14.941 101.472 14.1403 101.722 13.4059C101.972 12.6637 102.324 12.0192 102.777 11.4723C103.23 10.9254 103.769 10.5035 104.394 10.2067C105.027 9.90198 105.726 9.74963 106.492 9.74963C107.117 9.74963 107.679 9.83557 108.179 10.0074C108.679 10.1715 109.105 10.4371 109.457 10.8043C109.816 11.1715 110.089 11.6481 110.277 12.234C110.464 12.8121 110.558 13.5192 110.558 14.3551V22.6637H108.379V14.3317C108.379 13.6676 108.281 13.1364 108.086 12.7379C107.89 12.3317 107.605 12.0387 107.23 11.859C106.855 11.6715 106.394 11.5778 105.847 11.5778C105.308 11.5778 104.816 11.691 104.371 11.9176C103.933 12.1442 103.554 12.4567 103.234 12.8551C102.922 13.2535 102.675 13.7106 102.496 14.2262C102.324 14.734 102.238 15.2731 102.238 15.8434ZM119.113 22.8981C118.23 22.8981 117.429 22.7496 116.711 22.4528C116 22.1481 115.386 21.7223 114.871 21.1754C114.363 20.6285 113.972 19.9801 113.699 19.2301C113.425 18.4801 113.289 17.6598 113.289 16.7692V16.277C113.289 15.2457 113.441 14.3278 113.746 13.5231C114.05 12.7106 114.464 12.0231 114.988 11.4606C115.511 10.8981 116.105 10.4723 116.769 10.1832C117.433 9.89417 118.121 9.74963 118.832 9.74963C119.738 9.74963 120.519 9.90588 121.175 10.2184C121.839 10.5309 122.382 10.9684 122.804 11.5309C123.226 12.0856 123.539 12.7418 123.742 13.4996C123.945 14.2496 124.047 15.0699 124.047 15.9606V16.9332H114.578V15.1637H121.879V14.9996C121.847 14.4371 121.73 13.8903 121.527 13.359C121.332 12.8278 121.019 12.3903 120.589 12.0465C120.16 11.7028 119.574 11.5309 118.832 11.5309C118.339 11.5309 117.886 11.6364 117.472 11.8473C117.058 12.0504 116.703 12.3551 116.406 12.7614C116.109 13.1676 115.879 13.6637 115.714 14.2496C115.55 14.8356 115.468 15.5114 115.468 16.277V16.7692C115.468 17.3707 115.55 17.9371 115.714 18.4684C115.886 18.9918 116.132 19.4528 116.453 19.8512C116.781 20.2496 117.175 20.5621 117.636 20.7887C118.105 21.0153 118.636 21.1285 119.23 21.1285C119.996 21.1285 120.644 20.9723 121.175 20.6598C121.707 20.3473 122.172 19.9293 122.57 19.4059L123.882 20.4489C123.609 20.8629 123.261 21.2574 122.839 21.6324C122.418 22.0074 121.898 22.3121 121.281 22.5465C120.672 22.7809 119.949 22.8981 119.113 22.8981ZM131.886 9.98401V11.6481H125.031V9.98401H131.886ZM127.351 6.90198H129.519V19.5231C129.519 19.9528 129.586 20.277 129.718 20.4957C129.851 20.7145 130.023 20.859 130.234 20.9293C130.445 20.9996 130.672 21.0348 130.914 21.0348C131.093 21.0348 131.281 21.0192 131.476 20.9879C131.679 20.9489 131.832 20.9176 131.933 20.8942L131.945 22.6637C131.773 22.7184 131.547 22.7692 131.265 22.816C130.992 22.8707 130.66 22.8981 130.269 22.8981C129.738 22.8981 129.25 22.7926 128.804 22.5817C128.359 22.3707 128.004 22.0192 127.738 21.527C127.48 21.027 127.351 20.3551 127.351 19.5114V6.90198ZM137.64 20.4137L140.898 9.98401H142.328L142.047 12.0582L138.73 22.6637H137.336L137.64 20.4137ZM135.449 9.98401L138.226 20.5309L138.425 22.6637H136.961L133.281 9.98401H135.449ZM145.445 20.4489L148.093 9.98401H150.25L146.57 22.6637H145.117L145.445 20.4489ZM142.644 9.98401L145.832 20.2379L146.195 22.6637H144.812L141.402 12.0348L141.121 9.98401H142.644ZM151.902 16.4645V16.1949C151.902 15.2809 152.035 14.4332 152.3 13.652C152.566 12.8629 152.949 12.1793 153.449 11.6012C153.949 11.0153 154.554 10.5621 155.265 10.2418C155.976 9.9137 156.773 9.74963 157.656 9.74963C158.547 9.74963 159.347 9.9137 160.058 10.2418C160.777 10.5621 161.386 11.0153 161.886 11.6012C162.394 12.1793 162.781 12.8629 163.047 13.652C163.312 14.4332 163.445 15.2809 163.445 16.1949V16.4645C163.445 17.3785 163.312 18.2262 163.047 19.0074C162.781 19.7887 162.394 20.4723 161.886 21.0582C161.386 21.6364 160.781 22.0895 160.07 22.4176C159.367 22.7379 158.57 22.8981 157.679 22.8981C156.789 22.8981 155.988 22.7379 155.277 22.4176C154.566 22.0895 153.957 21.6364 153.449 21.0582C152.949 20.4723 152.566 19.7887 152.3 19.0074C152.035 18.2262 151.902 17.3785 151.902 16.4645ZM154.07 16.1949V16.4645C154.07 17.0973 154.144 17.6949 154.293 18.2574C154.441 18.8121 154.664 19.3043 154.961 19.734C155.265 20.1637 155.644 20.5035 156.097 20.7535C156.55 20.9957 157.078 21.1168 157.679 21.1168C158.273 21.1168 158.793 20.9957 159.238 20.7535C159.691 20.5035 160.066 20.1637 160.363 19.734C160.66 19.3043 160.882 18.8121 161.031 18.2574C161.187 17.6949 161.265 17.0973 161.265 16.4645V16.1949C161.265 15.5699 161.187 14.9801 161.031 14.4254C160.882 13.8629 160.656 13.3668 160.351 12.9371C160.054 12.4996 159.679 12.1559 159.226 11.9059C158.781 11.6559 158.257 11.5309 157.656 11.5309C157.062 11.5309 156.539 11.6559 156.086 11.9059C155.64 12.1559 155.265 12.4996 154.961 12.9371C154.664 13.3668 154.441 13.8629 154.293 14.4254C154.144 14.9801 154.07 15.5699 154.07 16.1949ZM168.332 11.9762V22.6637H166.164V9.98401H168.273L168.332 11.9762ZM172.293 9.9137L172.281 11.9293C172.101 11.8903 171.929 11.8668 171.765 11.859C171.609 11.8434 171.429 11.8356 171.226 11.8356C170.726 11.8356 170.285 11.9137 169.902 12.0699C169.519 12.2262 169.195 12.4449 168.929 12.7262C168.664 13.0074 168.453 13.3434 168.297 13.734C168.148 14.1168 168.05 14.5387 168.004 14.9996L167.394 15.3512C167.394 14.5856 167.468 13.8668 167.617 13.1949C167.773 12.5231 168.011 11.9293 168.332 11.4137C168.652 10.8903 169.058 10.484 169.55 10.1949C170.05 9.89807 170.644 9.74963 171.332 9.74963C171.488 9.74963 171.668 9.76917 171.871 9.80823C172.074 9.83948 172.214 9.87463 172.293 9.9137ZM176.476 4.6637V22.6637H174.297V4.6637H176.476ZM184.222 9.98401L178.691 15.902L175.597 19.1129L175.422 16.8043L177.636 14.1559L181.574 9.98401H184.222ZM182.242 22.6637L177.718 16.6168L178.843 14.6832L184.797 22.6637H182.242Z"
              fill="white"/>
    </g>
    <defs>
        <clipPath id="clip0_53_1480">
            <rect width="184.956" height="28" fill="white" transform="translate(0.235107 0.663696)"/>
        </clipPath>
        <clipPath id="clip1_53_1480">
            <rect width="30.9559" height="24" fill="white" transform="matrix(-1 0 0 1 31.191 2.6637)"/>
        </clipPath>
    </defs>
</svg>
