<svg xmlns="http://www.w3.org/2000/svg" width="24" height="24" fill="none"><path fill="#969696" fill-rule="evenodd" d="M14.286 5.3H5.71l-.025.012a.5.5 0 0 0-.144.137c-.126.168-.242.46-.242.837v11.428c0 .377.116.669.242.837a.5.5 0 0 0 .144.137q.02.01.025.011l.003.001h8.575l.025-.012a.5.5 0 0 0 .144-.137c.126-.168.242-.46.242-.837V17H16v.714C16 18.977 15.232 20 14.286 20H5.714C4.768 20 4 18.977 4 17.714V6.286C4 5.023 4.768 4 5.714 4h8.572C15.233 4 16 5.023 16 6.286V7h-1.3v-.714c0-.377-.116-.669-.242-.837a.5.5 0 0 0-.144-.137zM16.875 8 20 11.425v1.152L16.875 16l-.99-1.056 1.46-1.63.555-.385-.075-.24-.66.112H9v-1.6h8.165l.66.112.075-.24-.555-.384-1.46-1.633z" clip-rule="evenodd"/></svg>