<svg xmlns="http://www.w3.org/2000/svg" width="24" height="24" fill="none">
    <g clip-path="url(#a)">
        <path fill="#FF007A" d="M0 0h24v24H0z"/>
        <g fill="#fff" clip-path="url(#b)">
            <path d="M10.13 7.096c-.195-.028-.204-.037-.112-.047.177-.027.586.01.874.075.668.158 1.272.566 1.913 1.281l.167.195.242-.037c1.03-.167 2.09-.037 2.972.372.241.111.622.334.668.39.019.019.047.14.065.26.066.436.038.762-.102 1.012-.074.14-.074.177-.028.298.038.093.149.158.251.158.223 0 .455-.353.567-.846l.046-.195.084.093c.474.53.845 1.263.9 1.783l.02.14-.084-.121a1.6 1.6 0 0 0-.446-.474c-.316-.213-.65-.278-1.533-.325-.798-.046-1.254-.111-1.7-.26-.76-.25-1.151-.576-2.052-1.774-.4-.53-.65-.817-.9-1.059-.549-.53-1.097-.808-1.812-.92"/>
            <path d="M17.05 8.276c.018-.353.065-.586.167-.8a.6.6 0 0 1 .083-.157c.01 0-.009.065-.037.14-.074.204-.083.491-.037.816.065.418.093.474.539.93.204.213.446.482.538.594l.158.204-.158-.149c-.195-.185-.64-.538-.743-.585-.065-.037-.074-.037-.12.01-.038.037-.047.092-.047.362-.01.418-.065.678-.204.947-.074.14-.084.112-.019-.046.047-.121.056-.177.056-.576 0-.808-.093-1.003-.66-1.328a7 7 0 0 0-.52-.27 2 2 0 0 1-.25-.12c.018-.019.566.139.78.232.325.13.38.14.418.13.028-.028.046-.102.056-.335M10.51 9.66c-.39-.54-.64-1.375-.584-1.998l.018-.195.093.019c.167.028.455.14.595.223.371.223.538.53.696 1.29.047.224.112.484.14.567.046.14.222.465.371.67.102.148.037.222-.195.203-.353-.037-.827-.362-1.133-.78m6.065 4.041c-1.84-.743-2.49-1.384-2.49-2.47 0-.159.01-.289.01-.289.01 0 .074.056.158.121.371.297.79.427 1.95.595.678.102 1.068.176 1.421.297 1.124.371 1.82 1.133 1.988 2.164.046.297.019.864-.056 1.16-.065.233-.25.66-.297.67-.01 0-.028-.047-.028-.121-.018-.39-.213-.762-.538-1.05-.39-.334-.892-.585-2.118-1.077m-1.3.306a2 2 0 0 0-.093-.39l-.047-.14.084.103c.12.139.213.306.297.538.065.177.065.233.065.52 0 .28-.01.344-.065.502a1.7 1.7 0 0 1-.39.622c-.334.344-.77.53-1.393.613-.112.01-.427.038-.706.056-.697.037-1.161.112-1.579.26-.056.019-.111.037-.12.028-.02-.018.269-.186.5-.297.326-.158.66-.242 1.394-.372.362-.055.734-.13.827-.167.92-.288 1.374-1.003 1.226-1.876"/>
            <path d="M16.12 15.501q-.361-.794-.167-1.504c.02-.047.038-.093.056-.093a.4.4 0 0 1 .13.065c.112.074.344.204.938.53.753.408 1.18.724 1.477 1.086.26.316.418.678.492 1.124.047.25.019.854-.046 1.105-.204.79-.669 1.421-1.347 1.783a1.3 1.3 0 0 1-.195.093c-.01 0 .028-.093.084-.204.223-.474.25-.929.083-1.44-.102-.316-.315-.696-.743-1.337-.51-.743-.631-.938-.761-1.208m-6.92 2.843c.687-.576 1.533-.985 2.313-1.115.334-.056.892-.037 1.198.047.492.13.938.408 1.17.752.223.334.325.622.428 1.263.037.25.083.51.092.567.075.334.223.594.41.733.287.214.789.223 1.28.037.084-.027.159-.055.159-.046.018.019-.233.186-.4.27a1.3 1.3 0 0 1-.668.157c-.446 0-.827-.232-1.134-.696a5 5 0 0 1-.306-.613c-.325-.753-.492-.976-.873-1.226-.334-.214-.762-.26-1.087-.102-.427.204-.538.752-.241 1.086.12.14.343.251.53.279a.567.567 0 0 0 .64-.567c0-.223-.084-.353-.306-.455-.298-.13-.623.019-.614.307 0 .12.056.195.177.25.074.038.074.038.019.028-.27-.055-.335-.39-.121-.603.26-.26.808-.149.994.213.074.149.083.446.018.632-.158.409-.604.622-1.059.501-.306-.083-.436-.167-.808-.548-.65-.668-.9-.798-1.83-.938l-.176-.028z"/>
            <path fill-rule="evenodd"
                  d="M4.316 3.4c2.164 2.628 5.498 6.715 5.665 6.938.14.185.084.362-.148.492-.13.074-.4.148-.53.148a.67.67 0 0 1-.445-.195c-.084-.083-.446-.613-1.264-1.885a121 121 0 0 0-1.16-1.793c-.038-.018-.038-.018 1.095 2.006.716 1.273.948 1.728.948 1.784 0 .12-.037.186-.186.353-.25.278-.362.594-.446 1.254-.093.733-.344 1.253-1.059 2.136-.418.52-.483.613-.585.826-.13.26-.167.41-.186.743-.018.353.019.576.121.91.093.298.195.493.446.874.214.334.344.585.344.678 0 .074.018.074.353 0 .798-.186 1.458-.502 1.82-.892.223-.241.279-.371.279-.706 0-.213-.01-.26-.065-.39-.093-.204-.27-.371-.65-.632-.502-.343-.716-.622-.771-.993-.047-.316.009-.53.287-1.115.288-.604.363-.854.41-1.467.027-.39.073-.548.185-.669.12-.13.223-.176.51-.214.474-.065.78-.185 1.022-.418a.87.87 0 0 0 .316-.678l.01-.213-.121-.13C10.074 9.65 4.028 3 4 3c-.01 0 .14.176.316.4m2.851 13.207a.383.383 0 0 0-.12-.511c-.159-.102-.4-.056-.4.084 0 .037.019.074.074.092.084.047.093.093.028.196-.065.102-.065.195.019.26.13.102.306.046.4-.121m3.761-4.886c-.223.065-.437.307-.502.548-.037.149-.018.418.047.502.102.13.195.167.455.167.51 0 .947-.223.993-.492.047-.223-.148-.53-.418-.669a.94.94 0 0 0-.575-.056m.594.465c.074-.112.047-.232-.093-.316-.25-.158-.631-.028-.631.214 0 .12.195.25.38.25.121 0 .288-.074.344-.148"
                  clip-rule="evenodd"/>
        </g>
    </g>
    <defs>
        <clipPath id="a">
            <rect width="24" height="24" fill="#fff" rx="12"/>
        </clipPath>
        <clipPath id="b">
            <path fill="#fff" d="M4 3h15.632v18H4z"/>
        </clipPath>
    </defs>
</svg>
