<svg width="56" height="56" viewBox="0 0 56 56" fill="none" xmlns="http://www.w3.org/2000/svg">
    <rect width="56" height="56" fill="#4F9E7D"/>
    <path fill-rule="evenodd" clip-rule="evenodd"
          d="M30.2028 24.3964V21.0692H37.8162V15.9955H17.0867V21.0692H24.7002V24.395C18.5127 24.6791 13.8594 25.9053 13.8594 27.3735C13.8594 28.8416 18.5127 30.0664 24.7002 30.3519V41.0141H30.2028V30.3491C36.3805 30.065 41.0225 28.8402 41.0225 27.3735C41.0225 25.9067 36.3805 24.6819 30.2028 24.3964ZM30.2028 29.442V29.4449C35.6591 29.203 39.7302 28.2538 39.7302 27.1147C39.7302 25.9785 35.6591 25.0264 30.2028 24.7831V28.4999C30.0439 28.5139 29.1931 28.5842 27.4958 28.5842C26.0811 28.5842 25.0573 28.5238 24.7002 28.4985V24.7803C19.2327 25.025 15.1517 25.977 15.1517 27.1147C15.1517 28.2538 19.2327 29.2058 24.7002 29.4463V29.442C25.0517 29.4589 26.0516 29.5011 27.4719 29.5011C29.2508 29.5011 30.0481 29.4533 30.2028 29.442Z"
          fill="white"/>
</svg>
